<?xml version="1.0" encoding="utf-8" standalone="no"?>
<!DOCTYPE svg PUBLIC "-//W3C//DTD SVG 1.1//EN"
  "http://www.w3.org/Graphics/SVG/1.1/DTD/svg11.dtd">
<!-- Created with matplotlib (https://matplotlib.org/) -->
<svg height="288pt" version="1.1" viewBox="0 0 432 288" width="432pt" xmlns="http://www.w3.org/2000/svg" xmlns:xlink="http://www.w3.org/1999/xlink">
 <metadata>
  <rdf:RDF xmlns:cc="http://creativecommons.org/ns#" xmlns:dc="http://purl.org/dc/elements/1.1/" xmlns:rdf="http://www.w3.org/1999/02/22-rdf-syntax-ns#">
   <cc:Work>
    <dc:type rdf:resource="http://purl.org/dc/dcmitype/StillImage"/>
    <dc:date>2022-04-20T10:30:34.873505</dc:date>
    <dc:format>image/svg+xml</dc:format>
    <dc:creator>
     <cc:Agent>
      <dc:title>Matplotlib v3.3.2, https://matplotlib.org/</dc:title>
     </cc:Agent>
    </dc:creator>
   </cc:Work>
  </rdf:RDF>
 </metadata>
 <defs>
  <style type="text/css">*{stroke-linecap:butt;stroke-linejoin:round;}</style>
 </defs>
 <g id="figure_1">
  <g id="patch_1">
   <path d="M 0 288 
L 432 288 
L 432 0 
L 0 0 
z
" style="fill:none;"/>
  </g>
  <g id="axes_1">
   <g id="patch_2">
    <path d="M 376.368 144 
C 376.368 129.929454 373.596409 115.995725 368.211844 102.996236 
C 362.827279 89.996746 354.934456 78.184301 344.985077 68.234923 
C 335.035699 58.285544 323.223254 50.392721 310.223764 45.008156 
C 297.224275 39.623591 283.290546 36.852 269.22 36.852 
C 255.149454 36.852 241.215725 39.623591 228.216236 45.008156 
C 215.216746 50.392721 203.404301 58.285544 193.454923 68.234923 
C 183.505544 78.184301 175.612721 89.996746 170.228156 102.996236 
C 164.843591 115.995725 162.072 129.929454 162.072 144 
C 162.072 158.070546 164.843591 172.004275 170.228156 185.003764 
C 175.612721 198.003254 183.505544 209.815699 193.454923 219.765077 
C 203.404301 229.714456 215.216746 237.607279 228.216236 242.991844 
C 241.215725 248.376409 255.149454 251.148 269.22 251.148 
C 283.290546 251.148 297.224275 248.376409 310.223764 242.991844 
C 323.223254 237.607279 335.035699 229.714456 344.985077 219.765077 
C 354.934456 209.815699 362.827279 198.003254 368.211844 185.003764 
C 373.596409 172.004275 376.368 158.070546 376.368 144 
M 269.22 144 
C 269.22 144 269.22 144 269.22 144 
C 269.22 144 269.22 144 269.22 144 
C 269.22 144 269.22 144 269.22 144 
C 269.22 144 269.22 144 269.22 144 
C 269.22 144 269.22 144 269.22 144 
C 269.22 144 269.22 144 269.22 144 
C 269.22 144 269.22 144 269.22 144 
C 269.22 144 269.22 144 269.22 144 
C 269.22 144 269.22 144 269.22 144 
C 269.22 144 269.22 144 269.22 144 
C 269.22 144 269.22 144 269.22 144 
C 269.22 144 269.22 144 269.22 144 
C 269.22 144 269.22 144 269.22 144 
C 269.22 144 269.22 144 269.22 144 
C 269.22 144 269.22 144 269.22 144 
C 269.22 144 269.22 144 269.22 144 
M 376.368 144 
z
" style="fill:none;"/>
   </g>
   <g id="matplotlib.axis_1">
    <g id="xtick_1">
     <g id="line2d_1">
      <path clip-path="url(#pdeee4e782e)" d="M 269.22 144 
L 269.22 36.852 
" style="fill:none;stroke:#cccccc;stroke-linecap:round;stroke-width:0.8;"/>
     </g>
     <g id="text_1">
      <!-- Acc -->
      <g style="fill:#262626;" transform="translate(258.217594 24.964406)scale(0.132 -0.132)">
       <defs>
        <path d="M -0.140625 0 
L 27.34375 71.578125 
L 37.546875 71.578125 
L 66.84375 0 
L 56.0625 0 
L 47.703125 21.6875 
L 17.78125 21.6875 
L 9.90625 0 
z
M 20.515625 29.390625 
L 44.78125 29.390625 
L 37.3125 49.21875 
Q 33.890625 58.25 32.234375 64.0625 
Q 30.859375 57.171875 28.375 50.390625 
z
" id="ArialMT-65"/>
        <path d="M 40.4375 19 
L 49.078125 17.875 
Q 47.65625 8.9375 41.8125 3.875 
Q 35.984375 -1.171875 27.484375 -1.171875 
Q 16.84375 -1.171875 10.375 5.78125 
Q 3.90625 12.75 3.90625 25.734375 
Q 3.90625 34.125 6.6875 40.421875 
Q 9.46875 46.734375 15.15625 49.875 
Q 20.84375 53.03125 27.546875 53.03125 
Q 35.984375 53.03125 41.359375 48.75 
Q 46.734375 44.484375 48.25 36.625 
L 39.703125 35.296875 
Q 38.484375 40.53125 35.375 43.15625 
Q 32.28125 45.796875 27.875 45.796875 
Q 21.234375 45.796875 17.078125 41.03125 
Q 12.9375 36.28125 12.9375 25.984375 
Q 12.9375 15.53125 16.9375 10.796875 
Q 20.953125 6.0625 27.390625 6.0625 
Q 32.5625 6.0625 36.03125 9.234375 
Q 39.5 12.40625 40.4375 19 
z
" id="ArialMT-99"/>
       </defs>
       <use xlink:href="#ArialMT-65"/>
       <use x="66.699219" xlink:href="#ArialMT-99"/>
       <use x="116.699219" xlink:href="#ArialMT-99"/>
      </g>
     </g>
    </g>
    <g id="xtick_2">
     <g id="line2d_2">
      <path clip-path="url(#pdeee4e782e)" d="M 269.22 144 
L 344.985077 68.234923 
" style="fill:none;stroke:#cccccc;stroke-linecap:round;stroke-width:0.8;"/>
     </g>
     <g id="text_2">
      <!-- R_inc -->
      <g style="fill:#262626;" transform="translate(338.930499 60.828595)scale(0.132 -0.132)">
       <defs>
        <path d="M 7.859375 0 
L 7.859375 71.578125 
L 39.59375 71.578125 
Q 49.171875 71.578125 54.140625 69.640625 
Q 59.125 67.71875 62.109375 62.828125 
Q 65.09375 57.953125 65.09375 52.046875 
Q 65.09375 44.4375 60.15625 39.203125 
Q 55.21875 33.984375 44.921875 32.5625 
Q 48.6875 30.765625 50.640625 29 
Q 54.78125 25.203125 58.5 19.484375 
L 70.953125 0 
L 59.03125 0 
L 49.5625 14.890625 
Q 45.40625 21.34375 42.71875 24.75 
Q 40.046875 28.171875 37.921875 29.53125 
Q 35.796875 30.90625 33.59375 31.453125 
Q 31.984375 31.78125 28.328125 31.78125 
L 17.328125 31.78125 
L 17.328125 0 
z
M 17.328125 39.984375 
L 37.703125 39.984375 
Q 44.1875 39.984375 47.84375 41.328125 
Q 51.515625 42.671875 53.421875 45.625 
Q 55.328125 48.578125 55.328125 52.046875 
Q 55.328125 57.125 51.640625 60.390625 
Q 47.953125 63.671875 39.984375 63.671875 
L 17.328125 63.671875 
z
" id="ArialMT-82"/>
        <path d="M -1.515625 -19.875 
L -1.515625 -13.53125 
L 56.734375 -13.53125 
L 56.734375 -19.875 
z
" id="ArialMT-95"/>
        <path d="M 6.640625 61.46875 
L 6.640625 71.578125 
L 15.4375 71.578125 
L 15.4375 61.46875 
z
M 6.640625 0 
L 6.640625 51.859375 
L 15.4375 51.859375 
L 15.4375 0 
z
" id="ArialMT-105"/>
        <path d="M 6.59375 0 
L 6.59375 51.859375 
L 14.5 51.859375 
L 14.5 44.484375 
Q 20.21875 53.03125 31 53.03125 
Q 35.6875 53.03125 39.625 51.34375 
Q 43.5625 49.65625 45.515625 46.921875 
Q 47.46875 44.1875 48.25 40.4375 
Q 48.734375 37.984375 48.734375 31.890625 
L 48.734375 0 
L 39.9375 0 
L 39.9375 31.546875 
Q 39.9375 36.921875 38.90625 39.578125 
Q 37.890625 42.234375 35.28125 43.8125 
Q 32.671875 45.40625 29.15625 45.40625 
Q 23.53125 45.40625 19.453125 41.84375 
Q 15.375 38.28125 15.375 28.328125 
L 15.375 0 
z
" id="ArialMT-110"/>
       </defs>
       <use xlink:href="#ArialMT-82"/>
       <use x="72.216797" xlink:href="#ArialMT-95"/>
       <use x="127.832031" xlink:href="#ArialMT-105"/>
       <use x="150.048828" xlink:href="#ArialMT-110"/>
       <use x="205.664062" xlink:href="#ArialMT-99"/>
      </g>
     </g>
    </g>
    <g id="xtick_3">
     <g id="line2d_3">
      <path clip-path="url(#pdeee4e782e)" d="M 269.22 144 
L 376.368 144 
" style="fill:none;stroke:#cccccc;stroke-linecap:round;stroke-width:0.8;"/>
     </g>
     <g id="text_3">
      <!-- R_corr -->
      <g style="fill:#262626;" transform="translate(371.865937 147.412406)scale(0.132 -0.132)">
       <defs>
        <path d="M 3.328125 25.921875 
Q 3.328125 40.328125 11.328125 47.265625 
Q 18.015625 53.03125 27.640625 53.03125 
Q 38.328125 53.03125 45.109375 46.015625 
Q 51.90625 39.015625 51.90625 26.65625 
Q 51.90625 16.65625 48.90625 10.90625 
Q 45.90625 5.171875 40.15625 2 
Q 34.421875 -1.171875 27.640625 -1.171875 
Q 16.75 -1.171875 10.03125 5.8125 
Q 3.328125 12.796875 3.328125 25.921875 
z
M 12.359375 25.921875 
Q 12.359375 15.96875 16.703125 11.015625 
Q 21.046875 6.0625 27.640625 6.0625 
Q 34.1875 6.0625 38.53125 11.03125 
Q 42.875 16.015625 42.875 26.21875 
Q 42.875 35.84375 38.5 40.796875 
Q 34.125 45.75 27.640625 45.75 
Q 21.046875 45.75 16.703125 40.8125 
Q 12.359375 35.890625 12.359375 25.921875 
z
" id="ArialMT-111"/>
        <path d="M 6.5 0 
L 6.5 51.859375 
L 14.40625 51.859375 
L 14.40625 44 
Q 17.4375 49.515625 20 51.265625 
Q 22.5625 53.03125 25.640625 53.03125 
Q 30.078125 53.03125 34.671875 50.203125 
L 31.640625 42.046875 
Q 28.421875 43.953125 25.203125 43.953125 
Q 22.3125 43.953125 20.015625 42.21875 
Q 17.71875 40.484375 16.75 37.40625 
Q 15.28125 32.71875 15.28125 27.15625 
L 15.28125 0 
z
" id="ArialMT-114"/>
       </defs>
       <use xlink:href="#ArialMT-82"/>
       <use x="72.216797" xlink:href="#ArialMT-95"/>
       <use x="127.832031" xlink:href="#ArialMT-99"/>
       <use x="177.832031" xlink:href="#ArialMT-111"/>
       <use x="233.447266" xlink:href="#ArialMT-114"/>
       <use x="266.748047" xlink:href="#ArialMT-114"/>
      </g>
     </g>
    </g>
    <g id="xtick_4">
     <g id="line2d_4">
      <path clip-path="url(#pdeee4e782e)" d="M 269.22 144 
L 344.985077 219.765077 
" style="fill:none;stroke:#cccccc;stroke-linecap:round;stroke-width:0.8;"/>
     </g>
     <g id="text_4">
      <!-- P_inc -->
      <g style="fill:#262626;" transform="translate(339.29453 233.996217)scale(0.132 -0.132)">
       <defs>
        <path d="M 7.71875 0 
L 7.71875 71.578125 
L 34.71875 71.578125 
Q 41.84375 71.578125 45.609375 70.90625 
Q 50.875 70.015625 54.4375 67.546875 
Q 58.015625 65.09375 60.1875 60.640625 
Q 62.359375 56.203125 62.359375 50.875 
Q 62.359375 41.75 56.546875 35.421875 
Q 50.734375 29.109375 35.546875 29.109375 
L 17.1875 29.109375 
L 17.1875 0 
z
M 17.1875 37.546875 
L 35.6875 37.546875 
Q 44.875 37.546875 48.734375 40.96875 
Q 52.59375 44.390625 52.59375 50.59375 
Q 52.59375 55.078125 50.3125 58.265625 
Q 48.046875 61.46875 44.34375 62.5 
Q 41.9375 63.140625 35.5 63.140625 
L 17.1875 63.140625 
z
" id="ArialMT-80"/>
       </defs>
       <use xlink:href="#ArialMT-80"/>
       <use x="66.699219" xlink:href="#ArialMT-95"/>
       <use x="122.314453" xlink:href="#ArialMT-105"/>
       <use x="144.53125" xlink:href="#ArialMT-110"/>
       <use x="200.146484" xlink:href="#ArialMT-99"/>
      </g>
     </g>
    </g>
    <g id="xtick_5">
     <g id="line2d_5">
      <path clip-path="url(#pdeee4e782e)" d="M 269.22 144 
L 269.22 251.148 
" style="fill:none;stroke:#cccccc;stroke-linecap:round;stroke-width:0.8;"/>
     </g>
     <g id="text_5">
      <!-- P_corr -->
      <g style="fill:#262626;" transform="translate(249.781969 269.860406)scale(0.132 -0.132)">
       <use xlink:href="#ArialMT-80"/>
       <use x="66.699219" xlink:href="#ArialMT-95"/>
       <use x="122.314453" xlink:href="#ArialMT-99"/>
       <use x="172.314453" xlink:href="#ArialMT-111"/>
       <use x="227.929688" xlink:href="#ArialMT-114"/>
       <use x="261.230469" xlink:href="#ArialMT-114"/>
      </g>
     </g>
    </g>
    <g id="xtick_6">
     <g id="line2d_6">
      <path clip-path="url(#pdeee4e782e)" d="M 269.22 144 
L 193.454923 219.765077 
" style="fill:none;stroke:#cccccc;stroke-linecap:round;stroke-width:0.8;"/>
     </g>
     <g id="text_6">
      <!-- F1_inc -->
      <g style="fill:#262626;" transform="translate(162.827939 234.015811)scale(0.132 -0.132)">
       <defs>
        <path d="M 8.203125 0 
L 8.203125 71.578125 
L 56.5 71.578125 
L 56.5 63.140625 
L 17.671875 63.140625 
L 17.671875 40.96875 
L 51.265625 40.96875 
L 51.265625 32.515625 
L 17.671875 32.515625 
L 17.671875 0 
z
" id="ArialMT-70"/>
        <path d="M 37.25 0 
L 28.46875 0 
L 28.46875 56 
Q 25.296875 52.984375 20.140625 49.953125 
Q 14.984375 46.921875 10.890625 45.40625 
L 10.890625 53.90625 
Q 18.265625 57.375 23.78125 62.296875 
Q 29.296875 67.234375 31.59375 71.875 
L 37.25 71.875 
z
" id="ArialMT-49"/>
       </defs>
       <use xlink:href="#ArialMT-70"/>
       <use x="61.083984" xlink:href="#ArialMT-49"/>
       <use x="116.699219" xlink:href="#ArialMT-95"/>
       <use x="172.314453" xlink:href="#ArialMT-105"/>
       <use x="194.53125" xlink:href="#ArialMT-110"/>
       <use x="250.146484" xlink:href="#ArialMT-99"/>
      </g>
     </g>
    </g>
    <g id="xtick_7">
     <g id="line2d_7">
      <path clip-path="url(#pdeee4e782e)" d="M 269.22 144 
L 162.072 144 
" style="fill:none;stroke:#cccccc;stroke-linecap:round;stroke-width:0.8;"/>
     </g>
     <g id="text_7">
      <!-- F1_corr -->
      <g style="fill:#262626;" transform="translate(124.035 147.432)scale(0.132 -0.132)">
       <use xlink:href="#ArialMT-70"/>
       <use x="61.083984" xlink:href="#ArialMT-49"/>
       <use x="116.699219" xlink:href="#ArialMT-95"/>
       <use x="172.314453" xlink:href="#ArialMT-99"/>
       <use x="222.314453" xlink:href="#ArialMT-111"/>
       <use x="277.929688" xlink:href="#ArialMT-114"/>
       <use x="311.230469" xlink:href="#ArialMT-114"/>
      </g>
     </g>
    </g>
    <g id="xtick_8">
     <g id="line2d_8">
      <path clip-path="url(#pdeee4e782e)" d="M 269.22 144 
L 193.454923 68.234923 
" style="fill:none;stroke:#cccccc;stroke-linecap:round;stroke-width:0.8;"/>
     </g>
     <g id="text_8">
      <!-- MCC -->
      <g style="fill:#262626;" transform="translate(167.60572 60.828595)scale(0.132 -0.132)">
       <defs>
        <path d="M 7.421875 0 
L 7.421875 71.578125 
L 21.6875 71.578125 
L 38.625 20.90625 
Q 40.96875 13.8125 42.046875 10.296875 
Q 43.265625 14.203125 45.84375 21.78125 
L 62.984375 71.578125 
L 75.734375 71.578125 
L 75.734375 0 
L 66.609375 0 
L 66.609375 59.90625 
L 45.796875 0 
L 37.25 0 
L 16.546875 60.9375 
L 16.546875 0 
z
" id="ArialMT-77"/>
        <path d="M 58.796875 25.09375 
L 68.265625 22.703125 
Q 65.28125 11.03125 57.546875 4.90625 
Q 49.8125 -1.21875 38.625 -1.21875 
Q 27.046875 -1.21875 19.796875 3.484375 
Q 12.546875 8.203125 8.765625 17.140625 
Q 4.984375 26.078125 4.984375 36.328125 
Q 4.984375 47.515625 9.25 55.828125 
Q 13.53125 64.15625 21.40625 68.46875 
Q 29.296875 72.796875 38.765625 72.796875 
Q 49.515625 72.796875 56.828125 67.328125 
Q 64.15625 61.859375 67.046875 51.953125 
L 57.71875 49.75 
Q 55.21875 57.5625 50.484375 61.125 
Q 45.75 64.703125 38.578125 64.703125 
Q 30.328125 64.703125 24.78125 60.734375 
Q 19.234375 56.78125 16.984375 50.109375 
Q 14.75 43.453125 14.75 36.375 
Q 14.75 27.25 17.40625 20.4375 
Q 20.0625 13.625 25.671875 10.25 
Q 31.296875 6.890625 37.84375 6.890625 
Q 45.796875 6.890625 51.3125 11.46875 
Q 56.84375 16.0625 58.796875 25.09375 
z
" id="ArialMT-67"/>
       </defs>
       <use xlink:href="#ArialMT-77"/>
       <use x="83.300781" xlink:href="#ArialMT-67"/>
       <use x="155.517578" xlink:href="#ArialMT-67"/>
      </g>
     </g>
    </g>
   </g>
   <g id="matplotlib.axis_2">
    <g id="ytick_1">
     <g id="line2d_9">
      <path clip-path="url(#pdeee4e782e)" d="M 269.22 144 
C 269.22 144 269.22 144 269.22 144 
C 269.22 144 269.22 144 269.22 144 
C 269.22 144 269.22 144 269.22 144 
C 269.22 144 269.22 144 269.22 144 
C 269.22 144 269.22 144 269.22 144 
C 269.22 144 269.22 144 269.22 144 
C 269.22 144 269.22 144 269.22 144 
C 269.22 144 269.22 144 269.22 144 
C 269.22 144 269.22 144 269.22 144 
C 269.22 144 269.22 144 269.22 144 
C 269.22 144 269.22 144 269.22 144 
C 269.22 144 269.22 144 269.22 144 
C 269.22 144 269.22 144 269.22 144 
C 269.22 144 269.22 144 269.22 144 
C 269.22 144 269.22 144 269.22 144 
C 269.22 144 269.22 144 269.22 144 
" style="fill:none;stroke:#cccccc;stroke-linecap:round;stroke-width:0.8;"/>
     </g>
     <g id="text_9">
      <!-- 0 -->
      <g style="fill:#808080;" transform="translate(269.22 142.0125)scale(0.1 -0.1)">
       <defs>
        <path d="M 4.15625 35.296875 
Q 4.15625 48 6.765625 55.734375 
Q 9.375 63.484375 14.515625 67.671875 
Q 19.671875 71.875 27.484375 71.875 
Q 33.25 71.875 37.59375 69.546875 
Q 41.9375 67.234375 44.765625 62.859375 
Q 47.609375 58.5 49.21875 52.21875 
Q 50.828125 45.953125 50.828125 35.296875 
Q 50.828125 22.703125 48.234375 14.96875 
Q 45.65625 7.234375 40.5 3 
Q 35.359375 -1.21875 27.484375 -1.21875 
Q 17.140625 -1.21875 11.234375 6.203125 
Q 4.15625 15.140625 4.15625 35.296875 
z
M 13.1875 35.296875 
Q 13.1875 17.671875 17.3125 11.828125 
Q 21.4375 6 27.484375 6 
Q 33.546875 6 37.671875 11.859375 
Q 41.796875 17.71875 41.796875 35.296875 
Q 41.796875 52.984375 37.671875 58.78125 
Q 33.546875 64.59375 27.390625 64.59375 
Q 21.34375 64.59375 17.71875 59.46875 
Q 13.1875 52.9375 13.1875 35.296875 
z
" id="ArialMT-48"/>
       </defs>
       <use xlink:href="#ArialMT-48"/>
      </g>
     </g>
    </g>
    <g id="ytick_2">
     <g id="line2d_10">
      <path clip-path="url(#pdeee4e782e)" d="M 269.22 122.5704 
C 272.034109 122.5704 274.820855 123.124718 277.420753 124.201631 
C 280.020651 125.278544 282.38314 126.857109 284.373015 128.846985 
C 286.362891 130.83686 287.941456 133.199349 289.018369 135.799247 
C 290.095282 138.399145 290.6496 141.185891 290.6496 144 
C 290.6496 146.814109 290.095282 149.600855 289.018369 152.200753 
C 287.941456 154.800651 286.362891 157.16314 284.373015 159.153015 
C 282.38314 161.142891 280.020651 162.721456 277.420753 163.798369 
C 274.820855 164.875282 272.034109 165.4296 269.22 165.4296 
C 266.405891 165.4296 263.619145 164.875282 261.019247 163.798369 
C 258.419349 162.721456 256.05686 161.142891 254.066985 159.153015 
C 252.077109 157.16314 250.498544 154.800651 249.421631 152.200753 
C 248.344718 149.600855 247.7904 146.814109 247.7904 144 
C 247.7904 141.185891 248.344718 138.399145 249.421631 135.799247 
C 250.498544 133.199349 252.077109 130.83686 254.066985 128.846985 
C 256.05686 126.857109 258.419349 125.278544 261.019247 124.201631 
C 263.619145 123.124718 266.405891 122.5704 269.22 122.5704 
" style="fill:none;stroke:#cccccc;stroke-linecap:round;stroke-width:0.8;"/>
     </g>
     <g id="text_10">
      <!-- 0.2 -->
      <g style="fill:#808080;" transform="translate(269.22 120.5829)scale(0.1 -0.1)">
       <defs>
        <path d="M 9.078125 0 
L 9.078125 10.015625 
L 19.09375 10.015625 
L 19.09375 0 
z
" id="ArialMT-46"/>
        <path d="M 50.34375 8.453125 
L 50.34375 0 
L 3.03125 0 
Q 2.9375 3.171875 4.046875 6.109375 
Q 5.859375 10.9375 9.828125 15.625 
Q 13.8125 20.3125 21.34375 26.46875 
Q 33.015625 36.03125 37.109375 41.625 
Q 41.21875 47.21875 41.21875 52.203125 
Q 41.21875 57.421875 37.46875 61 
Q 33.734375 64.59375 27.734375 64.59375 
Q 21.390625 64.59375 17.578125 60.78125 
Q 13.765625 56.984375 13.71875 50.25 
L 4.6875 51.171875 
Q 5.609375 61.28125 11.65625 66.578125 
Q 17.71875 71.875 27.9375 71.875 
Q 38.234375 71.875 44.234375 66.15625 
Q 50.25 60.453125 50.25 52 
Q 50.25 47.703125 48.484375 43.546875 
Q 46.734375 39.40625 42.65625 34.8125 
Q 38.578125 30.21875 29.109375 22.21875 
Q 21.1875 15.578125 18.9375 13.203125 
Q 16.703125 10.84375 15.234375 8.453125 
z
" id="ArialMT-50"/>
       </defs>
       <use xlink:href="#ArialMT-48"/>
       <use x="55.615234" xlink:href="#ArialMT-46"/>
       <use x="83.398438" xlink:href="#ArialMT-50"/>
      </g>
     </g>
    </g>
    <g id="ytick_3">
     <g id="line2d_11">
      <path clip-path="url(#pdeee4e782e)" d="M 269.22 101.1408 
C 274.848219 101.1408 280.42171 102.249436 285.621506 104.403262 
C 290.821302 106.557088 295.546279 109.714218 299.526031 113.693969 
C 303.505782 117.673721 306.662912 122.398698 308.816738 127.598494 
C 310.970564 132.79829 312.0792 138.371781 312.0792 144 
C 312.0792 149.628219 310.970564 155.20171 308.816738 160.401506 
C 306.662912 165.601302 303.505782 170.326279 299.526031 174.306031 
C 295.546279 178.285782 290.821302 181.442912 285.621506 183.596738 
C 280.42171 185.750564 274.848219 186.8592 269.22 186.8592 
C 263.591781 186.8592 258.01829 185.750564 252.818494 183.596738 
C 247.618698 181.442912 242.893721 178.285782 238.913969 174.306031 
C 234.934218 170.326279 231.777088 165.601302 229.623262 160.401506 
C 227.469436 155.20171 226.3608 149.628219 226.3608 144 
C 226.3608 138.371781 227.469436 132.79829 229.623262 127.598494 
C 231.777088 122.398698 234.934218 117.673721 238.913969 113.693969 
C 242.893721 109.714218 247.618698 106.557088 252.818494 104.403262 
C 258.01829 102.249436 263.591781 101.1408 269.22 101.1408 
" style="fill:none;stroke:#cccccc;stroke-linecap:round;stroke-width:0.8;"/>
     </g>
     <g id="text_11">
      <!-- 0.4 -->
      <g style="fill:#808080;" transform="translate(269.22 99.1533)scale(0.1 -0.1)">
       <defs>
        <path d="M 32.328125 0 
L 32.328125 17.140625 
L 1.265625 17.140625 
L 1.265625 25.203125 
L 33.9375 71.578125 
L 41.109375 71.578125 
L 41.109375 25.203125 
L 50.78125 25.203125 
L 50.78125 17.140625 
L 41.109375 17.140625 
L 41.109375 0 
z
M 32.328125 25.203125 
L 32.328125 57.46875 
L 9.90625 25.203125 
z
" id="ArialMT-52"/>
       </defs>
       <use xlink:href="#ArialMT-48"/>
       <use x="55.615234" xlink:href="#ArialMT-46"/>
       <use x="83.398438" xlink:href="#ArialMT-52"/>
      </g>
     </g>
    </g>
    <g id="ytick_4">
     <g id="line2d_12">
      <path clip-path="url(#pdeee4e782e)" d="M 269.22 79.7112 
C 277.662328 79.7112 286.022565 81.374155 293.822259 84.604894 
C 301.621953 87.835633 308.709419 92.571326 314.679046 98.540954 
C 320.648674 104.510581 325.384367 111.598047 328.615106 119.397741 
C 331.845845 127.197435 333.5088 135.557672 333.5088 144 
C 333.5088 152.442328 331.845845 160.802565 328.615106 168.602259 
C 325.384367 176.401953 320.648674 183.489419 314.679046 189.459046 
C 308.709419 195.428674 301.621953 200.164367 293.822259 203.395106 
C 286.022565 206.625845 277.662328 208.2888 269.22 208.2888 
C 260.777672 208.2888 252.417435 206.625845 244.617741 203.395106 
C 236.818047 200.164367 229.730581 195.428674 223.760954 189.459046 
C 217.791326 183.489419 213.055633 176.401953 209.824894 168.602259 
C 206.594155 160.802565 204.9312 152.442328 204.9312 144 
C 204.9312 135.557672 206.594155 127.197435 209.824894 119.397741 
C 213.055633 111.598047 217.791326 104.510581 223.760954 98.540954 
C 229.730581 92.571326 236.818047 87.835633 244.617741 84.604894 
C 252.417435 81.374155 260.777672 79.7112 269.22 79.7112 
" style="fill:none;stroke:#cccccc;stroke-linecap:round;stroke-width:0.8;"/>
     </g>
     <g id="text_12">
      <!-- 0.6 -->
      <g style="fill:#808080;" transform="translate(269.22 77.7237)scale(0.1 -0.1)">
       <defs>
        <path d="M 49.75 54.046875 
L 41.015625 53.375 
Q 39.84375 58.546875 37.703125 60.890625 
Q 34.125 64.65625 28.90625 64.65625 
Q 24.703125 64.65625 21.53125 62.3125 
Q 17.390625 59.28125 14.984375 53.46875 
Q 12.59375 47.65625 12.5 36.921875 
Q 15.671875 41.75 20.265625 44.09375 
Q 24.859375 46.4375 29.890625 46.4375 
Q 38.671875 46.4375 44.84375 39.96875 
Q 51.03125 33.5 51.03125 23.25 
Q 51.03125 16.5 48.125 10.71875 
Q 45.21875 4.9375 40.140625 1.859375 
Q 35.0625 -1.21875 28.609375 -1.21875 
Q 17.625 -1.21875 10.6875 6.859375 
Q 3.765625 14.9375 3.765625 33.5 
Q 3.765625 54.25 11.421875 63.671875 
Q 18.109375 71.875 29.4375 71.875 
Q 37.890625 71.875 43.28125 67.140625 
Q 48.6875 62.40625 49.75 54.046875 
z
M 13.875 23.1875 
Q 13.875 18.65625 15.796875 14.5 
Q 17.71875 10.359375 21.1875 8.171875 
Q 24.65625 6 28.46875 6 
Q 34.03125 6 38.03125 10.484375 
Q 42.046875 14.984375 42.046875 22.703125 
Q 42.046875 30.125 38.078125 34.390625 
Q 34.125 38.671875 28.125 38.671875 
Q 22.171875 38.671875 18.015625 34.390625 
Q 13.875 30.125 13.875 23.1875 
z
" id="ArialMT-54"/>
       </defs>
       <use xlink:href="#ArialMT-48"/>
       <use x="55.615234" xlink:href="#ArialMT-46"/>
       <use x="83.398438" xlink:href="#ArialMT-54"/>
      </g>
     </g>
    </g>
    <g id="ytick_5">
     <g id="line2d_13">
      <path clip-path="url(#pdeee4e782e)" d="M 269.22 58.2816 
C 280.476437 58.2816 291.62342 60.498873 302.023012 64.806525 
C 312.422603 69.114177 321.872559 75.428435 329.832062 83.387938 
C 337.791565 91.347441 344.105823 100.797397 348.413475 111.196988 
C 352.721127 121.59658 354.9384 132.743563 354.9384 144 
C 354.9384 155.256437 352.721127 166.40342 348.413475 176.803012 
C 344.105823 187.202603 337.791565 196.652559 329.832062 204.612062 
C 321.872559 212.571565 312.422603 218.885823 302.023012 223.193475 
C 291.62342 227.501127 280.476437 229.7184 269.22 229.7184 
C 257.963563 229.7184 246.81658 227.501127 236.416988 223.193475 
C 226.017397 218.885823 216.567441 212.571565 208.607938 204.612062 
C 200.648435 196.652559 194.334177 187.202603 190.026525 176.803012 
C 185.718873 166.40342 183.5016 155.256437 183.5016 144 
C 183.5016 132.743563 185.718873 121.59658 190.026525 111.196988 
C 194.334177 100.797397 200.648435 91.347441 208.607938 83.387938 
C 216.567441 75.428435 226.017397 69.114177 236.416988 64.806525 
C 246.81658 60.498873 257.963563 58.2816 269.22 58.2816 
" style="fill:none;stroke:#cccccc;stroke-linecap:round;stroke-width:0.8;"/>
     </g>
     <g id="text_13">
      <!-- 0.8 -->
      <g style="fill:#808080;" transform="translate(269.22 56.2941)scale(0.1 -0.1)">
       <defs>
        <path d="M 17.671875 38.8125 
Q 12.203125 40.828125 9.5625 44.53125 
Q 6.9375 48.25 6.9375 53.421875 
Q 6.9375 61.234375 12.546875 66.546875 
Q 18.171875 71.875 27.484375 71.875 
Q 36.859375 71.875 42.578125 66.421875 
Q 48.296875 60.984375 48.296875 53.171875 
Q 48.296875 48.1875 45.671875 44.5 
Q 43.0625 40.828125 37.75 38.8125 
Q 44.34375 36.671875 47.78125 31.875 
Q 51.21875 27.09375 51.21875 20.453125 
Q 51.21875 11.28125 44.71875 5.03125 
Q 38.234375 -1.21875 27.640625 -1.21875 
Q 17.046875 -1.21875 10.546875 5.046875 
Q 4.046875 11.328125 4.046875 20.703125 
Q 4.046875 27.6875 7.59375 32.390625 
Q 11.140625 37.109375 17.671875 38.8125 
z
M 15.921875 53.71875 
Q 15.921875 48.640625 19.1875 45.40625 
Q 22.46875 42.1875 27.6875 42.1875 
Q 32.765625 42.1875 36.015625 45.375 
Q 39.265625 48.578125 39.265625 53.21875 
Q 39.265625 58.0625 35.90625 61.359375 
Q 32.5625 64.65625 27.59375 64.65625 
Q 22.5625 64.65625 19.234375 61.421875 
Q 15.921875 58.203125 15.921875 53.71875 
z
M 13.09375 20.65625 
Q 13.09375 16.890625 14.875 13.375 
Q 16.65625 9.859375 20.171875 7.921875 
Q 23.6875 6 27.734375 6 
Q 34.03125 6 38.125 10.046875 
Q 42.234375 14.109375 42.234375 20.359375 
Q 42.234375 26.703125 38.015625 30.859375 
Q 33.796875 35.015625 27.4375 35.015625 
Q 21.234375 35.015625 17.15625 30.90625 
Q 13.09375 26.8125 13.09375 20.65625 
z
" id="ArialMT-56"/>
       </defs>
       <use xlink:href="#ArialMT-48"/>
       <use x="55.615234" xlink:href="#ArialMT-46"/>
       <use x="83.398438" xlink:href="#ArialMT-56"/>
      </g>
     </g>
    </g>
    <g id="ytick_6">
     <g id="line2d_14">
      <path clip-path="url(#pdeee4e782e)" d="M 269.22 36.852 
C 283.290546 36.852 297.224275 39.623591 310.223764 45.008156 
C 323.223254 50.392721 335.035699 58.285544 344.985077 68.234923 
C 354.934456 78.184301 362.827279 89.996746 368.211844 102.996236 
C 373.596409 115.995725 376.368 129.929454 376.368 144 
C 376.368 158.070546 373.596409 172.004275 368.211844 185.003764 
C 362.827279 198.003254 354.934456 209.815699 344.985077 219.765077 
C 335.035699 229.714456 323.223254 237.607279 310.223764 242.991844 
C 297.224275 248.376409 283.290546 251.148 269.22 251.148 
C 255.149454 251.148 241.215725 248.376409 228.216236 242.991844 
C 215.216746 237.607279 203.404301 229.714456 193.454923 219.765077 
C 183.505544 209.815699 175.612721 198.003254 170.228156 185.003764 
C 164.843591 172.004275 162.072 158.070546 162.072 144 
C 162.072 129.929454 164.843591 115.995725 170.228156 102.996236 
C 175.612721 89.996746 183.505544 78.184301 193.454923 68.234923 
C 203.404301 58.285544 215.216746 50.392721 228.216236 45.008156 
C 241.215725 39.623591 255.149454 36.852 269.22 36.852 
" style="fill:none;stroke:#cccccc;stroke-linecap:round;stroke-width:0.8;"/>
     </g>
     <g id="text_14">
      <!-- 1.0 -->
      <g style="fill:#808080;" transform="translate(269.22 34.8645)scale(0.1 -0.1)">
       <use xlink:href="#ArialMT-49"/>
       <use x="55.615234" xlink:href="#ArialMT-46"/>
       <use x="83.398438" xlink:href="#ArialMT-48"/>
      </g>
     </g>
    </g>
   </g>
   <g id="line2d_15">
    <path clip-path="url(#pdeee4e782e)" d="M 269.22 68.212398 
L 320.07352 93.14648 
L 374.780602 144 
L 344.768314 219.548314 
L 269.22 174.033049 
L 208.43133 204.78867 
L 222.458148 144 
L 236.888314 111.668314 
L 269.22 68.212398 
" style="fill:none;stroke:#00ffff;stroke-linecap:round;stroke-width:2;"/>
   </g>
   <g id="line2d_16">
    <path clip-path="url(#pdeee4e782e)" d="M 269.22 68.867822 
L 319.323446 93.896554 
L 375.178657 144 
L 344.810818 219.590818 
L 269.22 174.858624 
L 208.956457 204.263543 
L 221.421277 144 
L 236.565252 111.345252 
L 269.22 68.867822 
" style="fill:none;stroke:#008b8b;stroke-dasharray:2,3.3;stroke-dashoffset:0;stroke-width:2;"/>
   </g>
   <g id="patch_3">
    <path d="M 269.22 36.852 
C 255.149454 36.852 241.215725 39.623591 228.216236 45.008156 
C 215.216746 50.392721 203.404301 58.285544 193.454923 68.234923 
C 183.505544 78.184301 175.612721 89.996746 170.228156 102.996236 
C 164.843591 115.995725 162.072 129.929454 162.072 144 
C 162.072 158.070546 164.843591 172.004275 170.228156 185.003764 
C 175.612721 198.003254 183.505544 209.815699 193.454923 219.765077 
C 203.404301 229.714456 215.216746 237.607279 228.216236 242.991844 
C 241.215725 248.376409 255.149454 251.148 269.22 251.148 
C 283.290546 251.148 297.224275 248.376409 310.223764 242.991844 
C 323.223254 237.607279 335.035699 229.714456 344.985077 219.765077 
C 354.934456 209.815699 362.827279 198.003254 368.211844 185.003764 
C 373.596409 172.004275 376.368 158.070546 376.368 144 
C 376.368 129.929454 373.596409 115.995725 368.211844 102.996236 
C 362.827279 89.996746 354.934456 78.184301 344.985077 68.234923 
C 335.035699 58.285544 323.223254 50.392721 310.223764 45.008156 
C 297.224275 39.623591 283.290546 36.852 269.22 36.852 
" style="fill:none;stroke:#cccccc;stroke-linecap:square;stroke-linejoin:miter;"/>
   </g>
   <g id="legend_1">
    <g id="patch_4">
     <path d="M -0.193125 85.077375 
L 152.832 85.077375 
Q 155.472 85.077375 155.472 82.437375 
L 155.472 46.092 
Q 155.472 43.452 152.832 43.452 
L -0.193125 43.452 
Q -2.833125 43.452 -2.833125 46.092 
L -2.833125 82.437375 
Q -2.833125 85.077375 -0.193125 85.077375 
z
" style="fill:#ffffff;opacity:0.8;stroke:#cccccc;stroke-linejoin:miter;stroke-width:0.8;"/>
    </g>
    <g id="line2d_17">
     <path d="M 2.446875 53.721188 
L 28.846875 53.721188 
" style="fill:none;stroke:#00ffff;stroke-linecap:round;stroke-width:2;"/>
    </g>
    <g id="line2d_18"/>
    <g id="text_15">
     <!-- CoDES_Score_set -->
     <g style="fill:#262626;" transform="translate(39.406875 58.341188)scale(0.132 -0.132)">
      <defs>
       <path d="M 7.71875 0 
L 7.71875 71.578125 
L 32.375 71.578125 
Q 40.71875 71.578125 45.125 70.5625 
Q 51.265625 69.140625 55.609375 65.4375 
Q 61.28125 60.640625 64.078125 53.1875 
Q 66.890625 45.75 66.890625 36.1875 
Q 66.890625 28.03125 64.984375 21.734375 
Q 63.09375 15.4375 60.109375 11.296875 
Q 57.125 7.171875 53.578125 4.796875 
Q 50.046875 2.4375 45.046875 1.21875 
Q 40.046875 0 33.546875 0 
z
M 17.1875 8.453125 
L 32.46875 8.453125 
Q 39.546875 8.453125 43.578125 9.765625 
Q 47.609375 11.078125 50 13.484375 
Q 53.375 16.84375 55.25 22.53125 
Q 57.125 28.21875 57.125 36.328125 
Q 57.125 47.5625 53.4375 53.59375 
Q 49.75 59.625 44.484375 61.671875 
Q 40.671875 63.140625 32.234375 63.140625 
L 17.1875 63.140625 
z
" id="ArialMT-68"/>
       <path d="M 7.90625 0 
L 7.90625 71.578125 
L 59.671875 71.578125 
L 59.671875 63.140625 
L 17.390625 63.140625 
L 17.390625 41.21875 
L 56.984375 41.21875 
L 56.984375 32.8125 
L 17.390625 32.8125 
L 17.390625 8.453125 
L 61.328125 8.453125 
L 61.328125 0 
z
" id="ArialMT-69"/>
       <path d="M 4.5 23 
L 13.421875 23.78125 
Q 14.0625 18.40625 16.375 14.96875 
Q 18.703125 11.53125 23.578125 9.40625 
Q 28.46875 7.28125 34.578125 7.28125 
Q 39.984375 7.28125 44.140625 8.890625 
Q 48.296875 10.5 50.3125 13.296875 
Q 52.34375 16.109375 52.34375 19.4375 
Q 52.34375 22.796875 50.390625 25.3125 
Q 48.4375 27.828125 43.953125 29.546875 
Q 41.0625 30.671875 31.203125 33.03125 
Q 21.34375 35.40625 17.390625 37.5 
Q 12.25 40.1875 9.734375 44.15625 
Q 7.234375 48.140625 7.234375 53.078125 
Q 7.234375 58.5 10.296875 63.203125 
Q 13.375 67.921875 19.28125 70.359375 
Q 25.203125 72.796875 32.421875 72.796875 
Q 40.375 72.796875 46.453125 70.234375 
Q 52.546875 67.671875 55.8125 62.6875 
Q 59.078125 57.71875 59.328125 51.421875 
L 50.25 50.734375 
Q 49.515625 57.515625 45.28125 60.984375 
Q 41.0625 64.453125 32.8125 64.453125 
Q 24.21875 64.453125 20.28125 61.296875 
Q 16.359375 58.15625 16.359375 53.71875 
Q 16.359375 49.859375 19.140625 47.359375 
Q 21.875 44.875 33.421875 42.265625 
Q 44.96875 39.65625 49.265625 37.703125 
Q 55.515625 34.8125 58.484375 30.390625 
Q 61.46875 25.984375 61.46875 20.21875 
Q 61.46875 14.5 58.203125 9.4375 
Q 54.9375 4.390625 48.796875 1.578125 
Q 42.671875 -1.21875 35.015625 -1.21875 
Q 25.296875 -1.21875 18.71875 1.609375 
Q 12.15625 4.4375 8.421875 10.125 
Q 4.6875 15.828125 4.5 23 
z
" id="ArialMT-83"/>
       <path d="M 42.09375 16.703125 
L 51.171875 15.578125 
Q 49.03125 7.625 43.21875 3.21875 
Q 37.40625 -1.171875 28.375 -1.171875 
Q 17 -1.171875 10.328125 5.828125 
Q 3.65625 12.84375 3.65625 25.484375 
Q 3.65625 38.578125 10.390625 45.796875 
Q 17.140625 53.03125 27.875 53.03125 
Q 38.28125 53.03125 44.875 45.953125 
Q 51.46875 38.875 51.46875 26.03125 
Q 51.46875 25.25 51.421875 23.6875 
L 12.75 23.6875 
Q 13.234375 15.140625 17.578125 10.59375 
Q 21.921875 6.0625 28.421875 6.0625 
Q 33.25 6.0625 36.671875 8.59375 
Q 40.09375 11.140625 42.09375 16.703125 
z
M 13.234375 30.90625 
L 42.1875 30.90625 
Q 41.609375 37.453125 38.875 40.71875 
Q 34.671875 45.796875 27.984375 45.796875 
Q 21.921875 45.796875 17.796875 41.75 
Q 13.671875 37.703125 13.234375 30.90625 
z
" id="ArialMT-101"/>
       <path d="M 3.078125 15.484375 
L 11.765625 16.84375 
Q 12.5 11.625 15.84375 8.84375 
Q 19.1875 6.0625 25.203125 6.0625 
Q 31.25 6.0625 34.171875 8.515625 
Q 37.109375 10.984375 37.109375 14.3125 
Q 37.109375 17.28125 34.515625 19 
Q 32.71875 20.171875 25.53125 21.96875 
Q 15.875 24.421875 12.140625 26.203125 
Q 8.40625 27.984375 6.46875 31.125 
Q 4.546875 34.28125 4.546875 38.09375 
Q 4.546875 41.546875 6.125 44.5 
Q 7.71875 47.46875 10.453125 49.421875 
Q 12.5 50.921875 16.03125 51.96875 
Q 19.578125 53.03125 23.640625 53.03125 
Q 29.734375 53.03125 34.34375 51.265625 
Q 38.96875 49.515625 41.15625 46.5 
Q 43.359375 43.5 44.1875 38.484375 
L 35.59375 37.3125 
Q 35.015625 41.3125 32.203125 43.546875 
Q 29.390625 45.796875 24.265625 45.796875 
Q 18.21875 45.796875 15.625 43.796875 
Q 13.03125 41.796875 13.03125 39.109375 
Q 13.03125 37.40625 14.109375 36.03125 
Q 15.1875 34.625 17.484375 33.6875 
Q 18.796875 33.203125 25.25 31.453125 
Q 34.578125 28.953125 38.25 27.359375 
Q 41.9375 25.78125 44.03125 22.75 
Q 46.140625 19.734375 46.140625 15.234375 
Q 46.140625 10.84375 43.578125 6.953125 
Q 41.015625 3.078125 36.171875 0.953125 
Q 31.34375 -1.171875 25.25 -1.171875 
Q 15.140625 -1.171875 9.84375 3.03125 
Q 4.546875 7.234375 3.078125 15.484375 
z
" id="ArialMT-115"/>
       <path d="M 25.78125 7.859375 
L 27.046875 0.09375 
Q 23.34375 -0.6875 20.40625 -0.6875 
Q 15.625 -0.6875 12.984375 0.828125 
Q 10.359375 2.34375 9.28125 4.8125 
Q 8.203125 7.28125 8.203125 15.1875 
L 8.203125 45.015625 
L 1.765625 45.015625 
L 1.765625 51.859375 
L 8.203125 51.859375 
L 8.203125 64.703125 
L 16.9375 69.96875 
L 16.9375 51.859375 
L 25.78125 51.859375 
L 25.78125 45.015625 
L 16.9375 45.015625 
L 16.9375 14.703125 
Q 16.9375 10.9375 17.40625 9.859375 
Q 17.875 8.796875 18.921875 8.15625 
Q 19.96875 7.515625 21.921875 7.515625 
Q 23.390625 7.515625 25.78125 7.859375 
z
" id="ArialMT-116"/>
      </defs>
      <use xlink:href="#ArialMT-67"/>
      <use x="72.216797" xlink:href="#ArialMT-111"/>
      <use x="127.832031" xlink:href="#ArialMT-68"/>
      <use x="200.048828" xlink:href="#ArialMT-69"/>
      <use x="266.748047" xlink:href="#ArialMT-83"/>
      <use x="333.447266" xlink:href="#ArialMT-95"/>
      <use x="389.0625" xlink:href="#ArialMT-83"/>
      <use x="455.761719" xlink:href="#ArialMT-99"/>
      <use x="505.761719" xlink:href="#ArialMT-111"/>
      <use x="561.376953" xlink:href="#ArialMT-114"/>
      <use x="594.677734" xlink:href="#ArialMT-101"/>
      <use x="650.292969" xlink:href="#ArialMT-95"/>
      <use x="705.908203" xlink:href="#ArialMT-115"/>
      <use x="755.908203" xlink:href="#ArialMT-101"/>
      <use x="811.523438" xlink:href="#ArialMT-116"/>
     </g>
    </g>
    <g id="line2d_19">
     <path d="M 2.446875 72.553875 
L 28.846875 72.553875 
" style="fill:none;stroke:#008b8b;stroke-dasharray:2,3.3;stroke-dashoffset:0;stroke-width:2;"/>
    </g>
    <g id="line2d_20"/>
    <g id="text_16">
     <!-- Score_set_1_corr -->
     <g style="fill:#262626;" transform="translate(39.406875 77.173875)scale(0.132 -0.132)">
      <use xlink:href="#ArialMT-83"/>
      <use x="66.699219" xlink:href="#ArialMT-99"/>
      <use x="116.699219" xlink:href="#ArialMT-111"/>
      <use x="172.314453" xlink:href="#ArialMT-114"/>
      <use x="205.615234" xlink:href="#ArialMT-101"/>
      <use x="261.230469" xlink:href="#ArialMT-95"/>
      <use x="316.845703" xlink:href="#ArialMT-115"/>
      <use x="366.845703" xlink:href="#ArialMT-101"/>
      <use x="422.460938" xlink:href="#ArialMT-116"/>
      <use x="450.244141" xlink:href="#ArialMT-95"/>
      <use x="505.859375" xlink:href="#ArialMT-49"/>
      <use x="561.474609" xlink:href="#ArialMT-95"/>
      <use x="617.089844" xlink:href="#ArialMT-99"/>
      <use x="667.089844" xlink:href="#ArialMT-111"/>
      <use x="722.705078" xlink:href="#ArialMT-114"/>
      <use x="756.005859" xlink:href="#ArialMT-114"/>
     </g>
    </g>
   </g>
  </g>
 </g>
 <defs>
  <clipPath id="pdeee4e782e">
   <path d="M 376.368 144 
C 376.368 129.929454 373.596409 115.995725 368.211844 102.996236 
C 362.827279 89.996746 354.934456 78.184301 344.985077 68.234923 
C 335.035699 58.285544 323.223254 50.392721 310.223764 45.008156 
C 297.224275 39.623591 283.290546 36.852 269.22 36.852 
C 255.149454 36.852 241.215725 39.623591 228.216236 45.008156 
C 215.216746 50.392721 203.404301 58.285544 193.454923 68.234923 
C 183.505544 78.184301 175.612721 89.996746 170.228156 102.996236 
C 164.843591 115.995725 162.072 129.929454 162.072 144 
C 162.072 158.070546 164.843591 172.004275 170.228156 185.003764 
C 175.612721 198.003254 183.505544 209.815699 193.454923 219.765077 
C 203.404301 229.714456 215.216746 237.607279 228.216236 242.991844 
C 241.215725 248.376409 255.149454 251.148 269.22 251.148 
C 283.290546 251.148 297.224275 248.376409 310.223764 242.991844 
C 323.223254 237.607279 335.035699 229.714456 344.985077 219.765077 
C 354.934456 209.815699 362.827279 198.003254 368.211844 185.003764 
C 373.596409 172.004275 376.368 158.070546 376.368 144 
M 269.22 144 
C 269.22 144 269.22 144 269.22 144 
C 269.22 144 269.22 144 269.22 144 
C 269.22 144 269.22 144 269.22 144 
C 269.22 144 269.22 144 269.22 144 
C 269.22 144 269.22 144 269.22 144 
C 269.22 144 269.22 144 269.22 144 
C 269.22 144 269.22 144 269.22 144 
C 269.22 144 269.22 144 269.22 144 
C 269.22 144 269.22 144 269.22 144 
C 269.22 144 269.22 144 269.22 144 
C 269.22 144 269.22 144 269.22 144 
C 269.22 144 269.22 144 269.22 144 
C 269.22 144 269.22 144 269.22 144 
C 269.22 144 269.22 144 269.22 144 
C 269.22 144 269.22 144 269.22 144 
C 269.22 144 269.22 144 269.22 144 
M 376.368 144 
z
"/>
  </clipPath>
 </defs>
</svg>
