<?xml version="1.0" encoding="utf-8" standalone="no"?>
<!DOCTYPE svg PUBLIC "-//W3C//DTD SVG 1.1//EN"
  "http://www.w3.org/Graphics/SVG/1.1/DTD/svg11.dtd">
<!-- Created with matplotlib (https://matplotlib.org/) -->
<svg height="288pt" version="1.1" viewBox="0 0 432 288" width="432pt" xmlns="http://www.w3.org/2000/svg" xmlns:xlink="http://www.w3.org/1999/xlink">
 <metadata>
  <rdf:RDF xmlns:cc="http://creativecommons.org/ns#" xmlns:dc="http://purl.org/dc/elements/1.1/" xmlns:rdf="http://www.w3.org/1999/02/22-rdf-syntax-ns#">
   <cc:Work>
    <dc:type rdf:resource="http://purl.org/dc/dcmitype/StillImage"/>
    <dc:date>2021-10-10T15:31:39.780799</dc:date>
    <dc:format>image/svg+xml</dc:format>
    <dc:creator>
     <cc:Agent>
      <dc:title>Matplotlib v3.3.2, https://matplotlib.org/</dc:title>
     </cc:Agent>
    </dc:creator>
   </cc:Work>
  </rdf:RDF>
 </metadata>
 <defs>
  <style type="text/css">*{stroke-linecap:butt;stroke-linejoin:round;}</style>
 </defs>
 <g id="figure_1">
  <g id="patch_1">
   <path d="M 0 288 
L 432 288 
L 432 0 
L 0 0 
z
" style="fill:none;"/>
  </g>
  <g id="axes_1">
   <g id="patch_2">
    <path d="M 346.868 144 
C 346.868 129.929454 344.096409 115.995725 338.711844 102.996236 
C 333.327279 89.996746 325.434456 78.184301 315.485077 68.234923 
C 305.535699 58.285544 293.723254 50.392721 280.723764 45.008156 
C 267.724275 39.623591 253.790546 36.852 239.72 36.852 
C 225.649454 36.852 211.715725 39.623591 198.716236 45.008156 
C 185.716746 50.392721 173.904301 58.285544 163.954923 68.234923 
C 154.005544 78.184301 146.112721 89.996746 140.728156 102.996236 
C 135.343591 115.995725 132.572 129.929454 132.572 144 
C 132.572 158.070546 135.343591 172.004275 140.728156 185.003764 
C 146.112721 198.003254 154.005544 209.815699 163.954923 219.765077 
C 173.904301 229.714456 185.716746 237.607279 198.716236 242.991844 
C 211.715725 248.376409 225.649454 251.148 239.72 251.148 
C 253.790546 251.148 267.724275 248.376409 280.723764 242.991844 
C 293.723254 237.607279 305.535699 229.714456 315.485077 219.765077 
C 325.434456 209.815699 333.327279 198.003254 338.711844 185.003764 
C 344.096409 172.004275 346.868 158.070546 346.868 144 
M 239.72 144 
C 239.72 144 239.72 144 239.72 144 
C 239.72 144 239.72 144 239.72 144 
C 239.72 144 239.72 144 239.72 144 
C 239.72 144 239.72 144 239.72 144 
C 239.72 144 239.72 144 239.72 144 
C 239.72 144 239.72 144 239.72 144 
C 239.72 144 239.72 144 239.72 144 
C 239.72 144 239.72 144 239.72 144 
C 239.72 144 239.72 144 239.72 144 
C 239.72 144 239.72 144 239.72 144 
C 239.72 144 239.72 144 239.72 144 
C 239.72 144 239.72 144 239.72 144 
C 239.72 144 239.72 144 239.72 144 
C 239.72 144 239.72 144 239.72 144 
C 239.72 144 239.72 144 239.72 144 
C 239.72 144 239.72 144 239.72 144 
M 346.868 144 
z
" style="fill:none;"/>
   </g>
   <g id="matplotlib.axis_1">
    <g id="xtick_1">
     <g id="line2d_1">
      <path clip-path="url(#pcea59d5fa9)" d="M 239.72 144 
L 239.72 36.852 
" style="fill:none;stroke:#cccccc;stroke-linecap:round;stroke-width:0.8;"/>
     </g>
     <g id="text_1">
      <!-- Acc -->
      <g style="fill:#262626;" transform="translate(228.717594 24.964406)scale(0.132 -0.132)">
       <defs>
        <path d="M -0.140625 0 
L 27.34375 71.578125 
L 37.546875 71.578125 
L 66.84375 0 
L 56.0625 0 
L 47.703125 21.6875 
L 17.78125 21.6875 
L 9.90625 0 
z
M 20.515625 29.390625 
L 44.78125 29.390625 
L 37.3125 49.21875 
Q 33.890625 58.25 32.234375 64.0625 
Q 30.859375 57.171875 28.375 50.390625 
z
" id="ArialMT-65"/>
        <path d="M 40.4375 19 
L 49.078125 17.875 
Q 47.65625 8.9375 41.8125 3.875 
Q 35.984375 -1.171875 27.484375 -1.171875 
Q 16.84375 -1.171875 10.375 5.78125 
Q 3.90625 12.75 3.90625 25.734375 
Q 3.90625 34.125 6.6875 40.421875 
Q 9.46875 46.734375 15.15625 49.875 
Q 20.84375 53.03125 27.546875 53.03125 
Q 35.984375 53.03125 41.359375 48.75 
Q 46.734375 44.484375 48.25 36.625 
L 39.703125 35.296875 
Q 38.484375 40.53125 35.375 43.15625 
Q 32.28125 45.796875 27.875 45.796875 
Q 21.234375 45.796875 17.078125 41.03125 
Q 12.9375 36.28125 12.9375 25.984375 
Q 12.9375 15.53125 16.9375 10.796875 
Q 20.953125 6.0625 27.390625 6.0625 
Q 32.5625 6.0625 36.03125 9.234375 
Q 39.5 12.40625 40.4375 19 
z
" id="ArialMT-99"/>
       </defs>
       <use xlink:href="#ArialMT-65"/>
       <use x="66.699219" xlink:href="#ArialMT-99"/>
       <use x="116.699219" xlink:href="#ArialMT-99"/>
      </g>
     </g>
    </g>
    <g id="xtick_2">
     <g id="line2d_2">
      <path clip-path="url(#pcea59d5fa9)" d="M 239.72 144 
L 315.485077 68.234923 
" style="fill:none;stroke:#cccccc;stroke-linecap:round;stroke-width:0.8;"/>
     </g>
     <g id="text_2">
      <!-- P_Ph -->
      <g style="fill:#262626;" transform="translate(310.158561 60.828595)scale(0.132 -0.132)">
       <defs>
        <path d="M 7.71875 0 
L 7.71875 71.578125 
L 34.71875 71.578125 
Q 41.84375 71.578125 45.609375 70.90625 
Q 50.875 70.015625 54.4375 67.546875 
Q 58.015625 65.09375 60.1875 60.640625 
Q 62.359375 56.203125 62.359375 50.875 
Q 62.359375 41.75 56.546875 35.421875 
Q 50.734375 29.109375 35.546875 29.109375 
L 17.1875 29.109375 
L 17.1875 0 
z
M 17.1875 37.546875 
L 35.6875 37.546875 
Q 44.875 37.546875 48.734375 40.96875 
Q 52.59375 44.390625 52.59375 50.59375 
Q 52.59375 55.078125 50.3125 58.265625 
Q 48.046875 61.46875 44.34375 62.5 
Q 41.9375 63.140625 35.5 63.140625 
L 17.1875 63.140625 
z
" id="ArialMT-80"/>
        <path d="M -1.515625 -19.875 
L -1.515625 -13.53125 
L 56.734375 -13.53125 
L 56.734375 -19.875 
z
" id="ArialMT-95"/>
        <path d="M 6.59375 0 
L 6.59375 71.578125 
L 15.375 71.578125 
L 15.375 45.90625 
Q 21.53125 53.03125 30.90625 53.03125 
Q 36.671875 53.03125 40.921875 50.75 
Q 45.171875 48.484375 47 44.484375 
Q 48.828125 40.484375 48.828125 32.859375 
L 48.828125 0 
L 40.046875 0 
L 40.046875 32.859375 
Q 40.046875 39.453125 37.1875 42.453125 
Q 34.328125 45.453125 29.109375 45.453125 
Q 25.203125 45.453125 21.75 43.421875 
Q 18.3125 41.40625 16.84375 37.9375 
Q 15.375 34.46875 15.375 28.375 
L 15.375 0 
z
" id="ArialMT-104"/>
       </defs>
       <use xlink:href="#ArialMT-80"/>
       <use x="66.699219" xlink:href="#ArialMT-95"/>
       <use x="122.314453" xlink:href="#ArialMT-80"/>
       <use x="189.013672" xlink:href="#ArialMT-104"/>
      </g>
     </g>
    </g>
    <g id="xtick_3">
     <g id="line2d_3">
      <path clip-path="url(#pcea59d5fa9)" d="M 239.72 144 
L 346.868 144 
" style="fill:none;stroke:#cccccc;stroke-linecap:round;stroke-width:0.8;"/>
     </g>
     <g id="text_3">
      <!-- P_NoNPh -->
      <g style="fill:#262626;" transform="translate(332.819656 147.412406)scale(0.132 -0.132)">
       <defs>
        <path d="M 7.625 0 
L 7.625 71.578125 
L 17.328125 71.578125 
L 54.9375 15.375 
L 54.9375 71.578125 
L 64.015625 71.578125 
L 64.015625 0 
L 54.296875 0 
L 16.703125 56.25 
L 16.703125 0 
z
" id="ArialMT-78"/>
        <path d="M 3.328125 25.921875 
Q 3.328125 40.328125 11.328125 47.265625 
Q 18.015625 53.03125 27.640625 53.03125 
Q 38.328125 53.03125 45.109375 46.015625 
Q 51.90625 39.015625 51.90625 26.65625 
Q 51.90625 16.65625 48.90625 10.90625 
Q 45.90625 5.171875 40.15625 2 
Q 34.421875 -1.171875 27.640625 -1.171875 
Q 16.75 -1.171875 10.03125 5.8125 
Q 3.328125 12.796875 3.328125 25.921875 
z
M 12.359375 25.921875 
Q 12.359375 15.96875 16.703125 11.015625 
Q 21.046875 6.0625 27.640625 6.0625 
Q 34.1875 6.0625 38.53125 11.03125 
Q 42.875 16.015625 42.875 26.21875 
Q 42.875 35.84375 38.5 40.796875 
Q 34.125 45.75 27.640625 45.75 
Q 21.046875 45.75 16.703125 40.8125 
Q 12.359375 35.890625 12.359375 25.921875 
z
" id="ArialMT-111"/>
       </defs>
       <use xlink:href="#ArialMT-80"/>
       <use x="66.699219" xlink:href="#ArialMT-95"/>
       <use x="122.314453" xlink:href="#ArialMT-78"/>
       <use x="194.53125" xlink:href="#ArialMT-111"/>
       <use x="250.146484" xlink:href="#ArialMT-78"/>
       <use x="322.363281" xlink:href="#ArialMT-80"/>
       <use x="389.0625" xlink:href="#ArialMT-104"/>
      </g>
     </g>
    </g>
    <g id="xtick_4">
     <g id="line2d_4">
      <path clip-path="url(#pcea59d5fa9)" d="M 239.72 144 
L 315.485077 219.765077 
" style="fill:none;stroke:#cccccc;stroke-linecap:round;stroke-width:0.8;"/>
     </g>
     <g id="text_4">
      <!-- R_Ph -->
      <g style="fill:#262626;" transform="translate(309.79453 233.996217)scale(0.132 -0.132)">
       <defs>
        <path d="M 7.859375 0 
L 7.859375 71.578125 
L 39.59375 71.578125 
Q 49.171875 71.578125 54.140625 69.640625 
Q 59.125 67.71875 62.109375 62.828125 
Q 65.09375 57.953125 65.09375 52.046875 
Q 65.09375 44.4375 60.15625 39.203125 
Q 55.21875 33.984375 44.921875 32.5625 
Q 48.6875 30.765625 50.640625 29 
Q 54.78125 25.203125 58.5 19.484375 
L 70.953125 0 
L 59.03125 0 
L 49.5625 14.890625 
Q 45.40625 21.34375 42.71875 24.75 
Q 40.046875 28.171875 37.921875 29.53125 
Q 35.796875 30.90625 33.59375 31.453125 
Q 31.984375 31.78125 28.328125 31.78125 
L 17.328125 31.78125 
L 17.328125 0 
z
M 17.328125 39.984375 
L 37.703125 39.984375 
Q 44.1875 39.984375 47.84375 41.328125 
Q 51.515625 42.671875 53.421875 45.625 
Q 55.328125 48.578125 55.328125 52.046875 
Q 55.328125 57.125 51.640625 60.390625 
Q 47.953125 63.671875 39.984375 63.671875 
L 17.328125 63.671875 
z
" id="ArialMT-82"/>
       </defs>
       <use xlink:href="#ArialMT-82"/>
       <use x="72.216797" xlink:href="#ArialMT-95"/>
       <use x="127.832031" xlink:href="#ArialMT-80"/>
       <use x="194.53125" xlink:href="#ArialMT-104"/>
      </g>
     </g>
    </g>
    <g id="xtick_5">
     <g id="line2d_5">
      <path clip-path="url(#pcea59d5fa9)" d="M 239.72 144 
L 239.72 251.148 
" style="fill:none;stroke:#cccccc;stroke-linecap:round;stroke-width:0.8;"/>
     </g>
     <g id="text_5">
      <!-- R_NoNPh -->
      <g style="fill:#262626;" transform="translate(210.007625 269.860406)scale(0.132 -0.132)">
       <use xlink:href="#ArialMT-82"/>
       <use x="72.216797" xlink:href="#ArialMT-95"/>
       <use x="127.832031" xlink:href="#ArialMT-78"/>
       <use x="200.048828" xlink:href="#ArialMT-111"/>
       <use x="255.664062" xlink:href="#ArialMT-78"/>
       <use x="327.880859" xlink:href="#ArialMT-80"/>
       <use x="394.580078" xlink:href="#ArialMT-104"/>
      </g>
     </g>
    </g>
    <g id="xtick_6">
     <g id="line2d_6">
      <path clip-path="url(#pcea59d5fa9)" d="M 239.72 144 
L 163.954923 219.765077 
" style="fill:none;stroke:#cccccc;stroke-linecap:round;stroke-width:0.8;"/>
     </g>
     <g id="text_6">
      <!-- F1_Ph -->
      <g style="fill:#262626;" transform="translate(133.69197 234.015811)scale(0.132 -0.132)">
       <defs>
        <path d="M 8.203125 0 
L 8.203125 71.578125 
L 56.5 71.578125 
L 56.5 63.140625 
L 17.671875 63.140625 
L 17.671875 40.96875 
L 51.265625 40.96875 
L 51.265625 32.515625 
L 17.671875 32.515625 
L 17.671875 0 
z
" id="ArialMT-70"/>
        <path d="M 37.25 0 
L 28.46875 0 
L 28.46875 56 
Q 25.296875 52.984375 20.140625 49.953125 
Q 14.984375 46.921875 10.890625 45.40625 
L 10.890625 53.90625 
Q 18.265625 57.375 23.78125 62.296875 
Q 29.296875 67.234375 31.59375 71.875 
L 37.25 71.875 
z
" id="ArialMT-49"/>
       </defs>
       <use xlink:href="#ArialMT-70"/>
       <use x="61.083984" xlink:href="#ArialMT-49"/>
       <use x="116.699219" xlink:href="#ArialMT-95"/>
       <use x="172.314453" xlink:href="#ArialMT-80"/>
       <use x="239.013672" xlink:href="#ArialMT-104"/>
      </g>
     </g>
    </g>
    <g id="xtick_7">
     <g id="line2d_7">
      <path clip-path="url(#pcea59d5fa9)" d="M 239.72 144 
L 132.572 144 
" style="fill:none;stroke:#cccccc;stroke-linecap:round;stroke-width:0.8;"/>
     </g>
     <g id="text_7">
      <!-- F1_NoNPh -->
      <g style="fill:#262626;" transform="translate(84.624687 147.432)scale(0.132 -0.132)">
       <use xlink:href="#ArialMT-70"/>
       <use x="61.083984" xlink:href="#ArialMT-49"/>
       <use x="116.699219" xlink:href="#ArialMT-95"/>
       <use x="172.314453" xlink:href="#ArialMT-78"/>
       <use x="244.53125" xlink:href="#ArialMT-111"/>
       <use x="300.146484" xlink:href="#ArialMT-78"/>
       <use x="372.363281" xlink:href="#ArialMT-80"/>
       <use x="439.0625" xlink:href="#ArialMT-104"/>
      </g>
     </g>
    </g>
    <g id="xtick_8">
     <g id="line2d_8">
      <path clip-path="url(#pcea59d5fa9)" d="M 239.72 144 
L 163.954923 68.234923 
" style="fill:none;stroke:#cccccc;stroke-linecap:round;stroke-width:0.8;"/>
     </g>
     <g id="text_8">
      <!-- MCC -->
      <g style="fill:#262626;" transform="translate(138.10572 60.828595)scale(0.132 -0.132)">
       <defs>
        <path d="M 7.421875 0 
L 7.421875 71.578125 
L 21.6875 71.578125 
L 38.625 20.90625 
Q 40.96875 13.8125 42.046875 10.296875 
Q 43.265625 14.203125 45.84375 21.78125 
L 62.984375 71.578125 
L 75.734375 71.578125 
L 75.734375 0 
L 66.609375 0 
L 66.609375 59.90625 
L 45.796875 0 
L 37.25 0 
L 16.546875 60.9375 
L 16.546875 0 
z
" id="ArialMT-77"/>
        <path d="M 58.796875 25.09375 
L 68.265625 22.703125 
Q 65.28125 11.03125 57.546875 4.90625 
Q 49.8125 -1.21875 38.625 -1.21875 
Q 27.046875 -1.21875 19.796875 3.484375 
Q 12.546875 8.203125 8.765625 17.140625 
Q 4.984375 26.078125 4.984375 36.328125 
Q 4.984375 47.515625 9.25 55.828125 
Q 13.53125 64.15625 21.40625 68.46875 
Q 29.296875 72.796875 38.765625 72.796875 
Q 49.515625 72.796875 56.828125 67.328125 
Q 64.15625 61.859375 67.046875 51.953125 
L 57.71875 49.75 
Q 55.21875 57.5625 50.484375 61.125 
Q 45.75 64.703125 38.578125 64.703125 
Q 30.328125 64.703125 24.78125 60.734375 
Q 19.234375 56.78125 16.984375 50.109375 
Q 14.75 43.453125 14.75 36.375 
Q 14.75 27.25 17.40625 20.4375 
Q 20.0625 13.625 25.671875 10.25 
Q 31.296875 6.890625 37.84375 6.890625 
Q 45.796875 6.890625 51.3125 11.46875 
Q 56.84375 16.0625 58.796875 25.09375 
z
" id="ArialMT-67"/>
       </defs>
       <use xlink:href="#ArialMT-77"/>
       <use x="83.300781" xlink:href="#ArialMT-67"/>
       <use x="155.517578" xlink:href="#ArialMT-67"/>
      </g>
     </g>
    </g>
   </g>
   <g id="matplotlib.axis_2">
    <g id="ytick_1">
     <g id="line2d_9">
      <path clip-path="url(#pcea59d5fa9)" d="M 239.72 144 
C 239.72 144 239.72 144 239.72 144 
C 239.72 144 239.72 144 239.72 144 
C 239.72 144 239.72 144 239.72 144 
C 239.72 144 239.72 144 239.72 144 
C 239.72 144 239.72 144 239.72 144 
C 239.72 144 239.72 144 239.72 144 
C 239.72 144 239.72 144 239.72 144 
C 239.72 144 239.72 144 239.72 144 
C 239.72 144 239.72 144 239.72 144 
C 239.72 144 239.72 144 239.72 144 
C 239.72 144 239.72 144 239.72 144 
C 239.72 144 239.72 144 239.72 144 
C 239.72 144 239.72 144 239.72 144 
C 239.72 144 239.72 144 239.72 144 
C 239.72 144 239.72 144 239.72 144 
C 239.72 144 239.72 144 239.72 144 
" style="fill:none;stroke:#cccccc;stroke-linecap:round;stroke-width:0.8;"/>
     </g>
     <g id="text_9">
      <!-- 0 -->
      <g style="fill:#808080;" transform="translate(239.72 142.0125)scale(0.1 -0.1)">
       <defs>
        <path d="M 4.15625 35.296875 
Q 4.15625 48 6.765625 55.734375 
Q 9.375 63.484375 14.515625 67.671875 
Q 19.671875 71.875 27.484375 71.875 
Q 33.25 71.875 37.59375 69.546875 
Q 41.9375 67.234375 44.765625 62.859375 
Q 47.609375 58.5 49.21875 52.21875 
Q 50.828125 45.953125 50.828125 35.296875 
Q 50.828125 22.703125 48.234375 14.96875 
Q 45.65625 7.234375 40.5 3 
Q 35.359375 -1.21875 27.484375 -1.21875 
Q 17.140625 -1.21875 11.234375 6.203125 
Q 4.15625 15.140625 4.15625 35.296875 
z
M 13.1875 35.296875 
Q 13.1875 17.671875 17.3125 11.828125 
Q 21.4375 6 27.484375 6 
Q 33.546875 6 37.671875 11.859375 
Q 41.796875 17.71875 41.796875 35.296875 
Q 41.796875 52.984375 37.671875 58.78125 
Q 33.546875 64.59375 27.390625 64.59375 
Q 21.34375 64.59375 17.71875 59.46875 
Q 13.1875 52.9375 13.1875 35.296875 
z
" id="ArialMT-48"/>
       </defs>
       <use xlink:href="#ArialMT-48"/>
      </g>
     </g>
    </g>
    <g id="ytick_2">
     <g id="line2d_10">
      <path clip-path="url(#pcea59d5fa9)" d="M 239.72 122.5704 
C 242.534109 122.5704 245.320855 123.124718 247.920753 124.201631 
C 250.520651 125.278544 252.88314 126.857109 254.873015 128.846985 
C 256.862891 130.83686 258.441456 133.199349 259.518369 135.799247 
C 260.595282 138.399145 261.1496 141.185891 261.1496 144 
C 261.1496 146.814109 260.595282 149.600855 259.518369 152.200753 
C 258.441456 154.800651 256.862891 157.16314 254.873015 159.153015 
C 252.88314 161.142891 250.520651 162.721456 247.920753 163.798369 
C 245.320855 164.875282 242.534109 165.4296 239.72 165.4296 
C 236.905891 165.4296 234.119145 164.875282 231.519247 163.798369 
C 228.919349 162.721456 226.55686 161.142891 224.566985 159.153015 
C 222.577109 157.16314 220.998544 154.800651 219.921631 152.200753 
C 218.844718 149.600855 218.2904 146.814109 218.2904 144 
C 218.2904 141.185891 218.844718 138.399145 219.921631 135.799247 
C 220.998544 133.199349 222.577109 130.83686 224.566985 128.846985 
C 226.55686 126.857109 228.919349 125.278544 231.519247 124.201631 
C 234.119145 123.124718 236.905891 122.5704 239.72 122.5704 
" style="fill:none;stroke:#cccccc;stroke-linecap:round;stroke-width:0.8;"/>
     </g>
     <g id="text_10">
      <!-- 0.2 -->
      <g style="fill:#808080;" transform="translate(239.72 120.5829)scale(0.1 -0.1)">
       <defs>
        <path d="M 9.078125 0 
L 9.078125 10.015625 
L 19.09375 10.015625 
L 19.09375 0 
z
" id="ArialMT-46"/>
        <path d="M 50.34375 8.453125 
L 50.34375 0 
L 3.03125 0 
Q 2.9375 3.171875 4.046875 6.109375 
Q 5.859375 10.9375 9.828125 15.625 
Q 13.8125 20.3125 21.34375 26.46875 
Q 33.015625 36.03125 37.109375 41.625 
Q 41.21875 47.21875 41.21875 52.203125 
Q 41.21875 57.421875 37.46875 61 
Q 33.734375 64.59375 27.734375 64.59375 
Q 21.390625 64.59375 17.578125 60.78125 
Q 13.765625 56.984375 13.71875 50.25 
L 4.6875 51.171875 
Q 5.609375 61.28125 11.65625 66.578125 
Q 17.71875 71.875 27.9375 71.875 
Q 38.234375 71.875 44.234375 66.15625 
Q 50.25 60.453125 50.25 52 
Q 50.25 47.703125 48.484375 43.546875 
Q 46.734375 39.40625 42.65625 34.8125 
Q 38.578125 30.21875 29.109375 22.21875 
Q 21.1875 15.578125 18.9375 13.203125 
Q 16.703125 10.84375 15.234375 8.453125 
z
" id="ArialMT-50"/>
       </defs>
       <use xlink:href="#ArialMT-48"/>
       <use x="55.615234" xlink:href="#ArialMT-46"/>
       <use x="83.398438" xlink:href="#ArialMT-50"/>
      </g>
     </g>
    </g>
    <g id="ytick_3">
     <g id="line2d_11">
      <path clip-path="url(#pcea59d5fa9)" d="M 239.72 101.1408 
C 245.348219 101.1408 250.92171 102.249436 256.121506 104.403262 
C 261.321302 106.557088 266.046279 109.714218 270.026031 113.693969 
C 274.005782 117.673721 277.162912 122.398698 279.316738 127.598494 
C 281.470564 132.79829 282.5792 138.371781 282.5792 144 
C 282.5792 149.628219 281.470564 155.20171 279.316738 160.401506 
C 277.162912 165.601302 274.005782 170.326279 270.026031 174.306031 
C 266.046279 178.285782 261.321302 181.442912 256.121506 183.596738 
C 250.92171 185.750564 245.348219 186.8592 239.72 186.8592 
C 234.091781 186.8592 228.51829 185.750564 223.318494 183.596738 
C 218.118698 181.442912 213.393721 178.285782 209.413969 174.306031 
C 205.434218 170.326279 202.277088 165.601302 200.123262 160.401506 
C 197.969436 155.20171 196.8608 149.628219 196.8608 144 
C 196.8608 138.371781 197.969436 132.79829 200.123262 127.598494 
C 202.277088 122.398698 205.434218 117.673721 209.413969 113.693969 
C 213.393721 109.714218 218.118698 106.557088 223.318494 104.403262 
C 228.51829 102.249436 234.091781 101.1408 239.72 101.1408 
" style="fill:none;stroke:#cccccc;stroke-linecap:round;stroke-width:0.8;"/>
     </g>
     <g id="text_11">
      <!-- 0.4 -->
      <g style="fill:#808080;" transform="translate(239.72 99.1533)scale(0.1 -0.1)">
       <defs>
        <path d="M 32.328125 0 
L 32.328125 17.140625 
L 1.265625 17.140625 
L 1.265625 25.203125 
L 33.9375 71.578125 
L 41.109375 71.578125 
L 41.109375 25.203125 
L 50.78125 25.203125 
L 50.78125 17.140625 
L 41.109375 17.140625 
L 41.109375 0 
z
M 32.328125 25.203125 
L 32.328125 57.46875 
L 9.90625 25.203125 
z
" id="ArialMT-52"/>
       </defs>
       <use xlink:href="#ArialMT-48"/>
       <use x="55.615234" xlink:href="#ArialMT-46"/>
       <use x="83.398438" xlink:href="#ArialMT-52"/>
      </g>
     </g>
    </g>
    <g id="ytick_4">
     <g id="line2d_12">
      <path clip-path="url(#pcea59d5fa9)" d="M 239.72 79.7112 
C 248.162328 79.7112 256.522565 81.374155 264.322259 84.604894 
C 272.121953 87.835633 279.209419 92.571326 285.179046 98.540954 
C 291.148674 104.510581 295.884367 111.598047 299.115106 119.397741 
C 302.345845 127.197435 304.0088 135.557672 304.0088 144 
C 304.0088 152.442328 302.345845 160.802565 299.115106 168.602259 
C 295.884367 176.401953 291.148674 183.489419 285.179046 189.459046 
C 279.209419 195.428674 272.121953 200.164367 264.322259 203.395106 
C 256.522565 206.625845 248.162328 208.2888 239.72 208.2888 
C 231.277672 208.2888 222.917435 206.625845 215.117741 203.395106 
C 207.318047 200.164367 200.230581 195.428674 194.260954 189.459046 
C 188.291326 183.489419 183.555633 176.401953 180.324894 168.602259 
C 177.094155 160.802565 175.4312 152.442328 175.4312 144 
C 175.4312 135.557672 177.094155 127.197435 180.324894 119.397741 
C 183.555633 111.598047 188.291326 104.510581 194.260954 98.540954 
C 200.230581 92.571326 207.318047 87.835633 215.117741 84.604894 
C 222.917435 81.374155 231.277672 79.7112 239.72 79.7112 
" style="fill:none;stroke:#cccccc;stroke-linecap:round;stroke-width:0.8;"/>
     </g>
     <g id="text_12">
      <!-- 0.6 -->
      <g style="fill:#808080;" transform="translate(239.72 77.7237)scale(0.1 -0.1)">
       <defs>
        <path d="M 49.75 54.046875 
L 41.015625 53.375 
Q 39.84375 58.546875 37.703125 60.890625 
Q 34.125 64.65625 28.90625 64.65625 
Q 24.703125 64.65625 21.53125 62.3125 
Q 17.390625 59.28125 14.984375 53.46875 
Q 12.59375 47.65625 12.5 36.921875 
Q 15.671875 41.75 20.265625 44.09375 
Q 24.859375 46.4375 29.890625 46.4375 
Q 38.671875 46.4375 44.84375 39.96875 
Q 51.03125 33.5 51.03125 23.25 
Q 51.03125 16.5 48.125 10.71875 
Q 45.21875 4.9375 40.140625 1.859375 
Q 35.0625 -1.21875 28.609375 -1.21875 
Q 17.625 -1.21875 10.6875 6.859375 
Q 3.765625 14.9375 3.765625 33.5 
Q 3.765625 54.25 11.421875 63.671875 
Q 18.109375 71.875 29.4375 71.875 
Q 37.890625 71.875 43.28125 67.140625 
Q 48.6875 62.40625 49.75 54.046875 
z
M 13.875 23.1875 
Q 13.875 18.65625 15.796875 14.5 
Q 17.71875 10.359375 21.1875 8.171875 
Q 24.65625 6 28.46875 6 
Q 34.03125 6 38.03125 10.484375 
Q 42.046875 14.984375 42.046875 22.703125 
Q 42.046875 30.125 38.078125 34.390625 
Q 34.125 38.671875 28.125 38.671875 
Q 22.171875 38.671875 18.015625 34.390625 
Q 13.875 30.125 13.875 23.1875 
z
" id="ArialMT-54"/>
       </defs>
       <use xlink:href="#ArialMT-48"/>
       <use x="55.615234" xlink:href="#ArialMT-46"/>
       <use x="83.398438" xlink:href="#ArialMT-54"/>
      </g>
     </g>
    </g>
    <g id="ytick_5">
     <g id="line2d_13">
      <path clip-path="url(#pcea59d5fa9)" d="M 239.72 58.2816 
C 250.976437 58.2816 262.12342 60.498873 272.523012 64.806525 
C 282.922603 69.114177 292.372559 75.428435 300.332062 83.387938 
C 308.291565 91.347441 314.605823 100.797397 318.913475 111.196988 
C 323.221127 121.59658 325.4384 132.743563 325.4384 144 
C 325.4384 155.256437 323.221127 166.40342 318.913475 176.803012 
C 314.605823 187.202603 308.291565 196.652559 300.332062 204.612062 
C 292.372559 212.571565 282.922603 218.885823 272.523012 223.193475 
C 262.12342 227.501127 250.976437 229.7184 239.72 229.7184 
C 228.463563 229.7184 217.31658 227.501127 206.916988 223.193475 
C 196.517397 218.885823 187.067441 212.571565 179.107938 204.612062 
C 171.148435 196.652559 164.834177 187.202603 160.526525 176.803012 
C 156.218873 166.40342 154.0016 155.256437 154.0016 144 
C 154.0016 132.743563 156.218873 121.59658 160.526525 111.196988 
C 164.834177 100.797397 171.148435 91.347441 179.107938 83.387938 
C 187.067441 75.428435 196.517397 69.114177 206.916988 64.806525 
C 217.31658 60.498873 228.463563 58.2816 239.72 58.2816 
" style="fill:none;stroke:#cccccc;stroke-linecap:round;stroke-width:0.8;"/>
     </g>
     <g id="text_13">
      <!-- 0.8 -->
      <g style="fill:#808080;" transform="translate(239.72 56.2941)scale(0.1 -0.1)">
       <defs>
        <path d="M 17.671875 38.8125 
Q 12.203125 40.828125 9.5625 44.53125 
Q 6.9375 48.25 6.9375 53.421875 
Q 6.9375 61.234375 12.546875 66.546875 
Q 18.171875 71.875 27.484375 71.875 
Q 36.859375 71.875 42.578125 66.421875 
Q 48.296875 60.984375 48.296875 53.171875 
Q 48.296875 48.1875 45.671875 44.5 
Q 43.0625 40.828125 37.75 38.8125 
Q 44.34375 36.671875 47.78125 31.875 
Q 51.21875 27.09375 51.21875 20.453125 
Q 51.21875 11.28125 44.71875 5.03125 
Q 38.234375 -1.21875 27.640625 -1.21875 
Q 17.046875 -1.21875 10.546875 5.046875 
Q 4.046875 11.328125 4.046875 20.703125 
Q 4.046875 27.6875 7.59375 32.390625 
Q 11.140625 37.109375 17.671875 38.8125 
z
M 15.921875 53.71875 
Q 15.921875 48.640625 19.1875 45.40625 
Q 22.46875 42.1875 27.6875 42.1875 
Q 32.765625 42.1875 36.015625 45.375 
Q 39.265625 48.578125 39.265625 53.21875 
Q 39.265625 58.0625 35.90625 61.359375 
Q 32.5625 64.65625 27.59375 64.65625 
Q 22.5625 64.65625 19.234375 61.421875 
Q 15.921875 58.203125 15.921875 53.71875 
z
M 13.09375 20.65625 
Q 13.09375 16.890625 14.875 13.375 
Q 16.65625 9.859375 20.171875 7.921875 
Q 23.6875 6 27.734375 6 
Q 34.03125 6 38.125 10.046875 
Q 42.234375 14.109375 42.234375 20.359375 
Q 42.234375 26.703125 38.015625 30.859375 
Q 33.796875 35.015625 27.4375 35.015625 
Q 21.234375 35.015625 17.15625 30.90625 
Q 13.09375 26.8125 13.09375 20.65625 
z
" id="ArialMT-56"/>
       </defs>
       <use xlink:href="#ArialMT-48"/>
       <use x="55.615234" xlink:href="#ArialMT-46"/>
       <use x="83.398438" xlink:href="#ArialMT-56"/>
      </g>
     </g>
    </g>
    <g id="ytick_6">
     <g id="line2d_14">
      <path clip-path="url(#pcea59d5fa9)" d="M 239.72 36.852 
C 253.790546 36.852 267.724275 39.623591 280.723764 45.008156 
C 293.723254 50.392721 305.535699 58.285544 315.485077 68.234923 
C 325.434456 78.184301 333.327279 89.996746 338.711844 102.996236 
C 344.096409 115.995725 346.868 129.929454 346.868 144 
C 346.868 158.070546 344.096409 172.004275 338.711844 185.003764 
C 333.327279 198.003254 325.434456 209.815699 315.485077 219.765077 
C 305.535699 229.714456 293.723254 237.607279 280.723764 242.991844 
C 267.724275 248.376409 253.790546 251.148 239.72 251.148 
C 225.649454 251.148 211.715725 248.376409 198.716236 242.991844 
C 185.716746 237.607279 173.904301 229.714456 163.954923 219.765077 
C 154.005544 209.815699 146.112721 198.003254 140.728156 185.003764 
C 135.343591 172.004275 132.572 158.070546 132.572 144 
C 132.572 129.929454 135.343591 115.995725 140.728156 102.996236 
C 146.112721 89.996746 154.005544 78.184301 163.954923 68.234923 
C 173.904301 58.285544 185.716746 50.392721 198.716236 45.008156 
C 211.715725 39.623591 225.649454 36.852 239.72 36.852 
" style="fill:none;stroke:#cccccc;stroke-linecap:round;stroke-width:0.8;"/>
     </g>
     <g id="text_14">
      <!-- 1.0 -->
      <g style="fill:#808080;" transform="translate(239.72 34.8645)scale(0.1 -0.1)">
       <use xlink:href="#ArialMT-49"/>
       <use x="55.615234" xlink:href="#ArialMT-46"/>
       <use x="83.398438" xlink:href="#ArialMT-48"/>
      </g>
     </g>
    </g>
   </g>
   <g id="line2d_15">
    <path clip-path="url(#pcea59d5fa9)" d="M 239.72 79.207604 
L 282.686375 101.033625 
L 317.873751 144 
L 305.968984 210.248984 
L 239.72 180.055302 
L 187.593627 196.126373 
L 190.378346 144 
L 220.771154 125.051154 
L 239.72 79.207604 
" style="fill:none;stroke:#000080;stroke-linecap:round;stroke-width:2;"/>
   </g>
   <g id="line2d_16">
    <path clip-path="url(#pcea59d5fa9)" d="M 239.72 82.850636 
L 280.663448 103.056552 
L 320.188148 144 
L 310.045145 214.325145 
L 239.72 167.05825 
L 187.964876 195.755124 
L 203.868279 144 
L 224.226042 128.506042 
L 239.72 82.850636 
" style="fill:none;stroke:#ffd700;stroke-linecap:round;stroke-width:2;"/>
   </g>
   <g id="line2d_17">
    <path clip-path="url(#pcea59d5fa9)" d="M 239.72 83.557813 
L 280.261893 103.458107 
L 325.674126 144 
L 312.219603 216.499603 
L 239.72 162.600893 
L 187.714851 196.005149 
L 209.139961 144 
L 223.824487 128.104487 
L 239.72 83.557813 
" style="fill:none;stroke:#808080;stroke-linecap:round;stroke-width:2;"/>
   </g>
   <g id="line2d_18">
    <path clip-path="url(#pcea59d5fa9)" d="M 239.72 81.189842 
L 281.413522 102.306478 
L 323.016855 144 
L 310.136063 214.416063 
L 239.72 170.240545 
L 187.343602 196.376398 
L 199.80737 144 
L 221.612147 125.892147 
L 239.72 81.189842 
" style="fill:none;stroke:#008000;stroke-linecap:round;stroke-width:2;"/>
   </g>
   <g id="patch_3">
    <path d="M 239.72 36.852 
C 225.649454 36.852 211.715725 39.623591 198.716236 45.008156 
C 185.716746 50.392721 173.904301 58.285544 163.954923 68.234923 
C 154.005544 78.184301 146.112721 89.996746 140.728156 102.996236 
C 135.343591 115.995725 132.572 129.929454 132.572 144 
C 132.572 158.070546 135.343591 172.004275 140.728156 185.003764 
C 146.112721 198.003254 154.005544 209.815699 163.954923 219.765077 
C 173.904301 229.714456 185.716746 237.607279 198.716236 242.991844 
C 211.715725 248.376409 225.649454 251.148 239.72 251.148 
C 253.790546 251.148 267.724275 248.376409 280.723764 242.991844 
C 293.723254 237.607279 305.535699 229.714456 315.485077 219.765077 
C 325.434456 209.815699 333.327279 198.003254 338.711844 185.003764 
C 344.096409 172.004275 346.868 158.070546 346.868 144 
C 346.868 129.929454 344.096409 115.995725 338.711844 102.996236 
C 333.327279 89.996746 325.434456 78.184301 315.485077 68.234923 
C 305.535699 58.285544 293.723254 50.392721 280.723764 45.008156 
C 267.724275 39.623591 253.790546 36.852 239.72 36.852 
" style="fill:none;stroke:#cccccc;stroke-linecap:square;stroke-linejoin:miter;"/>
   </g>
   <g id="legend_1">
    <g id="patch_4">
     <path d="M 29.007687 122.74275 
L 123.332 122.74275 
Q 125.972 122.74275 125.972 120.10275 
L 125.972 46.092 
Q 125.972 43.452 123.332 43.452 
L 29.007687 43.452 
Q 26.367687 43.452 26.367687 46.092 
L 26.367687 120.10275 
Q 26.367687 122.74275 29.007687 122.74275 
z
" style="fill:#ffffff;opacity:0.8;stroke:#cccccc;stroke-linejoin:miter;stroke-width:0.8;"/>
    </g>
    <g id="line2d_19">
     <path d="M 31.647687 53.721188 
L 58.047687 53.721188 
" style="fill:none;stroke:#000080;stroke-linecap:round;stroke-width:2;"/>
    </g>
    <g id="line2d_20"/>
    <g id="text_15">
     <!-- NN_A_C -->
     <g style="fill:#262626;" transform="translate(68.607687 58.341188)scale(0.132 -0.132)">
      <use xlink:href="#ArialMT-78"/>
      <use x="72.216797" xlink:href="#ArialMT-78"/>
      <use x="144.433594" xlink:href="#ArialMT-95"/>
      <use x="200.048828" xlink:href="#ArialMT-65"/>
      <use x="266.748047" xlink:href="#ArialMT-95"/>
      <use x="322.363281" xlink:href="#ArialMT-67"/>
     </g>
    </g>
    <g id="line2d_21">
     <path d="M 31.647687 72.553875 
L 58.047687 72.553875 
" style="fill:none;stroke:#ffd700;stroke-linecap:round;stroke-width:2;"/>
    </g>
    <g id="line2d_22"/>
    <g id="text_16">
     <!-- NN_F_S -->
     <g style="fill:#262626;" transform="translate(68.607687 77.173875)scale(0.132 -0.132)">
      <defs>
       <path d="M 4.5 23 
L 13.421875 23.78125 
Q 14.0625 18.40625 16.375 14.96875 
Q 18.703125 11.53125 23.578125 9.40625 
Q 28.46875 7.28125 34.578125 7.28125 
Q 39.984375 7.28125 44.140625 8.890625 
Q 48.296875 10.5 50.3125 13.296875 
Q 52.34375 16.109375 52.34375 19.4375 
Q 52.34375 22.796875 50.390625 25.3125 
Q 48.4375 27.828125 43.953125 29.546875 
Q 41.0625 30.671875 31.203125 33.03125 
Q 21.34375 35.40625 17.390625 37.5 
Q 12.25 40.1875 9.734375 44.15625 
Q 7.234375 48.140625 7.234375 53.078125 
Q 7.234375 58.5 10.296875 63.203125 
Q 13.375 67.921875 19.28125 70.359375 
Q 25.203125 72.796875 32.421875 72.796875 
Q 40.375 72.796875 46.453125 70.234375 
Q 52.546875 67.671875 55.8125 62.6875 
Q 59.078125 57.71875 59.328125 51.421875 
L 50.25 50.734375 
Q 49.515625 57.515625 45.28125 60.984375 
Q 41.0625 64.453125 32.8125 64.453125 
Q 24.21875 64.453125 20.28125 61.296875 
Q 16.359375 58.15625 16.359375 53.71875 
Q 16.359375 49.859375 19.140625 47.359375 
Q 21.875 44.875 33.421875 42.265625 
Q 44.96875 39.65625 49.265625 37.703125 
Q 55.515625 34.8125 58.484375 30.390625 
Q 61.46875 25.984375 61.46875 20.21875 
Q 61.46875 14.5 58.203125 9.4375 
Q 54.9375 4.390625 48.796875 1.578125 
Q 42.671875 -1.21875 35.015625 -1.21875 
Q 25.296875 -1.21875 18.71875 1.609375 
Q 12.15625 4.4375 8.421875 10.125 
Q 4.6875 15.828125 4.5 23 
z
" id="ArialMT-83"/>
      </defs>
      <use xlink:href="#ArialMT-78"/>
      <use x="72.216797" xlink:href="#ArialMT-78"/>
      <use x="144.433594" xlink:href="#ArialMT-95"/>
      <use x="200.048828" xlink:href="#ArialMT-70"/>
      <use x="261.132812" xlink:href="#ArialMT-95"/>
      <use x="316.748047" xlink:href="#ArialMT-83"/>
     </g>
    </g>
    <g id="line2d_23">
     <path d="M 31.647687 91.386563 
L 58.047687 91.386563 
" style="fill:none;stroke:#808080;stroke-linecap:round;stroke-width:2;"/>
    </g>
    <g id="line2d_24"/>
    <g id="text_17">
     <!-- RF_A_C -->
     <g style="fill:#262626;" transform="translate(68.607687 96.006563)scale(0.132 -0.132)">
      <use xlink:href="#ArialMT-82"/>
      <use x="72.216797" xlink:href="#ArialMT-70"/>
      <use x="133.300781" xlink:href="#ArialMT-95"/>
      <use x="188.916016" xlink:href="#ArialMT-65"/>
      <use x="255.615234" xlink:href="#ArialMT-95"/>
      <use x="311.230469" xlink:href="#ArialMT-67"/>
     </g>
    </g>
    <g id="line2d_25">
     <path d="M 31.647687 110.21925 
L 58.047687 110.21925 
" style="fill:none;stroke:#008000;stroke-linecap:round;stroke-width:2;"/>
    </g>
    <g id="line2d_26"/>
    <g id="text_18">
     <!-- RF_F_S -->
     <g style="fill:#262626;" transform="translate(68.607687 114.83925)scale(0.132 -0.132)">
      <use xlink:href="#ArialMT-82"/>
      <use x="72.216797" xlink:href="#ArialMT-70"/>
      <use x="133.300781" xlink:href="#ArialMT-95"/>
      <use x="188.916016" xlink:href="#ArialMT-70"/>
      <use x="250" xlink:href="#ArialMT-95"/>
      <use x="305.615234" xlink:href="#ArialMT-83"/>
     </g>
    </g>
   </g>
  </g>
 </g>
 <defs>
  <clipPath id="pcea59d5fa9">
   <path d="M 346.868 144 
C 346.868 129.929454 344.096409 115.995725 338.711844 102.996236 
C 333.327279 89.996746 325.434456 78.184301 315.485077 68.234923 
C 305.535699 58.285544 293.723254 50.392721 280.723764 45.008156 
C 267.724275 39.623591 253.790546 36.852 239.72 36.852 
C 225.649454 36.852 211.715725 39.623591 198.716236 45.008156 
C 185.716746 50.392721 173.904301 58.285544 163.954923 68.234923 
C 154.005544 78.184301 146.112721 89.996746 140.728156 102.996236 
C 135.343591 115.995725 132.572 129.929454 132.572 144 
C 132.572 158.070546 135.343591 172.004275 140.728156 185.003764 
C 146.112721 198.003254 154.005544 209.815699 163.954923 219.765077 
C 173.904301 229.714456 185.716746 237.607279 198.716236 242.991844 
C 211.715725 248.376409 225.649454 251.148 239.72 251.148 
C 253.790546 251.148 267.724275 248.376409 280.723764 242.991844 
C 293.723254 237.607279 305.535699 229.714456 315.485077 219.765077 
C 325.434456 209.815699 333.327279 198.003254 338.711844 185.003764 
C 344.096409 172.004275 346.868 158.070546 346.868 144 
M 239.72 144 
C 239.72 144 239.72 144 239.72 144 
C 239.72 144 239.72 144 239.72 144 
C 239.72 144 239.72 144 239.72 144 
C 239.72 144 239.72 144 239.72 144 
C 239.72 144 239.72 144 239.72 144 
C 239.72 144 239.72 144 239.72 144 
C 239.72 144 239.72 144 239.72 144 
C 239.72 144 239.72 144 239.72 144 
C 239.72 144 239.72 144 239.72 144 
C 239.72 144 239.72 144 239.72 144 
C 239.72 144 239.72 144 239.72 144 
C 239.72 144 239.72 144 239.72 144 
C 239.72 144 239.72 144 239.72 144 
C 239.72 144 239.72 144 239.72 144 
C 239.72 144 239.72 144 239.72 144 
C 239.72 144 239.72 144 239.72 144 
M 346.868 144 
z
"/>
  </clipPath>
 </defs>
</svg>
