<?xml version="1.0" encoding="utf-8" standalone="no"?>
<!DOCTYPE svg PUBLIC "-//W3C//DTD SVG 1.1//EN"
  "http://www.w3.org/Graphics/SVG/1.1/DTD/svg11.dtd">
<!-- Created with matplotlib (https://matplotlib.org/) -->
<svg height="288pt" version="1.1" viewBox="0 0 432 288" width="432pt" xmlns="http://www.w3.org/2000/svg" xmlns:xlink="http://www.w3.org/1999/xlink">
 <metadata>
  <rdf:RDF xmlns:cc="http://creativecommons.org/ns#" xmlns:dc="http://purl.org/dc/elements/1.1/" xmlns:rdf="http://www.w3.org/1999/02/22-rdf-syntax-ns#">
   <cc:Work>
    <dc:type rdf:resource="http://purl.org/dc/dcmitype/StillImage"/>
    <dc:date>2021-10-10T15:31:41.345047</dc:date>
    <dc:format>image/svg+xml</dc:format>
    <dc:creator>
     <cc:Agent>
      <dc:title>Matplotlib v3.3.2, https://matplotlib.org/</dc:title>
     </cc:Agent>
    </dc:creator>
   </cc:Work>
  </rdf:RDF>
 </metadata>
 <defs>
  <style type="text/css">*{stroke-linecap:butt;stroke-linejoin:round;}</style>
 </defs>
 <g id="figure_1">
  <g id="patch_1">
   <path d="M 0 288 
L 432 288 
L 432 0 
L 0 0 
z
" style="fill:none;"/>
  </g>
  <g id="axes_1">
   <g id="patch_2">
    <path d="M 358.482661 147.739661 
C 358.482661 133.178026 355.614336 118.757986 350.04184 105.30479 
C 344.469344 91.851594 336.301047 79.626874 326.004417 69.330244 
C 315.707786 59.033614 303.483066 50.865317 290.029871 45.292821 
C 276.576675 39.720324 262.156634 36.852 247.595 36.852 
C 233.033366 36.852 218.613325 39.720324 205.160129 45.292821 
C 191.706934 50.865317 179.482214 59.033614 169.185583 69.330244 
C 158.888953 79.626874 150.720656 91.851594 145.14816 105.30479 
C 139.575664 118.757986 136.707339 133.178026 136.707339 147.739661 
C 136.707339 162.301295 139.575664 176.721335 145.14816 190.174531 
C 150.720656 203.627727 158.888953 215.852447 169.185583 226.149077 
C 179.482214 236.445708 191.706934 244.614004 205.160129 250.186501 
C 218.613325 255.758997 233.033366 258.627321 247.595 258.627321 
C 262.156634 258.627321 276.576675 255.758997 290.029871 250.186501 
C 303.483066 244.614004 315.707786 236.445708 326.004417 226.149077 
C 336.301047 215.852447 344.469344 203.627727 350.04184 190.174531 
C 355.614336 176.721335 358.482661 162.301295 358.482661 147.739661 
M 247.595 147.739661 
C 247.595 147.739661 247.595 147.739661 247.595 147.739661 
C 247.595 147.739661 247.595 147.739661 247.595 147.739661 
C 247.595 147.739661 247.595 147.739661 247.595 147.739661 
C 247.595 147.739661 247.595 147.739661 247.595 147.739661 
C 247.595 147.739661 247.595 147.739661 247.595 147.739661 
C 247.595 147.739661 247.595 147.739661 247.595 147.739661 
C 247.595 147.739661 247.595 147.739661 247.595 147.739661 
C 247.595 147.739661 247.595 147.739661 247.595 147.739661 
C 247.595 147.739661 247.595 147.739661 247.595 147.739661 
C 247.595 147.739661 247.595 147.739661 247.595 147.739661 
C 247.595 147.739661 247.595 147.739661 247.595 147.739661 
C 247.595 147.739661 247.595 147.739661 247.595 147.739661 
C 247.595 147.739661 247.595 147.739661 247.595 147.739661 
C 247.595 147.739661 247.595 147.739661 247.595 147.739661 
C 247.595 147.739661 247.595 147.739661 247.595 147.739661 
C 247.595 147.739661 247.595 147.739661 247.595 147.739661 
M 358.482661 147.739661 
z
" style="fill:none;"/>
   </g>
   <g id="matplotlib.axis_1">
    <g id="xtick_1">
     <g id="line2d_1">
      <path clip-path="url(#p2ee0bdf04a)" d="M 247.595 147.739661 
L 247.595 36.852 
" style="fill:none;stroke:#cccccc;stroke-linecap:round;stroke-width:0.8;"/>
     </g>
     <g id="text_1">
      <!-- T29 -->
      <g style="fill:#262626;" transform="translate(236.223406 24.964406)scale(0.132 -0.132)">
       <defs>
        <path d="M 25.921875 0 
L 25.921875 63.140625 
L 2.34375 63.140625 
L 2.34375 71.578125 
L 59.078125 71.578125 
L 59.078125 63.140625 
L 35.40625 63.140625 
L 35.40625 0 
z
" id="ArialMT-84"/>
        <path d="M 50.34375 8.453125 
L 50.34375 0 
L 3.03125 0 
Q 2.9375 3.171875 4.046875 6.109375 
Q 5.859375 10.9375 9.828125 15.625 
Q 13.8125 20.3125 21.34375 26.46875 
Q 33.015625 36.03125 37.109375 41.625 
Q 41.21875 47.21875 41.21875 52.203125 
Q 41.21875 57.421875 37.46875 61 
Q 33.734375 64.59375 27.734375 64.59375 
Q 21.390625 64.59375 17.578125 60.78125 
Q 13.765625 56.984375 13.71875 50.25 
L 4.6875 51.171875 
Q 5.609375 61.28125 11.65625 66.578125 
Q 17.71875 71.875 27.9375 71.875 
Q 38.234375 71.875 44.234375 66.15625 
Q 50.25 60.453125 50.25 52 
Q 50.25 47.703125 48.484375 43.546875 
Q 46.734375 39.40625 42.65625 34.8125 
Q 38.578125 30.21875 29.109375 22.21875 
Q 21.1875 15.578125 18.9375 13.203125 
Q 16.703125 10.84375 15.234375 8.453125 
z
" id="ArialMT-50"/>
        <path d="M 5.46875 16.546875 
L 13.921875 17.328125 
Q 14.984375 11.375 18.015625 8.6875 
Q 21.046875 6 25.78125 6 
Q 29.828125 6 32.875 7.859375 
Q 35.9375 9.71875 37.890625 12.8125 
Q 39.84375 15.921875 41.15625 21.1875 
Q 42.484375 26.46875 42.484375 31.9375 
Q 42.484375 32.515625 42.4375 33.6875 
Q 39.796875 29.5 35.234375 26.875 
Q 30.671875 24.265625 25.34375 24.265625 
Q 16.453125 24.265625 10.296875 30.703125 
Q 4.15625 37.15625 4.15625 47.703125 
Q 4.15625 58.59375 10.578125 65.234375 
Q 17 71.875 26.65625 71.875 
Q 33.640625 71.875 39.421875 68.109375 
Q 45.21875 64.359375 48.21875 57.390625 
Q 51.21875 50.4375 51.21875 37.25 
Q 51.21875 23.53125 48.234375 15.40625 
Q 45.265625 7.28125 39.375 3.03125 
Q 33.5 -1.21875 25.59375 -1.21875 
Q 17.1875 -1.21875 11.859375 3.4375 
Q 6.546875 8.109375 5.46875 16.546875 
z
M 41.453125 48.140625 
Q 41.453125 55.71875 37.421875 60.15625 
Q 33.40625 64.59375 27.734375 64.59375 
Q 21.875 64.59375 17.53125 59.8125 
Q 13.1875 55.03125 13.1875 47.40625 
Q 13.1875 40.578125 17.3125 36.296875 
Q 21.4375 32.03125 27.484375 32.03125 
Q 33.59375 32.03125 37.515625 36.296875 
Q 41.453125 40.578125 41.453125 48.140625 
z
" id="ArialMT-57"/>
       </defs>
       <use xlink:href="#ArialMT-84"/>
       <use x="61.083984" xlink:href="#ArialMT-50"/>
       <use x="116.699219" xlink:href="#ArialMT-57"/>
      </g>
     </g>
    </g>
    <g id="xtick_2">
     <g id="line2d_2">
      <path clip-path="url(#p2ee0bdf04a)" d="M 247.595 147.739661 
L 318.872214 62.794784 
" style="fill:none;stroke:#cccccc;stroke-linecap:round;stroke-width:0.8;"/>
     </g>
     <g id="text_2">
      <!-- T32 -->
      <g style="fill:#262626;" transform="translate(317.335271 54.486711)scale(0.132 -0.132)">
       <defs>
        <path d="M 4.203125 18.890625 
L 12.984375 20.0625 
Q 14.5 12.59375 18.140625 9.296875 
Q 21.78125 6 27 6 
Q 33.203125 6 37.46875 10.296875 
Q 41.75 14.59375 41.75 20.953125 
Q 41.75 27 37.796875 30.921875 
Q 33.84375 34.859375 27.734375 34.859375 
Q 25.25 34.859375 21.53125 33.890625 
L 22.515625 41.609375 
Q 23.390625 41.5 23.921875 41.5 
Q 29.546875 41.5 34.03125 44.421875 
Q 38.53125 47.359375 38.53125 53.46875 
Q 38.53125 58.296875 35.25 61.46875 
Q 31.984375 64.65625 26.8125 64.65625 
Q 21.6875 64.65625 18.265625 61.421875 
Q 14.84375 58.203125 13.875 51.765625 
L 5.078125 53.328125 
Q 6.6875 62.15625 12.390625 67.015625 
Q 18.109375 71.875 26.609375 71.875 
Q 32.46875 71.875 37.390625 69.359375 
Q 42.328125 66.84375 44.9375 62.5 
Q 47.5625 58.15625 47.5625 53.265625 
Q 47.5625 48.640625 45.0625 44.828125 
Q 42.578125 41.015625 37.703125 38.765625 
Q 44.046875 37.3125 47.5625 32.6875 
Q 51.078125 28.078125 51.078125 21.140625 
Q 51.078125 11.765625 44.234375 5.25 
Q 37.40625 -1.265625 26.953125 -1.265625 
Q 17.53125 -1.265625 11.296875 4.34375 
Q 5.078125 9.96875 4.203125 18.890625 
z
" id="ArialMT-51"/>
       </defs>
       <use xlink:href="#ArialMT-84"/>
       <use x="61.083984" xlink:href="#ArialMT-51"/>
       <use x="116.699219" xlink:href="#ArialMT-50"/>
      </g>
     </g>
    </g>
    <g id="xtick_3">
     <g id="line2d_3">
      <path clip-path="url(#p2ee0bdf04a)" d="M 247.595 147.739661 
L 356.798028 128.48422 
" style="fill:none;stroke:#cccccc;stroke-linecap:round;stroke-width:0.8;"/>
     </g>
     <g id="text_3">
      <!-- T37 -->
      <g style="fill:#262626;" transform="translate(360.493993 129.23981)scale(0.132 -0.132)">
       <defs>
        <path d="M 4.734375 62.203125 
L 4.734375 70.65625 
L 51.078125 70.65625 
L 51.078125 63.8125 
Q 44.234375 56.546875 37.515625 44.484375 
Q 30.8125 32.421875 27.15625 19.671875 
Q 24.515625 10.6875 23.78125 0 
L 14.75 0 
Q 14.890625 8.453125 18.0625 20.40625 
Q 21.234375 32.375 27.171875 43.484375 
Q 33.109375 54.59375 39.796875 62.203125 
z
" id="ArialMT-55"/>
       </defs>
       <use xlink:href="#ArialMT-84"/>
       <use x="61.083984" xlink:href="#ArialMT-51"/>
       <use x="116.699219" xlink:href="#ArialMT-55"/>
      </g>
     </g>
    </g>
    <g id="xtick_4">
     <g id="line2d_4">
      <path clip-path="url(#p2ee0bdf04a)" d="M 247.595 147.739661 
L 343.626531 203.183491 
" style="fill:none;stroke:#cccccc;stroke-linecap:round;stroke-width:0.8;"/>
     </g>
     <g id="text_4">
      <!-- T40 -->
      <g style="fill:#262626;" transform="translate(345.505126 214.245897)scale(0.132 -0.132)">
       <defs>
        <path d="M 32.328125 0 
L 32.328125 17.140625 
L 1.265625 17.140625 
L 1.265625 25.203125 
L 33.9375 71.578125 
L 41.109375 71.578125 
L 41.109375 25.203125 
L 50.78125 25.203125 
L 50.78125 17.140625 
L 41.109375 17.140625 
L 41.109375 0 
z
M 32.328125 25.203125 
L 32.328125 57.46875 
L 9.90625 25.203125 
z
" id="ArialMT-52"/>
        <path d="M 4.15625 35.296875 
Q 4.15625 48 6.765625 55.734375 
Q 9.375 63.484375 14.515625 67.671875 
Q 19.671875 71.875 27.484375 71.875 
Q 33.25 71.875 37.59375 69.546875 
Q 41.9375 67.234375 44.765625 62.859375 
Q 47.609375 58.5 49.21875 52.21875 
Q 50.828125 45.953125 50.828125 35.296875 
Q 50.828125 22.703125 48.234375 14.96875 
Q 45.65625 7.234375 40.5 3 
Q 35.359375 -1.21875 27.484375 -1.21875 
Q 17.140625 -1.21875 11.234375 6.203125 
Q 4.15625 15.140625 4.15625 35.296875 
z
M 13.1875 35.296875 
Q 13.1875 17.671875 17.3125 11.828125 
Q 21.4375 6 27.484375 6 
Q 33.546875 6 37.671875 11.859375 
Q 41.796875 17.71875 41.796875 35.296875 
Q 41.796875 52.984375 37.671875 58.78125 
Q 33.546875 64.59375 27.390625 64.59375 
Q 21.34375 64.59375 17.71875 59.46875 
Q 13.1875 52.9375 13.1875 35.296875 
z
" id="ArialMT-48"/>
       </defs>
       <use xlink:href="#ArialMT-84"/>
       <use x="61.083984" xlink:href="#ArialMT-52"/>
       <use x="116.699219" xlink:href="#ArialMT-48"/>
      </g>
     </g>
    </g>
    <g id="xtick_5">
     <g id="line2d_5">
      <path clip-path="url(#p2ee0bdf04a)" d="M 247.595 147.739661 
L 285.520814 251.939977 
" style="fill:none;stroke:#cccccc;stroke-linecap:round;stroke-width:0.8;"/>
     </g>
     <g id="text_5">
      <!-- T41 -->
      <g style="fill:#262626;" transform="translate(279.382128 269.72968)scale(0.132 -0.132)">
       <defs>
        <path d="M 37.25 0 
L 28.46875 0 
L 28.46875 56 
Q 25.296875 52.984375 20.140625 49.953125 
Q 14.984375 46.921875 10.890625 45.40625 
L 10.890625 53.90625 
Q 18.265625 57.375 23.78125 62.296875 
Q 29.296875 67.234375 31.59375 71.875 
L 37.25 71.875 
z
" id="ArialMT-49"/>
       </defs>
       <use xlink:href="#ArialMT-84"/>
       <use x="61.083984" xlink:href="#ArialMT-52"/>
       <use x="116.699219" xlink:href="#ArialMT-49"/>
      </g>
     </g>
    </g>
    <g id="xtick_6">
     <g id="line2d_6">
      <path clip-path="url(#p2ee0bdf04a)" d="M 247.595 147.739661 
L 209.669186 251.939977 
" style="fill:none;stroke:#cccccc;stroke-linecap:round;stroke-width:0.8;"/>
     </g>
     <g id="text_6">
      <!-- T46 -->
      <g style="fill:#262626;" transform="translate(193.064684 269.72968)scale(0.132 -0.132)">
       <defs>
        <path d="M 49.75 54.046875 
L 41.015625 53.375 
Q 39.84375 58.546875 37.703125 60.890625 
Q 34.125 64.65625 28.90625 64.65625 
Q 24.703125 64.65625 21.53125 62.3125 
Q 17.390625 59.28125 14.984375 53.46875 
Q 12.59375 47.65625 12.5 36.921875 
Q 15.671875 41.75 20.265625 44.09375 
Q 24.859375 46.4375 29.890625 46.4375 
Q 38.671875 46.4375 44.84375 39.96875 
Q 51.03125 33.5 51.03125 23.25 
Q 51.03125 16.5 48.125 10.71875 
Q 45.21875 4.9375 40.140625 1.859375 
Q 35.0625 -1.21875 28.609375 -1.21875 
Q 17.625 -1.21875 10.6875 6.859375 
Q 3.765625 14.9375 3.765625 33.5 
Q 3.765625 54.25 11.421875 63.671875 
Q 18.109375 71.875 29.4375 71.875 
Q 37.890625 71.875 43.28125 67.140625 
Q 48.6875 62.40625 49.75 54.046875 
z
M 13.875 23.1875 
Q 13.875 18.65625 15.796875 14.5 
Q 17.71875 10.359375 21.1875 8.171875 
Q 24.65625 6 28.46875 6 
Q 34.03125 6 38.03125 10.484375 
Q 42.046875 14.984375 42.046875 22.703125 
Q 42.046875 30.125 38.078125 34.390625 
Q 34.125 38.671875 28.125 38.671875 
Q 22.171875 38.671875 18.015625 34.390625 
Q 13.875 30.125 13.875 23.1875 
z
" id="ArialMT-54"/>
       </defs>
       <use xlink:href="#ArialMT-84"/>
       <use x="61.083984" xlink:href="#ArialMT-52"/>
       <use x="116.699219" xlink:href="#ArialMT-54"/>
      </g>
     </g>
    </g>
    <g id="xtick_7">
     <g id="line2d_7">
      <path clip-path="url(#p2ee0bdf04a)" d="M 247.595 147.739661 
L 151.563469 203.183491 
" style="fill:none;stroke:#cccccc;stroke-linecap:round;stroke-width:0.8;"/>
     </g>
     <g id="text_7">
      <!-- T47 -->
      <g style="fill:#262626;" transform="translate(126.941687 214.245897)scale(0.132 -0.132)">
       <use xlink:href="#ArialMT-84"/>
       <use x="61.083984" xlink:href="#ArialMT-52"/>
       <use x="116.699219" xlink:href="#ArialMT-55"/>
      </g>
     </g>
    </g>
    <g id="xtick_8">
     <g id="line2d_8">
      <path clip-path="url(#p2ee0bdf04a)" d="M 247.595 147.739661 
L 138.391972 128.48422 
" style="fill:none;stroke:#cccccc;stroke-linecap:round;stroke-width:0.8;"/>
     </g>
     <g id="text_8">
      <!-- T50 -->
      <g style="fill:#262626;" transform="translate(111.95282 129.23981)scale(0.132 -0.132)">
       <defs>
        <path d="M 4.15625 18.75 
L 13.375 19.53125 
Q 14.40625 12.796875 18.140625 9.390625 
Q 21.875 6 27.15625 6 
Q 33.5 6 37.890625 10.78125 
Q 42.28125 15.578125 42.28125 23.484375 
Q 42.28125 31 38.0625 35.34375 
Q 33.84375 39.703125 27 39.703125 
Q 22.75 39.703125 19.328125 37.765625 
Q 15.921875 35.84375 13.96875 32.765625 
L 5.71875 33.84375 
L 12.640625 70.609375 
L 48.25 70.609375 
L 48.25 62.203125 
L 19.671875 62.203125 
L 15.828125 42.96875 
Q 22.265625 47.46875 29.34375 47.46875 
Q 38.71875 47.46875 45.15625 40.96875 
Q 51.609375 34.46875 51.609375 24.265625 
Q 51.609375 14.546875 45.953125 7.46875 
Q 39.0625 -1.21875 27.15625 -1.21875 
Q 17.390625 -1.21875 11.203125 4.25 
Q 5.03125 9.71875 4.15625 18.75 
z
" id="ArialMT-53"/>
       </defs>
       <use xlink:href="#ArialMT-84"/>
       <use x="61.083984" xlink:href="#ArialMT-53"/>
       <use x="116.699219" xlink:href="#ArialMT-48"/>
      </g>
     </g>
    </g>
    <g id="xtick_9">
     <g id="line2d_9">
      <path clip-path="url(#p2ee0bdf04a)" d="M 247.595 147.739661 
L 176.317786 62.794784 
" style="fill:none;stroke:#cccccc;stroke-linecap:round;stroke-width:0.8;"/>
     </g>
     <g id="text_9">
      <!-- T53 -->
      <g style="fill:#262626;" transform="translate(155.111542 54.486711)scale(0.132 -0.132)">
       <use xlink:href="#ArialMT-84"/>
       <use x="61.083984" xlink:href="#ArialMT-53"/>
       <use x="116.699219" xlink:href="#ArialMT-51"/>
      </g>
     </g>
    </g>
   </g>
   <g id="matplotlib.axis_2">
    <g id="ytick_1">
     <g id="line2d_10">
      <path clip-path="url(#p2ee0bdf04a)" d="M 247.595 147.739661 
C 247.595 147.739661 247.595 147.739661 247.595 147.739661 
C 247.595 147.739661 247.595 147.739661 247.595 147.739661 
C 247.595 147.739661 247.595 147.739661 247.595 147.739661 
C 247.595 147.739661 247.595 147.739661 247.595 147.739661 
C 247.595 147.739661 247.595 147.739661 247.595 147.739661 
C 247.595 147.739661 247.595 147.739661 247.595 147.739661 
C 247.595 147.739661 247.595 147.739661 247.595 147.739661 
C 247.595 147.739661 247.595 147.739661 247.595 147.739661 
C 247.595 147.739661 247.595 147.739661 247.595 147.739661 
C 247.595 147.739661 247.595 147.739661 247.595 147.739661 
C 247.595 147.739661 247.595 147.739661 247.595 147.739661 
C 247.595 147.739661 247.595 147.739661 247.595 147.739661 
C 247.595 147.739661 247.595 147.739661 247.595 147.739661 
C 247.595 147.739661 247.595 147.739661 247.595 147.739661 
C 247.595 147.739661 247.595 147.739661 247.595 147.739661 
C 247.595 147.739661 247.595 147.739661 247.595 147.739661 
" style="fill:none;stroke:#cccccc;stroke-linecap:round;stroke-width:0.8;"/>
     </g>
     <g id="text_10">
      <!-- 0 -->
      <g style="fill:#808080;" transform="translate(247.595 145.752161)scale(0.1 -0.1)">
       <use xlink:href="#ArialMT-48"/>
      </g>
     </g>
    </g>
    <g id="ytick_2">
     <g id="line2d_11">
      <path clip-path="url(#p2ee0bdf04a)" d="M 247.595 125.562128 
C 250.507327 125.562128 253.391335 126.135793 256.081974 127.250293 
C 258.772613 128.364792 261.217557 129.998451 263.276883 132.057777 
C 265.336209 134.117103 266.969869 136.562047 268.084368 139.252686 
C 269.198867 141.943326 269.772532 144.827334 269.772532 147.739661 
C 269.772532 150.651987 269.198867 153.535996 268.084368 156.226635 
C 266.969869 158.917274 265.336209 161.362218 263.276883 163.421544 
C 261.217557 165.48087 258.772613 167.114529 256.081974 168.229029 
C 253.391335 169.343528 250.507327 169.917193 247.595 169.917193 
C 244.682673 169.917193 241.798665 169.343528 239.108026 168.229029 
C 236.417387 167.114529 233.972443 165.48087 231.913117 163.421544 
C 229.853791 161.362218 228.220131 158.917274 227.105632 156.226635 
C 225.991133 153.535996 225.417468 150.651987 225.417468 147.739661 
C 225.417468 144.827334 225.991133 141.943326 227.105632 139.252686 
C 228.220131 136.562047 229.853791 134.117103 231.913117 132.057777 
C 233.972443 129.998451 236.417387 128.364792 239.108026 127.250293 
C 241.798665 126.135793 244.682673 125.562128 247.595 125.562128 
" style="fill:none;stroke:#cccccc;stroke-linecap:round;stroke-width:0.8;"/>
     </g>
     <g id="text_11">
      <!-- 2 -->
      <g style="fill:#808080;" transform="translate(247.595 123.574628)scale(0.1 -0.1)">
       <use xlink:href="#ArialMT-50"/>
      </g>
     </g>
    </g>
    <g id="ytick_3">
     <g id="line2d_12">
      <path clip-path="url(#p2ee0bdf04a)" d="M 247.595 103.384596 
C 253.419654 103.384596 259.18767 104.531926 264.568948 106.760925 
C 269.950227 108.989923 274.840115 112.257242 278.958767 116.375894 
C 283.077419 120.494546 286.344738 125.384434 288.573736 130.765712 
C 290.802734 136.146991 291.950064 141.915007 291.950064 147.739661 
C 291.950064 153.564314 290.802734 159.332331 288.573736 164.713609 
C 286.344738 170.094887 283.077419 174.984775 278.958767 179.103427 
C 274.840115 183.222079 269.950227 186.489398 264.568948 188.718397 
C 259.18767 190.947395 253.419654 192.094725 247.595 192.094725 
C 241.770346 192.094725 236.00233 190.947395 230.621052 188.718397 
C 225.239773 186.489398 220.349885 183.222079 216.231233 179.103427 
C 212.112581 174.984775 208.845262 170.094887 206.616264 164.713609 
C 204.387266 159.332331 203.239936 153.564314 203.239936 147.739661 
C 203.239936 141.915007 204.387266 136.146991 206.616264 130.765712 
C 208.845262 125.384434 212.112581 120.494546 216.231233 116.375894 
C 220.349885 112.257242 225.239773 108.989923 230.621052 106.760925 
C 236.00233 104.531926 241.770346 103.384596 247.595 103.384596 
" style="fill:none;stroke:#cccccc;stroke-linecap:round;stroke-width:0.8;"/>
     </g>
     <g id="text_12">
      <!-- 4 -->
      <g style="fill:#808080;" transform="translate(247.595 101.397096)scale(0.1 -0.1)">
       <use xlink:href="#ArialMT-52"/>
      </g>
     </g>
    </g>
    <g id="ytick_4">
     <g id="line2d_13">
      <path clip-path="url(#p2ee0bdf04a)" d="M 247.595 81.207064 
C 256.331981 81.207064 264.984005 82.928059 273.055922 86.271557 
C 281.12784 89.615054 288.462672 94.516032 294.64065 100.694011 
C 300.818628 106.871989 305.719606 114.206821 309.063104 122.278738 
C 312.406602 130.350656 314.127596 139.00268 314.127596 147.739661 
C 314.127596 156.476641 312.406602 165.128665 309.063104 173.200583 
C 305.719606 181.2725 300.818628 188.607332 294.64065 194.785311 
C 288.462672 200.963289 281.12784 205.864267 273.055922 209.207765 
C 264.984005 212.551262 256.331981 214.272257 247.595 214.272257 
C 238.858019 214.272257 230.205995 212.551262 222.134078 209.207765 
C 214.06216 205.864267 206.727328 200.963289 200.54935 194.785311 
C 194.371372 188.607332 189.470394 181.2725 186.126896 173.200583 
C 182.783398 165.128665 181.062404 156.476641 181.062404 147.739661 
C 181.062404 139.00268 182.783398 130.350656 186.126896 122.278738 
C 189.470394 114.206821 194.371372 106.871989 200.54935 100.694011 
C 206.727328 94.516032 214.06216 89.615054 222.134078 86.271557 
C 230.205995 82.928059 238.858019 81.207064 247.595 81.207064 
" style="fill:none;stroke:#cccccc;stroke-linecap:round;stroke-width:0.8;"/>
     </g>
     <g id="text_13">
      <!-- 6 -->
      <g style="fill:#808080;" transform="translate(247.595 79.219564)scale(0.1 -0.1)">
       <use xlink:href="#ArialMT-54"/>
      </g>
     </g>
    </g>
    <g id="ytick_5">
     <g id="line2d_14">
      <path clip-path="url(#p2ee0bdf04a)" d="M 247.595 59.029532 
C 259.244307 59.029532 270.78034 61.324192 281.542896 65.782189 
C 292.305453 70.240185 302.085229 76.774823 310.322533 85.012127 
C 318.559838 93.249431 325.094475 103.029208 329.552472 113.791764 
C 334.010469 124.554321 336.305128 136.090353 336.305128 147.739661 
C 336.305128 159.388968 334.010469 170.925 329.552472 181.687557 
C 325.094475 192.450114 318.559838 202.22989 310.322533 210.467194 
C 302.085229 218.704498 292.305453 225.239136 281.542896 229.697133 
C 270.78034 234.15513 259.244307 236.449789 247.595 236.449789 
C 235.945693 236.449789 224.40966 234.15513 213.647104 229.697133 
C 202.884547 225.239136 193.104771 218.704498 184.867467 210.467194 
C 176.630162 202.22989 170.095525 192.450114 165.637528 181.687557 
C 161.179531 170.925 158.884872 159.388968 158.884872 147.739661 
C 158.884872 136.090353 161.179531 124.554321 165.637528 113.791764 
C 170.095525 103.029208 176.630162 93.249431 184.867467 85.012127 
C 193.104771 76.774823 202.884547 70.240185 213.647104 65.782189 
C 224.40966 61.324192 235.945693 59.029532 247.595 59.029532 
" style="fill:none;stroke:#cccccc;stroke-linecap:round;stroke-width:0.8;"/>
     </g>
     <g id="text_14">
      <!-- 8 -->
      <g style="fill:#808080;" transform="translate(247.595 57.042032)scale(0.1 -0.1)">
       <defs>
        <path d="M 17.671875 38.8125 
Q 12.203125 40.828125 9.5625 44.53125 
Q 6.9375 48.25 6.9375 53.421875 
Q 6.9375 61.234375 12.546875 66.546875 
Q 18.171875 71.875 27.484375 71.875 
Q 36.859375 71.875 42.578125 66.421875 
Q 48.296875 60.984375 48.296875 53.171875 
Q 48.296875 48.1875 45.671875 44.5 
Q 43.0625 40.828125 37.75 38.8125 
Q 44.34375 36.671875 47.78125 31.875 
Q 51.21875 27.09375 51.21875 20.453125 
Q 51.21875 11.28125 44.71875 5.03125 
Q 38.234375 -1.21875 27.640625 -1.21875 
Q 17.046875 -1.21875 10.546875 5.046875 
Q 4.046875 11.328125 4.046875 20.703125 
Q 4.046875 27.6875 7.59375 32.390625 
Q 11.140625 37.109375 17.671875 38.8125 
z
M 15.921875 53.71875 
Q 15.921875 48.640625 19.1875 45.40625 
Q 22.46875 42.1875 27.6875 42.1875 
Q 32.765625 42.1875 36.015625 45.375 
Q 39.265625 48.578125 39.265625 53.21875 
Q 39.265625 58.0625 35.90625 61.359375 
Q 32.5625 64.65625 27.59375 64.65625 
Q 22.5625 64.65625 19.234375 61.421875 
Q 15.921875 58.203125 15.921875 53.71875 
z
M 13.09375 20.65625 
Q 13.09375 16.890625 14.875 13.375 
Q 16.65625 9.859375 20.171875 7.921875 
Q 23.6875 6 27.734375 6 
Q 34.03125 6 38.125 10.046875 
Q 42.234375 14.109375 42.234375 20.359375 
Q 42.234375 26.703125 38.015625 30.859375 
Q 33.796875 35.015625 27.4375 35.015625 
Q 21.234375 35.015625 17.15625 30.90625 
Q 13.09375 26.8125 13.09375 20.65625 
z
" id="ArialMT-56"/>
       </defs>
       <use xlink:href="#ArialMT-56"/>
      </g>
     </g>
    </g>
    <g id="ytick_6">
     <g id="line2d_15">
      <path clip-path="url(#p2ee0bdf04a)" d="M 247.595 36.852 
C 262.156634 36.852 276.576675 39.720324 290.029871 45.292821 
C 303.483066 50.865317 315.707786 59.033614 326.004417 69.330244 
C 336.301047 79.626874 344.469344 91.851594 350.04184 105.30479 
C 355.614336 118.757986 358.482661 133.178026 358.482661 147.739661 
C 358.482661 162.301295 355.614336 176.721335 350.04184 190.174531 
C 344.469344 203.627727 336.301047 215.852447 326.004417 226.149077 
C 315.707786 236.445708 303.483066 244.614004 290.029871 250.186501 
C 276.576675 255.758997 262.156634 258.627321 247.595 258.627321 
C 233.033366 258.627321 218.613325 255.758997 205.160129 250.186501 
C 191.706934 244.614004 179.482214 236.445708 169.185583 226.149077 
C 158.888953 215.852447 150.720656 203.627727 145.14816 190.174531 
C 139.575664 176.721335 136.707339 162.301295 136.707339 147.739661 
C 136.707339 133.178026 139.575664 118.757986 145.14816 105.30479 
C 150.720656 91.851594 158.888953 79.626874 169.185583 69.330244 
C 179.482214 59.033614 191.706934 50.865317 205.160129 45.292821 
C 218.613325 39.720324 233.033366 36.852 247.595 36.852 
" style="fill:none;stroke:#cccccc;stroke-linecap:round;stroke-width:0.8;"/>
     </g>
     <g id="text_15">
      <!-- 10 -->
      <g style="fill:#808080;" transform="translate(247.595 34.8645)scale(0.1 -0.1)">
       <use xlink:href="#ArialMT-49"/>
       <use x="55.615234" xlink:href="#ArialMT-48"/>
      </g>
     </g>
    </g>
   </g>
   <g id="line2d_16">
    <path clip-path="url(#p2ee0bdf04a)" d="M 247.595 36.852 
L 254.722721 139.245173 
L 356.798028 128.48422 
L 314.817072 186.550342 
L 266.557907 199.839819 
L 240.009837 168.579724 
L 161.166622 197.639108 
L 203.913789 140.037485 
L 233.339557 130.750685 
L 247.595 36.852 
" style="fill:none;stroke:#ffd700;stroke-linecap:round;stroke-width:2;"/>
   </g>
   <g id="line2d_17">
    <path clip-path="url(#p2ee0bdf04a)" d="M 247.595 103.384596 
L 276.105886 113.76171 
L 269.435606 143.888573 
L 286.007612 169.917193 
L 277.935651 231.099914 
L 236.217256 178.999756 
L 170.769775 192.094725 
L 247.595 147.739661 
L 211.956393 105.267222 
L 247.595 103.384596 
" style="fill:none;stroke:#fa8072;stroke-dasharray:2,3.3;stroke-dashoffset:0;stroke-width:2;"/>
   </g>
   <g id="line2d_18">
    <path clip-path="url(#p2ee0bdf04a)" d="M 247.595 103.384596 
L 276.105886 113.76171 
L 291.276211 140.037485 
L 286.007612 169.917193 
L 285.520814 251.939977 
L 232.424675 189.419787 
L 151.563469 203.183491 
L 203.913789 140.037485 
L 211.956393 105.267222 
L 247.595 103.384596 
" style="fill:none;stroke:#ff7f50;stroke-dasharray:12.8,3.2,2,3.2;stroke-dashoffset:0;stroke-width:2;"/>
   </g>
   <g id="patch_3">
    <path d="M 247.595 36.852 
C 233.033366 36.852 218.613325 39.720324 205.160129 45.292821 
C 191.706934 50.865317 179.482214 59.033614 169.185583 69.330244 
C 158.888953 79.626874 150.720656 91.851594 145.14816 105.30479 
C 139.575664 118.757986 136.707339 133.178026 136.707339 147.739661 
C 136.707339 162.301295 139.575664 176.721335 145.14816 190.174531 
C 150.720656 203.627727 158.888953 215.852447 169.185583 226.149077 
C 179.482214 236.445708 191.706934 244.614004 205.160129 250.186501 
C 218.613325 255.758997 233.033366 258.627321 247.595 258.627321 
C 262.156634 258.627321 276.576675 255.758997 290.029871 250.186501 
C 303.483066 244.614004 315.707786 236.445708 326.004417 226.149077 
C 336.301047 215.852447 344.469344 203.627727 350.04184 190.174531 
C 355.614336 176.721335 358.482661 162.301295 358.482661 147.739661 
C 358.482661 133.178026 355.614336 118.757986 350.04184 105.30479 
C 344.469344 91.851594 336.301047 79.626874 326.004417 69.330244 
C 315.707786 59.033614 303.483066 50.865317 290.029871 45.292821 
C 276.576675 39.720324 262.156634 36.852 247.595 36.852 
" style="fill:none;stroke:#cccccc;stroke-linecap:square;stroke-linejoin:miter;"/>
   </g>
   <g id="legend_1">
    <g id="patch_4">
     <path d="M 17.729964 103.588313 
L 127.467339 103.588313 
Q 130.107339 103.588313 130.107339 100.948313 
L 130.107339 46.092 
Q 130.107339 43.452 127.467339 43.452 
L 17.729964 43.452 
Q 15.089964 43.452 15.089964 46.092 
L 15.089964 100.948313 
Q 15.089964 103.588313 17.729964 103.588313 
z
" style="fill:#ffffff;opacity:0.8;stroke:#cccccc;stroke-linejoin:miter;stroke-width:0.8;"/>
    </g>
    <g id="line2d_19">
     <path d="M 20.369964 53.560313 
L 46.769964 53.560313 
" style="fill:none;stroke:#ffd700;stroke-linecap:round;stroke-width:2;"/>
    </g>
    <g id="line2d_20"/>
    <g id="text_16">
     <!-- CoDES -->
     <g style="fill:#262626;" transform="translate(57.329964 58.180313)scale(0.132 -0.132)">
      <defs>
       <path d="M 58.796875 25.09375 
L 68.265625 22.703125 
Q 65.28125 11.03125 57.546875 4.90625 
Q 49.8125 -1.21875 38.625 -1.21875 
Q 27.046875 -1.21875 19.796875 3.484375 
Q 12.546875 8.203125 8.765625 17.140625 
Q 4.984375 26.078125 4.984375 36.328125 
Q 4.984375 47.515625 9.25 55.828125 
Q 13.53125 64.15625 21.40625 68.46875 
Q 29.296875 72.796875 38.765625 72.796875 
Q 49.515625 72.796875 56.828125 67.328125 
Q 64.15625 61.859375 67.046875 51.953125 
L 57.71875 49.75 
Q 55.21875 57.5625 50.484375 61.125 
Q 45.75 64.703125 38.578125 64.703125 
Q 30.328125 64.703125 24.78125 60.734375 
Q 19.234375 56.78125 16.984375 50.109375 
Q 14.75 43.453125 14.75 36.375 
Q 14.75 27.25 17.40625 20.4375 
Q 20.0625 13.625 25.671875 10.25 
Q 31.296875 6.890625 37.84375 6.890625 
Q 45.796875 6.890625 51.3125 11.46875 
Q 56.84375 16.0625 58.796875 25.09375 
z
" id="ArialMT-67"/>
       <path d="M 3.328125 25.921875 
Q 3.328125 40.328125 11.328125 47.265625 
Q 18.015625 53.03125 27.640625 53.03125 
Q 38.328125 53.03125 45.109375 46.015625 
Q 51.90625 39.015625 51.90625 26.65625 
Q 51.90625 16.65625 48.90625 10.90625 
Q 45.90625 5.171875 40.15625 2 
Q 34.421875 -1.171875 27.640625 -1.171875 
Q 16.75 -1.171875 10.03125 5.8125 
Q 3.328125 12.796875 3.328125 25.921875 
z
M 12.359375 25.921875 
Q 12.359375 15.96875 16.703125 11.015625 
Q 21.046875 6.0625 27.640625 6.0625 
Q 34.1875 6.0625 38.53125 11.03125 
Q 42.875 16.015625 42.875 26.21875 
Q 42.875 35.84375 38.5 40.796875 
Q 34.125 45.75 27.640625 45.75 
Q 21.046875 45.75 16.703125 40.8125 
Q 12.359375 35.890625 12.359375 25.921875 
z
" id="ArialMT-111"/>
       <path d="M 7.71875 0 
L 7.71875 71.578125 
L 32.375 71.578125 
Q 40.71875 71.578125 45.125 70.5625 
Q 51.265625 69.140625 55.609375 65.4375 
Q 61.28125 60.640625 64.078125 53.1875 
Q 66.890625 45.75 66.890625 36.1875 
Q 66.890625 28.03125 64.984375 21.734375 
Q 63.09375 15.4375 60.109375 11.296875 
Q 57.125 7.171875 53.578125 4.796875 
Q 50.046875 2.4375 45.046875 1.21875 
Q 40.046875 0 33.546875 0 
z
M 17.1875 8.453125 
L 32.46875 8.453125 
Q 39.546875 8.453125 43.578125 9.765625 
Q 47.609375 11.078125 50 13.484375 
Q 53.375 16.84375 55.25 22.53125 
Q 57.125 28.21875 57.125 36.328125 
Q 57.125 47.5625 53.4375 53.59375 
Q 49.75 59.625 44.484375 61.671875 
Q 40.671875 63.140625 32.234375 63.140625 
L 17.1875 63.140625 
z
" id="ArialMT-68"/>
       <path d="M 7.90625 0 
L 7.90625 71.578125 
L 59.671875 71.578125 
L 59.671875 63.140625 
L 17.390625 63.140625 
L 17.390625 41.21875 
L 56.984375 41.21875 
L 56.984375 32.8125 
L 17.390625 32.8125 
L 17.390625 8.453125 
L 61.328125 8.453125 
L 61.328125 0 
z
" id="ArialMT-69"/>
       <path d="M 4.5 23 
L 13.421875 23.78125 
Q 14.0625 18.40625 16.375 14.96875 
Q 18.703125 11.53125 23.578125 9.40625 
Q 28.46875 7.28125 34.578125 7.28125 
Q 39.984375 7.28125 44.140625 8.890625 
Q 48.296875 10.5 50.3125 13.296875 
Q 52.34375 16.109375 52.34375 19.4375 
Q 52.34375 22.796875 50.390625 25.3125 
Q 48.4375 27.828125 43.953125 29.546875 
Q 41.0625 30.671875 31.203125 33.03125 
Q 21.34375 35.40625 17.390625 37.5 
Q 12.25 40.1875 9.734375 44.15625 
Q 7.234375 48.140625 7.234375 53.078125 
Q 7.234375 58.5 10.296875 63.203125 
Q 13.375 67.921875 19.28125 70.359375 
Q 25.203125 72.796875 32.421875 72.796875 
Q 40.375 72.796875 46.453125 70.234375 
Q 52.546875 67.671875 55.8125 62.6875 
Q 59.078125 57.71875 59.328125 51.421875 
L 50.25 50.734375 
Q 49.515625 57.515625 45.28125 60.984375 
Q 41.0625 64.453125 32.8125 64.453125 
Q 24.21875 64.453125 20.28125 61.296875 
Q 16.359375 58.15625 16.359375 53.71875 
Q 16.359375 49.859375 19.140625 47.359375 
Q 21.875 44.875 33.421875 42.265625 
Q 44.96875 39.65625 49.265625 37.703125 
Q 55.515625 34.8125 58.484375 30.390625 
Q 61.46875 25.984375 61.46875 20.21875 
Q 61.46875 14.5 58.203125 9.4375 
Q 54.9375 4.390625 48.796875 1.578125 
Q 42.671875 -1.21875 35.015625 -1.21875 
Q 25.296875 -1.21875 18.71875 1.609375 
Q 12.15625 4.4375 8.421875 10.125 
Q 4.6875 15.828125 4.5 23 
z
" id="ArialMT-83"/>
      </defs>
      <use xlink:href="#ArialMT-67"/>
      <use x="72.216797" xlink:href="#ArialMT-111"/>
      <use x="127.832031" xlink:href="#ArialMT-68"/>
      <use x="200.048828" xlink:href="#ArialMT-69"/>
      <use x="266.748047" xlink:href="#ArialMT-83"/>
     </g>
    </g>
    <g id="line2d_21">
     <path d="M 20.369964 72.393 
L 46.769964 72.393 
" style="fill:none;stroke:#fa8072;stroke-dasharray:2,3.3;stroke-dashoffset:0;stroke-width:2;"/>
    </g>
    <g id="line2d_22"/>
    <g id="text_17">
     <!-- GraphRank -->
     <g style="fill:#262626;" transform="translate(57.329964 77.013)scale(0.132 -0.132)">
      <defs>
       <path d="M 41.21875 28.078125 
L 41.21875 36.46875 
L 71.53125 36.53125 
L 71.53125 9.96875 
Q 64.546875 4.390625 57.125 1.578125 
Q 49.703125 -1.21875 41.890625 -1.21875 
Q 31.34375 -1.21875 22.71875 3.296875 
Q 14.109375 7.8125 9.71875 16.359375 
Q 5.328125 24.90625 5.328125 35.453125 
Q 5.328125 45.90625 9.6875 54.953125 
Q 14.0625 64.015625 22.265625 68.40625 
Q 30.46875 72.796875 41.15625 72.796875 
Q 48.921875 72.796875 55.1875 70.28125 
Q 61.46875 67.78125 65.03125 63.28125 
Q 68.609375 58.796875 70.453125 51.5625 
L 61.921875 49.21875 
Q 60.296875 54.6875 57.90625 57.8125 
Q 55.515625 60.9375 51.0625 62.8125 
Q 46.625 64.703125 41.21875 64.703125 
Q 34.71875 64.703125 29.984375 62.71875 
Q 25.25 60.75 22.34375 57.515625 
Q 19.4375 54.296875 17.828125 50.4375 
Q 15.09375 43.796875 15.09375 36.03125 
Q 15.09375 26.46875 18.390625 20.015625 
Q 21.6875 13.578125 27.984375 10.453125 
Q 34.28125 7.328125 41.359375 7.328125 
Q 47.515625 7.328125 53.375 9.6875 
Q 59.234375 12.0625 62.25 14.75 
L 62.25 28.078125 
z
" id="ArialMT-71"/>
       <path d="M 6.5 0 
L 6.5 51.859375 
L 14.40625 51.859375 
L 14.40625 44 
Q 17.4375 49.515625 20 51.265625 
Q 22.5625 53.03125 25.640625 53.03125 
Q 30.078125 53.03125 34.671875 50.203125 
L 31.640625 42.046875 
Q 28.421875 43.953125 25.203125 43.953125 
Q 22.3125 43.953125 20.015625 42.21875 
Q 17.71875 40.484375 16.75 37.40625 
Q 15.28125 32.71875 15.28125 27.15625 
L 15.28125 0 
z
" id="ArialMT-114"/>
       <path d="M 40.4375 6.390625 
Q 35.546875 2.25 31.03125 0.53125 
Q 26.515625 -1.171875 21.34375 -1.171875 
Q 12.796875 -1.171875 8.203125 3 
Q 3.609375 7.171875 3.609375 13.671875 
Q 3.609375 17.484375 5.34375 20.625 
Q 7.078125 23.78125 9.890625 25.6875 
Q 12.703125 27.59375 16.21875 28.5625 
Q 18.796875 29.25 24.03125 29.890625 
Q 34.671875 31.15625 39.703125 32.90625 
Q 39.75 34.71875 39.75 35.203125 
Q 39.75 40.578125 37.25 42.78125 
Q 33.890625 45.75 27.25 45.75 
Q 21.046875 45.75 18.09375 43.578125 
Q 15.140625 41.40625 13.71875 35.890625 
L 5.125 37.0625 
Q 6.296875 42.578125 8.984375 45.96875 
Q 11.671875 49.359375 16.75 51.1875 
Q 21.828125 53.03125 28.515625 53.03125 
Q 35.15625 53.03125 39.296875 51.46875 
Q 43.453125 49.90625 45.40625 47.53125 
Q 47.359375 45.171875 48.140625 41.546875 
Q 48.578125 39.3125 48.578125 33.453125 
L 48.578125 21.734375 
Q 48.578125 9.46875 49.140625 6.21875 
Q 49.703125 2.984375 51.375 0 
L 42.1875 0 
Q 40.828125 2.734375 40.4375 6.390625 
z
M 39.703125 26.03125 
Q 34.90625 24.078125 25.34375 22.703125 
Q 19.921875 21.921875 17.671875 20.9375 
Q 15.4375 19.96875 14.203125 18.09375 
Q 12.984375 16.21875 12.984375 13.921875 
Q 12.984375 10.40625 15.640625 8.0625 
Q 18.3125 5.71875 23.4375 5.71875 
Q 28.515625 5.71875 32.46875 7.9375 
Q 36.421875 10.15625 38.28125 14.015625 
Q 39.703125 17 39.703125 22.796875 
z
" id="ArialMT-97"/>
       <path d="M 6.59375 -19.875 
L 6.59375 51.859375 
L 14.59375 51.859375 
L 14.59375 45.125 
Q 17.4375 49.078125 21 51.046875 
Q 24.5625 53.03125 29.640625 53.03125 
Q 36.28125 53.03125 41.359375 49.609375 
Q 46.4375 46.1875 49.015625 39.953125 
Q 51.609375 33.734375 51.609375 26.3125 
Q 51.609375 18.359375 48.75 11.984375 
Q 45.90625 5.609375 40.453125 2.21875 
Q 35.015625 -1.171875 29 -1.171875 
Q 24.609375 -1.171875 21.109375 0.6875 
Q 17.625 2.546875 15.375 5.375 
L 15.375 -19.875 
z
M 14.546875 25.640625 
Q 14.546875 15.625 18.59375 10.84375 
Q 22.65625 6.0625 28.421875 6.0625 
Q 34.28125 6.0625 38.453125 11.015625 
Q 42.625 15.96875 42.625 26.375 
Q 42.625 36.28125 38.546875 41.203125 
Q 34.46875 46.140625 28.8125 46.140625 
Q 23.1875 46.140625 18.859375 40.890625 
Q 14.546875 35.640625 14.546875 25.640625 
z
" id="ArialMT-112"/>
       <path d="M 6.59375 0 
L 6.59375 71.578125 
L 15.375 71.578125 
L 15.375 45.90625 
Q 21.53125 53.03125 30.90625 53.03125 
Q 36.671875 53.03125 40.921875 50.75 
Q 45.171875 48.484375 47 44.484375 
Q 48.828125 40.484375 48.828125 32.859375 
L 48.828125 0 
L 40.046875 0 
L 40.046875 32.859375 
Q 40.046875 39.453125 37.1875 42.453125 
Q 34.328125 45.453125 29.109375 45.453125 
Q 25.203125 45.453125 21.75 43.421875 
Q 18.3125 41.40625 16.84375 37.9375 
Q 15.375 34.46875 15.375 28.375 
L 15.375 0 
z
" id="ArialMT-104"/>
       <path d="M 7.859375 0 
L 7.859375 71.578125 
L 39.59375 71.578125 
Q 49.171875 71.578125 54.140625 69.640625 
Q 59.125 67.71875 62.109375 62.828125 
Q 65.09375 57.953125 65.09375 52.046875 
Q 65.09375 44.4375 60.15625 39.203125 
Q 55.21875 33.984375 44.921875 32.5625 
Q 48.6875 30.765625 50.640625 29 
Q 54.78125 25.203125 58.5 19.484375 
L 70.953125 0 
L 59.03125 0 
L 49.5625 14.890625 
Q 45.40625 21.34375 42.71875 24.75 
Q 40.046875 28.171875 37.921875 29.53125 
Q 35.796875 30.90625 33.59375 31.453125 
Q 31.984375 31.78125 28.328125 31.78125 
L 17.328125 31.78125 
L 17.328125 0 
z
M 17.328125 39.984375 
L 37.703125 39.984375 
Q 44.1875 39.984375 47.84375 41.328125 
Q 51.515625 42.671875 53.421875 45.625 
Q 55.328125 48.578125 55.328125 52.046875 
Q 55.328125 57.125 51.640625 60.390625 
Q 47.953125 63.671875 39.984375 63.671875 
L 17.328125 63.671875 
z
" id="ArialMT-82"/>
       <path d="M 6.59375 0 
L 6.59375 51.859375 
L 14.5 51.859375 
L 14.5 44.484375 
Q 20.21875 53.03125 31 53.03125 
Q 35.6875 53.03125 39.625 51.34375 
Q 43.5625 49.65625 45.515625 46.921875 
Q 47.46875 44.1875 48.25 40.4375 
Q 48.734375 37.984375 48.734375 31.890625 
L 48.734375 0 
L 39.9375 0 
L 39.9375 31.546875 
Q 39.9375 36.921875 38.90625 39.578125 
Q 37.890625 42.234375 35.28125 43.8125 
Q 32.671875 45.40625 29.15625 45.40625 
Q 23.53125 45.40625 19.453125 41.84375 
Q 15.375 38.28125 15.375 28.328125 
L 15.375 0 
z
" id="ArialMT-110"/>
       <path d="M 6.640625 0 
L 6.640625 71.578125 
L 15.4375 71.578125 
L 15.4375 30.765625 
L 36.234375 51.859375 
L 47.609375 51.859375 
L 27.78125 32.625 
L 49.609375 0 
L 38.765625 0 
L 21.625 26.515625 
L 15.4375 20.5625 
L 15.4375 0 
z
" id="ArialMT-107"/>
      </defs>
      <use xlink:href="#ArialMT-71"/>
      <use x="77.783203" xlink:href="#ArialMT-114"/>
      <use x="111.083984" xlink:href="#ArialMT-97"/>
      <use x="166.699219" xlink:href="#ArialMT-112"/>
      <use x="222.314453" xlink:href="#ArialMT-104"/>
      <use x="277.929688" xlink:href="#ArialMT-82"/>
      <use x="350.146484" xlink:href="#ArialMT-97"/>
      <use x="405.761719" xlink:href="#ArialMT-110"/>
      <use x="461.376953" xlink:href="#ArialMT-107"/>
     </g>
    </g>
    <g id="line2d_23">
     <path d="M 20.369964 91.064813 
L 46.769964 91.064813 
" style="fill:none;stroke:#ff7f50;stroke-dasharray:12.8,3.2,2,3.2;stroke-dashoffset:0;stroke-width:2;"/>
    </g>
    <g id="line2d_24"/>
    <g id="text_18">
     <!-- IScore -->
     <g style="fill:#262626;" transform="translate(57.329964 95.684813)scale(0.132 -0.132)">
      <defs>
       <path d="M 9.328125 0 
L 9.328125 71.578125 
L 18.796875 71.578125 
L 18.796875 0 
z
" id="ArialMT-73"/>
       <path d="M 40.4375 19 
L 49.078125 17.875 
Q 47.65625 8.9375 41.8125 3.875 
Q 35.984375 -1.171875 27.484375 -1.171875 
Q 16.84375 -1.171875 10.375 5.78125 
Q 3.90625 12.75 3.90625 25.734375 
Q 3.90625 34.125 6.6875 40.421875 
Q 9.46875 46.734375 15.15625 49.875 
Q 20.84375 53.03125 27.546875 53.03125 
Q 35.984375 53.03125 41.359375 48.75 
Q 46.734375 44.484375 48.25 36.625 
L 39.703125 35.296875 
Q 38.484375 40.53125 35.375 43.15625 
Q 32.28125 45.796875 27.875 45.796875 
Q 21.234375 45.796875 17.078125 41.03125 
Q 12.9375 36.28125 12.9375 25.984375 
Q 12.9375 15.53125 16.9375 10.796875 
Q 20.953125 6.0625 27.390625 6.0625 
Q 32.5625 6.0625 36.03125 9.234375 
Q 39.5 12.40625 40.4375 19 
z
" id="ArialMT-99"/>
       <path d="M 42.09375 16.703125 
L 51.171875 15.578125 
Q 49.03125 7.625 43.21875 3.21875 
Q 37.40625 -1.171875 28.375 -1.171875 
Q 17 -1.171875 10.328125 5.828125 
Q 3.65625 12.84375 3.65625 25.484375 
Q 3.65625 38.578125 10.390625 45.796875 
Q 17.140625 53.03125 27.875 53.03125 
Q 38.28125 53.03125 44.875 45.953125 
Q 51.46875 38.875 51.46875 26.03125 
Q 51.46875 25.25 51.421875 23.6875 
L 12.75 23.6875 
Q 13.234375 15.140625 17.578125 10.59375 
Q 21.921875 6.0625 28.421875 6.0625 
Q 33.25 6.0625 36.671875 8.59375 
Q 40.09375 11.140625 42.09375 16.703125 
z
M 13.234375 30.90625 
L 42.1875 30.90625 
Q 41.609375 37.453125 38.875 40.71875 
Q 34.671875 45.796875 27.984375 45.796875 
Q 21.921875 45.796875 17.796875 41.75 
Q 13.671875 37.703125 13.234375 30.90625 
z
" id="ArialMT-101"/>
      </defs>
      <use xlink:href="#ArialMT-73"/>
      <use x="27.783203" xlink:href="#ArialMT-83"/>
      <use x="94.482422" xlink:href="#ArialMT-99"/>
      <use x="144.482422" xlink:href="#ArialMT-111"/>
      <use x="200.097656" xlink:href="#ArialMT-114"/>
      <use x="233.398438" xlink:href="#ArialMT-101"/>
     </g>
    </g>
   </g>
  </g>
 </g>
 <defs>
  <clipPath id="p2ee0bdf04a">
   <path d="M 358.482661 147.739661 
C 358.482661 133.178026 355.614336 118.757986 350.04184 105.30479 
C 344.469344 91.851594 336.301047 79.626874 326.004417 69.330244 
C 315.707786 59.033614 303.483066 50.865317 290.029871 45.292821 
C 276.576675 39.720324 262.156634 36.852 247.595 36.852 
C 233.033366 36.852 218.613325 39.720324 205.160129 45.292821 
C 191.706934 50.865317 179.482214 59.033614 169.185583 69.330244 
C 158.888953 79.626874 150.720656 91.851594 145.14816 105.30479 
C 139.575664 118.757986 136.707339 133.178026 136.707339 147.739661 
C 136.707339 162.301295 139.575664 176.721335 145.14816 190.174531 
C 150.720656 203.627727 158.888953 215.852447 169.185583 226.149077 
C 179.482214 236.445708 191.706934 244.614004 205.160129 250.186501 
C 218.613325 255.758997 233.033366 258.627321 247.595 258.627321 
C 262.156634 258.627321 276.576675 255.758997 290.029871 250.186501 
C 303.483066 244.614004 315.707786 236.445708 326.004417 226.149077 
C 336.301047 215.852447 344.469344 203.627727 350.04184 190.174531 
C 355.614336 176.721335 358.482661 162.301295 358.482661 147.739661 
M 247.595 147.739661 
C 247.595 147.739661 247.595 147.739661 247.595 147.739661 
C 247.595 147.739661 247.595 147.739661 247.595 147.739661 
C 247.595 147.739661 247.595 147.739661 247.595 147.739661 
C 247.595 147.739661 247.595 147.739661 247.595 147.739661 
C 247.595 147.739661 247.595 147.739661 247.595 147.739661 
C 247.595 147.739661 247.595 147.739661 247.595 147.739661 
C 247.595 147.739661 247.595 147.739661 247.595 147.739661 
C 247.595 147.739661 247.595 147.739661 247.595 147.739661 
C 247.595 147.739661 247.595 147.739661 247.595 147.739661 
C 247.595 147.739661 247.595 147.739661 247.595 147.739661 
C 247.595 147.739661 247.595 147.739661 247.595 147.739661 
C 247.595 147.739661 247.595 147.739661 247.595 147.739661 
C 247.595 147.739661 247.595 147.739661 247.595 147.739661 
C 247.595 147.739661 247.595 147.739661 247.595 147.739661 
C 247.595 147.739661 247.595 147.739661 247.595 147.739661 
C 247.595 147.739661 247.595 147.739661 247.595 147.739661 
M 358.482661 147.739661 
z
"/>
  </clipPath>
 </defs>
</svg>
