<?xml version="1.0" encoding="utf-8" standalone="no"?>
<!DOCTYPE svg PUBLIC "-//W3C//DTD SVG 1.1//EN"
  "http://www.w3.org/Graphics/SVG/1.1/DTD/svg11.dtd">
<!-- Created with matplotlib (https://matplotlib.org/) -->
<svg height="288pt" version="1.1" viewBox="0 0 432 288" width="432pt" xmlns="http://www.w3.org/2000/svg" xmlns:xlink="http://www.w3.org/1999/xlink">
 <metadata>
  <rdf:RDF xmlns:cc="http://creativecommons.org/ns#" xmlns:dc="http://purl.org/dc/elements/1.1/" xmlns:rdf="http://www.w3.org/1999/02/22-rdf-syntax-ns#">
   <cc:Work>
    <dc:type rdf:resource="http://purl.org/dc/dcmitype/StillImage"/>
    <dc:date>2021-11-01T13:13:59.943670</dc:date>
    <dc:format>image/svg+xml</dc:format>
    <dc:creator>
     <cc:Agent>
      <dc:title>Matplotlib v3.3.2, https://matplotlib.org/</dc:title>
     </cc:Agent>
    </dc:creator>
   </cc:Work>
  </rdf:RDF>
 </metadata>
 <defs>
  <style type="text/css">*{stroke-linecap:butt;stroke-linejoin:round;}</style>
 </defs>
 <g id="figure_1">
  <g id="patch_1">
   <path d="M 0 288 
L 432 288 
L 432 0 
L 0 0 
z
" style="fill:none;"/>
  </g>
  <g id="axes_1">
   <g id="patch_2">
    <path d="M 335.1805 144 
C 335.1805 129.929454 332.408909 115.995725 327.024344 102.996236 
C 321.639779 89.996746 313.746956 78.184301 303.797577 68.234923 
C 293.848199 58.285544 282.035754 50.392721 269.036264 45.008156 
C 256.036775 39.623591 242.103046 36.852 228.0325 36.852 
C 213.961954 36.852 200.028225 39.623591 187.028736 45.008156 
C 174.029246 50.392721 162.216801 58.285544 152.267423 68.234923 
C 142.318044 78.184301 134.425221 89.996746 129.040656 102.996236 
C 123.656091 115.995725 120.8845 129.929454 120.8845 144 
C 120.8845 158.070546 123.656091 172.004275 129.040656 185.003764 
C 134.425221 198.003254 142.318044 209.815699 152.267423 219.765077 
C 162.216801 229.714456 174.029246 237.607279 187.028736 242.991844 
C 200.028225 248.376409 213.961954 251.148 228.0325 251.148 
C 242.103046 251.148 256.036775 248.376409 269.036264 242.991844 
C 282.035754 237.607279 293.848199 229.714456 303.797577 219.765077 
C 313.746956 209.815699 321.639779 198.003254 327.024344 185.003764 
C 332.408909 172.004275 335.1805 158.070546 335.1805 144 
M 228.0325 144 
C 228.0325 144 228.0325 144 228.0325 144 
C 228.0325 144 228.0325 144 228.0325 144 
C 228.0325 144 228.0325 144 228.0325 144 
C 228.0325 144 228.0325 144 228.0325 144 
C 228.0325 144 228.0325 144 228.0325 144 
C 228.0325 144 228.0325 144 228.0325 144 
C 228.0325 144 228.0325 144 228.0325 144 
C 228.0325 144 228.0325 144 228.0325 144 
C 228.0325 144 228.0325 144 228.0325 144 
C 228.0325 144 228.0325 144 228.0325 144 
C 228.0325 144 228.0325 144 228.0325 144 
C 228.0325 144 228.0325 144 228.0325 144 
C 228.0325 144 228.0325 144 228.0325 144 
C 228.0325 144 228.0325 144 228.0325 144 
C 228.0325 144 228.0325 144 228.0325 144 
C 228.0325 144 228.0325 144 228.0325 144 
M 335.1805 144 
z
" style="fill:none;"/>
   </g>
   <g id="matplotlib.axis_1">
    <g id="xtick_1">
     <g id="line2d_1">
      <path clip-path="url(#p5fffbaf2de)" d="M 228.0325 144 
L 228.0325 36.852 
" style="fill:none;stroke:#cccccc;stroke-linecap:round;stroke-width:0.8;"/>
     </g>
     <g id="text_1">
      <!-- Acc -->
      <g style="fill:#262626;" transform="translate(217.030094 24.964406)scale(0.132 -0.132)">
       <defs>
        <path d="M -0.140625 0 
L 27.34375 71.578125 
L 37.546875 71.578125 
L 66.84375 0 
L 56.0625 0 
L 47.703125 21.6875 
L 17.78125 21.6875 
L 9.90625 0 
z
M 20.515625 29.390625 
L 44.78125 29.390625 
L 37.3125 49.21875 
Q 33.890625 58.25 32.234375 64.0625 
Q 30.859375 57.171875 28.375 50.390625 
z
" id="ArialMT-65"/>
        <path d="M 40.4375 19 
L 49.078125 17.875 
Q 47.65625 8.9375 41.8125 3.875 
Q 35.984375 -1.171875 27.484375 -1.171875 
Q 16.84375 -1.171875 10.375 5.78125 
Q 3.90625 12.75 3.90625 25.734375 
Q 3.90625 34.125 6.6875 40.421875 
Q 9.46875 46.734375 15.15625 49.875 
Q 20.84375 53.03125 27.546875 53.03125 
Q 35.984375 53.03125 41.359375 48.75 
Q 46.734375 44.484375 48.25 36.625 
L 39.703125 35.296875 
Q 38.484375 40.53125 35.375 43.15625 
Q 32.28125 45.796875 27.875 45.796875 
Q 21.234375 45.796875 17.078125 41.03125 
Q 12.9375 36.28125 12.9375 25.984375 
Q 12.9375 15.53125 16.9375 10.796875 
Q 20.953125 6.0625 27.390625 6.0625 
Q 32.5625 6.0625 36.03125 9.234375 
Q 39.5 12.40625 40.4375 19 
z
" id="ArialMT-99"/>
       </defs>
       <use xlink:href="#ArialMT-65"/>
       <use x="66.699219" xlink:href="#ArialMT-99"/>
       <use x="116.699219" xlink:href="#ArialMT-99"/>
      </g>
     </g>
    </g>
    <g id="xtick_2">
     <g id="line2d_2">
      <path clip-path="url(#p5fffbaf2de)" d="M 228.0325 144 
L 303.797577 68.234923 
" style="fill:none;stroke:#cccccc;stroke-linecap:round;stroke-width:0.8;"/>
     </g>
     <g id="text_2">
      <!-- R_inc -->
      <g style="fill:#262626;" transform="translate(297.742999 60.828595)scale(0.132 -0.132)">
       <defs>
        <path d="M 7.859375 0 
L 7.859375 71.578125 
L 39.59375 71.578125 
Q 49.171875 71.578125 54.140625 69.640625 
Q 59.125 67.71875 62.109375 62.828125 
Q 65.09375 57.953125 65.09375 52.046875 
Q 65.09375 44.4375 60.15625 39.203125 
Q 55.21875 33.984375 44.921875 32.5625 
Q 48.6875 30.765625 50.640625 29 
Q 54.78125 25.203125 58.5 19.484375 
L 70.953125 0 
L 59.03125 0 
L 49.5625 14.890625 
Q 45.40625 21.34375 42.71875 24.75 
Q 40.046875 28.171875 37.921875 29.53125 
Q 35.796875 30.90625 33.59375 31.453125 
Q 31.984375 31.78125 28.328125 31.78125 
L 17.328125 31.78125 
L 17.328125 0 
z
M 17.328125 39.984375 
L 37.703125 39.984375 
Q 44.1875 39.984375 47.84375 41.328125 
Q 51.515625 42.671875 53.421875 45.625 
Q 55.328125 48.578125 55.328125 52.046875 
Q 55.328125 57.125 51.640625 60.390625 
Q 47.953125 63.671875 39.984375 63.671875 
L 17.328125 63.671875 
z
" id="ArialMT-82"/>
        <path d="M -1.515625 -19.875 
L -1.515625 -13.53125 
L 56.734375 -13.53125 
L 56.734375 -19.875 
z
" id="ArialMT-95"/>
        <path d="M 6.640625 61.46875 
L 6.640625 71.578125 
L 15.4375 71.578125 
L 15.4375 61.46875 
z
M 6.640625 0 
L 6.640625 51.859375 
L 15.4375 51.859375 
L 15.4375 0 
z
" id="ArialMT-105"/>
        <path d="M 6.59375 0 
L 6.59375 51.859375 
L 14.5 51.859375 
L 14.5 44.484375 
Q 20.21875 53.03125 31 53.03125 
Q 35.6875 53.03125 39.625 51.34375 
Q 43.5625 49.65625 45.515625 46.921875 
Q 47.46875 44.1875 48.25 40.4375 
Q 48.734375 37.984375 48.734375 31.890625 
L 48.734375 0 
L 39.9375 0 
L 39.9375 31.546875 
Q 39.9375 36.921875 38.90625 39.578125 
Q 37.890625 42.234375 35.28125 43.8125 
Q 32.671875 45.40625 29.15625 45.40625 
Q 23.53125 45.40625 19.453125 41.84375 
Q 15.375 38.28125 15.375 28.328125 
L 15.375 0 
z
" id="ArialMT-110"/>
       </defs>
       <use xlink:href="#ArialMT-82"/>
       <use x="72.216797" xlink:href="#ArialMT-95"/>
       <use x="127.832031" xlink:href="#ArialMT-105"/>
       <use x="150.048828" xlink:href="#ArialMT-110"/>
       <use x="205.664062" xlink:href="#ArialMT-99"/>
      </g>
     </g>
    </g>
    <g id="xtick_3">
     <g id="line2d_3">
      <path clip-path="url(#p5fffbaf2de)" d="M 228.0325 144 
L 335.1805 144 
" style="fill:none;stroke:#cccccc;stroke-linecap:round;stroke-width:0.8;"/>
     </g>
     <g id="text_3">
      <!-- R_cor -->
      <g style="fill:#262626;" transform="translate(332.876031 147.412406)scale(0.132 -0.132)">
       <defs>
        <path d="M 3.328125 25.921875 
Q 3.328125 40.328125 11.328125 47.265625 
Q 18.015625 53.03125 27.640625 53.03125 
Q 38.328125 53.03125 45.109375 46.015625 
Q 51.90625 39.015625 51.90625 26.65625 
Q 51.90625 16.65625 48.90625 10.90625 
Q 45.90625 5.171875 40.15625 2 
Q 34.421875 -1.171875 27.640625 -1.171875 
Q 16.75 -1.171875 10.03125 5.8125 
Q 3.328125 12.796875 3.328125 25.921875 
z
M 12.359375 25.921875 
Q 12.359375 15.96875 16.703125 11.015625 
Q 21.046875 6.0625 27.640625 6.0625 
Q 34.1875 6.0625 38.53125 11.03125 
Q 42.875 16.015625 42.875 26.21875 
Q 42.875 35.84375 38.5 40.796875 
Q 34.125 45.75 27.640625 45.75 
Q 21.046875 45.75 16.703125 40.8125 
Q 12.359375 35.890625 12.359375 25.921875 
z
" id="ArialMT-111"/>
        <path d="M 6.5 0 
L 6.5 51.859375 
L 14.40625 51.859375 
L 14.40625 44 
Q 17.4375 49.515625 20 51.265625 
Q 22.5625 53.03125 25.640625 53.03125 
Q 30.078125 53.03125 34.671875 50.203125 
L 31.640625 42.046875 
Q 28.421875 43.953125 25.203125 43.953125 
Q 22.3125 43.953125 20.015625 42.21875 
Q 17.71875 40.484375 16.75 37.40625 
Q 15.28125 32.71875 15.28125 27.15625 
L 15.28125 0 
z
" id="ArialMT-114"/>
       </defs>
       <use xlink:href="#ArialMT-82"/>
       <use x="72.216797" xlink:href="#ArialMT-95"/>
       <use x="127.832031" xlink:href="#ArialMT-99"/>
       <use x="177.832031" xlink:href="#ArialMT-111"/>
       <use x="233.447266" xlink:href="#ArialMT-114"/>
      </g>
     </g>
    </g>
    <g id="xtick_4">
     <g id="line2d_4">
      <path clip-path="url(#p5fffbaf2de)" d="M 228.0325 144 
L 303.797577 219.765077 
" style="fill:none;stroke:#cccccc;stroke-linecap:round;stroke-width:0.8;"/>
     </g>
     <g id="text_4">
      <!-- P_inc -->
      <g style="fill:#262626;" transform="translate(298.10703 233.996217)scale(0.132 -0.132)">
       <defs>
        <path d="M 7.71875 0 
L 7.71875 71.578125 
L 34.71875 71.578125 
Q 41.84375 71.578125 45.609375 70.90625 
Q 50.875 70.015625 54.4375 67.546875 
Q 58.015625 65.09375 60.1875 60.640625 
Q 62.359375 56.203125 62.359375 50.875 
Q 62.359375 41.75 56.546875 35.421875 
Q 50.734375 29.109375 35.546875 29.109375 
L 17.1875 29.109375 
L 17.1875 0 
z
M 17.1875 37.546875 
L 35.6875 37.546875 
Q 44.875 37.546875 48.734375 40.96875 
Q 52.59375 44.390625 52.59375 50.59375 
Q 52.59375 55.078125 50.3125 58.265625 
Q 48.046875 61.46875 44.34375 62.5 
Q 41.9375 63.140625 35.5 63.140625 
L 17.1875 63.140625 
z
" id="ArialMT-80"/>
       </defs>
       <use xlink:href="#ArialMT-80"/>
       <use x="66.699219" xlink:href="#ArialMT-95"/>
       <use x="122.314453" xlink:href="#ArialMT-105"/>
       <use x="144.53125" xlink:href="#ArialMT-110"/>
       <use x="200.146484" xlink:href="#ArialMT-99"/>
      </g>
     </g>
    </g>
    <g id="xtick_5">
     <g id="line2d_5">
      <path clip-path="url(#p5fffbaf2de)" d="M 228.0325 144 
L 228.0325 251.148 
" style="fill:none;stroke:#cccccc;stroke-linecap:round;stroke-width:0.8;"/>
     </g>
     <g id="text_5">
      <!-- P_cor -->
      <g style="fill:#262626;" transform="translate(210.792063 269.860406)scale(0.132 -0.132)">
       <use xlink:href="#ArialMT-80"/>
       <use x="66.699219" xlink:href="#ArialMT-95"/>
       <use x="122.314453" xlink:href="#ArialMT-99"/>
       <use x="172.314453" xlink:href="#ArialMT-111"/>
       <use x="227.929688" xlink:href="#ArialMT-114"/>
      </g>
     </g>
    </g>
    <g id="xtick_6">
     <g id="line2d_6">
      <path clip-path="url(#p5fffbaf2de)" d="M 228.0325 144 
L 152.267423 219.765077 
" style="fill:none;stroke:#cccccc;stroke-linecap:round;stroke-width:0.8;"/>
     </g>
     <g id="text_6">
      <!-- F1_inc -->
      <g style="fill:#262626;" transform="translate(121.640439 234.015811)scale(0.132 -0.132)">
       <defs>
        <path d="M 8.203125 0 
L 8.203125 71.578125 
L 56.5 71.578125 
L 56.5 63.140625 
L 17.671875 63.140625 
L 17.671875 40.96875 
L 51.265625 40.96875 
L 51.265625 32.515625 
L 17.671875 32.515625 
L 17.671875 0 
z
" id="ArialMT-70"/>
        <path d="M 37.25 0 
L 28.46875 0 
L 28.46875 56 
Q 25.296875 52.984375 20.140625 49.953125 
Q 14.984375 46.921875 10.890625 45.40625 
L 10.890625 53.90625 
Q 18.265625 57.375 23.78125 62.296875 
Q 29.296875 67.234375 31.59375 71.875 
L 37.25 71.875 
z
" id="ArialMT-49"/>
       </defs>
       <use xlink:href="#ArialMT-70"/>
       <use x="61.083984" xlink:href="#ArialMT-49"/>
       <use x="116.699219" xlink:href="#ArialMT-95"/>
       <use x="172.314453" xlink:href="#ArialMT-105"/>
       <use x="194.53125" xlink:href="#ArialMT-110"/>
       <use x="250.146484" xlink:href="#ArialMT-99"/>
      </g>
     </g>
    </g>
    <g id="xtick_7">
     <g id="line2d_7">
      <path clip-path="url(#p5fffbaf2de)" d="M 228.0325 144 
L 120.8845 144 
" style="fill:none;stroke:#cccccc;stroke-linecap:round;stroke-width:0.8;"/>
     </g>
     <g id="text_7">
      <!-- F1_cor -->
      <g style="fill:#262626;" transform="translate(85.045094 147.432)scale(0.132 -0.132)">
       <use xlink:href="#ArialMT-70"/>
       <use x="61.083984" xlink:href="#ArialMT-49"/>
       <use x="116.699219" xlink:href="#ArialMT-95"/>
       <use x="172.314453" xlink:href="#ArialMT-99"/>
       <use x="222.314453" xlink:href="#ArialMT-111"/>
       <use x="277.929688" xlink:href="#ArialMT-114"/>
      </g>
     </g>
    </g>
    <g id="xtick_8">
     <g id="line2d_8">
      <path clip-path="url(#p5fffbaf2de)" d="M 228.0325 144 
L 152.267423 68.234923 
" style="fill:none;stroke:#cccccc;stroke-linecap:round;stroke-width:0.8;"/>
     </g>
     <g id="text_8">
      <!-- MCC -->
      <g style="fill:#262626;" transform="translate(126.41822 60.828595)scale(0.132 -0.132)">
       <defs>
        <path d="M 7.421875 0 
L 7.421875 71.578125 
L 21.6875 71.578125 
L 38.625 20.90625 
Q 40.96875 13.8125 42.046875 10.296875 
Q 43.265625 14.203125 45.84375 21.78125 
L 62.984375 71.578125 
L 75.734375 71.578125 
L 75.734375 0 
L 66.609375 0 
L 66.609375 59.90625 
L 45.796875 0 
L 37.25 0 
L 16.546875 60.9375 
L 16.546875 0 
z
" id="ArialMT-77"/>
        <path d="M 58.796875 25.09375 
L 68.265625 22.703125 
Q 65.28125 11.03125 57.546875 4.90625 
Q 49.8125 -1.21875 38.625 -1.21875 
Q 27.046875 -1.21875 19.796875 3.484375 
Q 12.546875 8.203125 8.765625 17.140625 
Q 4.984375 26.078125 4.984375 36.328125 
Q 4.984375 47.515625 9.25 55.828125 
Q 13.53125 64.15625 21.40625 68.46875 
Q 29.296875 72.796875 38.765625 72.796875 
Q 49.515625 72.796875 56.828125 67.328125 
Q 64.15625 61.859375 67.046875 51.953125 
L 57.71875 49.75 
Q 55.21875 57.5625 50.484375 61.125 
Q 45.75 64.703125 38.578125 64.703125 
Q 30.328125 64.703125 24.78125 60.734375 
Q 19.234375 56.78125 16.984375 50.109375 
Q 14.75 43.453125 14.75 36.375 
Q 14.75 27.25 17.40625 20.4375 
Q 20.0625 13.625 25.671875 10.25 
Q 31.296875 6.890625 37.84375 6.890625 
Q 45.796875 6.890625 51.3125 11.46875 
Q 56.84375 16.0625 58.796875 25.09375 
z
" id="ArialMT-67"/>
       </defs>
       <use xlink:href="#ArialMT-77"/>
       <use x="83.300781" xlink:href="#ArialMT-67"/>
       <use x="155.517578" xlink:href="#ArialMT-67"/>
      </g>
     </g>
    </g>
   </g>
   <g id="matplotlib.axis_2">
    <g id="ytick_1">
     <g id="line2d_9">
      <path clip-path="url(#p5fffbaf2de)" d="M 228.0325 144 
C 228.0325 144 228.0325 144 228.0325 144 
C 228.0325 144 228.0325 144 228.0325 144 
C 228.0325 144 228.0325 144 228.0325 144 
C 228.0325 144 228.0325 144 228.0325 144 
C 228.0325 144 228.0325 144 228.0325 144 
C 228.0325 144 228.0325 144 228.0325 144 
C 228.0325 144 228.0325 144 228.0325 144 
C 228.0325 144 228.0325 144 228.0325 144 
C 228.0325 144 228.0325 144 228.0325 144 
C 228.0325 144 228.0325 144 228.0325 144 
C 228.0325 144 228.0325 144 228.0325 144 
C 228.0325 144 228.0325 144 228.0325 144 
C 228.0325 144 228.0325 144 228.0325 144 
C 228.0325 144 228.0325 144 228.0325 144 
C 228.0325 144 228.0325 144 228.0325 144 
C 228.0325 144 228.0325 144 228.0325 144 
" style="fill:none;stroke:#cccccc;stroke-linecap:round;stroke-width:0.8;"/>
     </g>
     <g id="text_9">
      <!-- 0 -->
      <g style="fill:#808080;" transform="translate(228.0325 142.0125)scale(0.1 -0.1)">
       <defs>
        <path d="M 4.15625 35.296875 
Q 4.15625 48 6.765625 55.734375 
Q 9.375 63.484375 14.515625 67.671875 
Q 19.671875 71.875 27.484375 71.875 
Q 33.25 71.875 37.59375 69.546875 
Q 41.9375 67.234375 44.765625 62.859375 
Q 47.609375 58.5 49.21875 52.21875 
Q 50.828125 45.953125 50.828125 35.296875 
Q 50.828125 22.703125 48.234375 14.96875 
Q 45.65625 7.234375 40.5 3 
Q 35.359375 -1.21875 27.484375 -1.21875 
Q 17.140625 -1.21875 11.234375 6.203125 
Q 4.15625 15.140625 4.15625 35.296875 
z
M 13.1875 35.296875 
Q 13.1875 17.671875 17.3125 11.828125 
Q 21.4375 6 27.484375 6 
Q 33.546875 6 37.671875 11.859375 
Q 41.796875 17.71875 41.796875 35.296875 
Q 41.796875 52.984375 37.671875 58.78125 
Q 33.546875 64.59375 27.390625 64.59375 
Q 21.34375 64.59375 17.71875 59.46875 
Q 13.1875 52.9375 13.1875 35.296875 
z
" id="ArialMT-48"/>
       </defs>
       <use xlink:href="#ArialMT-48"/>
      </g>
     </g>
    </g>
    <g id="ytick_2">
     <g id="line2d_10">
      <path clip-path="url(#p5fffbaf2de)" d="M 228.0325 122.5704 
C 230.846609 122.5704 233.633355 123.124718 236.233253 124.201631 
C 238.833151 125.278544 241.19564 126.857109 243.185515 128.846985 
C 245.175391 130.83686 246.753956 133.199349 247.830869 135.799247 
C 248.907782 138.399145 249.4621 141.185891 249.4621 144 
C 249.4621 146.814109 248.907782 149.600855 247.830869 152.200753 
C 246.753956 154.800651 245.175391 157.16314 243.185515 159.153015 
C 241.19564 161.142891 238.833151 162.721456 236.233253 163.798369 
C 233.633355 164.875282 230.846609 165.4296 228.0325 165.4296 
C 225.218391 165.4296 222.431645 164.875282 219.831747 163.798369 
C 217.231849 162.721456 214.86936 161.142891 212.879485 159.153015 
C 210.889609 157.16314 209.311044 154.800651 208.234131 152.200753 
C 207.157218 149.600855 206.6029 146.814109 206.6029 144 
C 206.6029 141.185891 207.157218 138.399145 208.234131 135.799247 
C 209.311044 133.199349 210.889609 130.83686 212.879485 128.846985 
C 214.86936 126.857109 217.231849 125.278544 219.831747 124.201631 
C 222.431645 123.124718 225.218391 122.5704 228.0325 122.5704 
" style="fill:none;stroke:#cccccc;stroke-linecap:round;stroke-width:0.8;"/>
     </g>
     <g id="text_10">
      <!-- 0.2 -->
      <g style="fill:#808080;" transform="translate(228.0325 120.5829)scale(0.1 -0.1)">
       <defs>
        <path d="M 9.078125 0 
L 9.078125 10.015625 
L 19.09375 10.015625 
L 19.09375 0 
z
" id="ArialMT-46"/>
        <path d="M 50.34375 8.453125 
L 50.34375 0 
L 3.03125 0 
Q 2.9375 3.171875 4.046875 6.109375 
Q 5.859375 10.9375 9.828125 15.625 
Q 13.8125 20.3125 21.34375 26.46875 
Q 33.015625 36.03125 37.109375 41.625 
Q 41.21875 47.21875 41.21875 52.203125 
Q 41.21875 57.421875 37.46875 61 
Q 33.734375 64.59375 27.734375 64.59375 
Q 21.390625 64.59375 17.578125 60.78125 
Q 13.765625 56.984375 13.71875 50.25 
L 4.6875 51.171875 
Q 5.609375 61.28125 11.65625 66.578125 
Q 17.71875 71.875 27.9375 71.875 
Q 38.234375 71.875 44.234375 66.15625 
Q 50.25 60.453125 50.25 52 
Q 50.25 47.703125 48.484375 43.546875 
Q 46.734375 39.40625 42.65625 34.8125 
Q 38.578125 30.21875 29.109375 22.21875 
Q 21.1875 15.578125 18.9375 13.203125 
Q 16.703125 10.84375 15.234375 8.453125 
z
" id="ArialMT-50"/>
       </defs>
       <use xlink:href="#ArialMT-48"/>
       <use x="55.615234" xlink:href="#ArialMT-46"/>
       <use x="83.398438" xlink:href="#ArialMT-50"/>
      </g>
     </g>
    </g>
    <g id="ytick_3">
     <g id="line2d_11">
      <path clip-path="url(#p5fffbaf2de)" d="M 228.0325 101.1408 
C 233.660719 101.1408 239.23421 102.249436 244.434006 104.403262 
C 249.633802 106.557088 254.358779 109.714218 258.338531 113.693969 
C 262.318282 117.673721 265.475412 122.398698 267.629238 127.598494 
C 269.783064 132.79829 270.8917 138.371781 270.8917 144 
C 270.8917 149.628219 269.783064 155.20171 267.629238 160.401506 
C 265.475412 165.601302 262.318282 170.326279 258.338531 174.306031 
C 254.358779 178.285782 249.633802 181.442912 244.434006 183.596738 
C 239.23421 185.750564 233.660719 186.8592 228.0325 186.8592 
C 222.404281 186.8592 216.83079 185.750564 211.630994 183.596738 
C 206.431198 181.442912 201.706221 178.285782 197.726469 174.306031 
C 193.746718 170.326279 190.589588 165.601302 188.435762 160.401506 
C 186.281936 155.20171 185.1733 149.628219 185.1733 144 
C 185.1733 138.371781 186.281936 132.79829 188.435762 127.598494 
C 190.589588 122.398698 193.746718 117.673721 197.726469 113.693969 
C 201.706221 109.714218 206.431198 106.557088 211.630994 104.403262 
C 216.83079 102.249436 222.404281 101.1408 228.0325 101.1408 
" style="fill:none;stroke:#cccccc;stroke-linecap:round;stroke-width:0.8;"/>
     </g>
     <g id="text_11">
      <!-- 0.4 -->
      <g style="fill:#808080;" transform="translate(228.0325 99.1533)scale(0.1 -0.1)">
       <defs>
        <path d="M 32.328125 0 
L 32.328125 17.140625 
L 1.265625 17.140625 
L 1.265625 25.203125 
L 33.9375 71.578125 
L 41.109375 71.578125 
L 41.109375 25.203125 
L 50.78125 25.203125 
L 50.78125 17.140625 
L 41.109375 17.140625 
L 41.109375 0 
z
M 32.328125 25.203125 
L 32.328125 57.46875 
L 9.90625 25.203125 
z
" id="ArialMT-52"/>
       </defs>
       <use xlink:href="#ArialMT-48"/>
       <use x="55.615234" xlink:href="#ArialMT-46"/>
       <use x="83.398438" xlink:href="#ArialMT-52"/>
      </g>
     </g>
    </g>
    <g id="ytick_4">
     <g id="line2d_12">
      <path clip-path="url(#p5fffbaf2de)" d="M 228.0325 79.7112 
C 236.474828 79.7112 244.835065 81.374155 252.634759 84.604894 
C 260.434453 87.835633 267.521919 92.571326 273.491546 98.540954 
C 279.461174 104.510581 284.196867 111.598047 287.427606 119.397741 
C 290.658345 127.197435 292.3213 135.557672 292.3213 144 
C 292.3213 152.442328 290.658345 160.802565 287.427606 168.602259 
C 284.196867 176.401953 279.461174 183.489419 273.491546 189.459046 
C 267.521919 195.428674 260.434453 200.164367 252.634759 203.395106 
C 244.835065 206.625845 236.474828 208.2888 228.0325 208.2888 
C 219.590172 208.2888 211.229935 206.625845 203.430241 203.395106 
C 195.630547 200.164367 188.543081 195.428674 182.573454 189.459046 
C 176.603826 183.489419 171.868133 176.401953 168.637394 168.602259 
C 165.406655 160.802565 163.7437 152.442328 163.7437 144 
C 163.7437 135.557672 165.406655 127.197435 168.637394 119.397741 
C 171.868133 111.598047 176.603826 104.510581 182.573454 98.540954 
C 188.543081 92.571326 195.630547 87.835633 203.430241 84.604894 
C 211.229935 81.374155 219.590172 79.7112 228.0325 79.7112 
" style="fill:none;stroke:#cccccc;stroke-linecap:round;stroke-width:0.8;"/>
     </g>
     <g id="text_12">
      <!-- 0.6 -->
      <g style="fill:#808080;" transform="translate(228.0325 77.7237)scale(0.1 -0.1)">
       <defs>
        <path d="M 49.75 54.046875 
L 41.015625 53.375 
Q 39.84375 58.546875 37.703125 60.890625 
Q 34.125 64.65625 28.90625 64.65625 
Q 24.703125 64.65625 21.53125 62.3125 
Q 17.390625 59.28125 14.984375 53.46875 
Q 12.59375 47.65625 12.5 36.921875 
Q 15.671875 41.75 20.265625 44.09375 
Q 24.859375 46.4375 29.890625 46.4375 
Q 38.671875 46.4375 44.84375 39.96875 
Q 51.03125 33.5 51.03125 23.25 
Q 51.03125 16.5 48.125 10.71875 
Q 45.21875 4.9375 40.140625 1.859375 
Q 35.0625 -1.21875 28.609375 -1.21875 
Q 17.625 -1.21875 10.6875 6.859375 
Q 3.765625 14.9375 3.765625 33.5 
Q 3.765625 54.25 11.421875 63.671875 
Q 18.109375 71.875 29.4375 71.875 
Q 37.890625 71.875 43.28125 67.140625 
Q 48.6875 62.40625 49.75 54.046875 
z
M 13.875 23.1875 
Q 13.875 18.65625 15.796875 14.5 
Q 17.71875 10.359375 21.1875 8.171875 
Q 24.65625 6 28.46875 6 
Q 34.03125 6 38.03125 10.484375 
Q 42.046875 14.984375 42.046875 22.703125 
Q 42.046875 30.125 38.078125 34.390625 
Q 34.125 38.671875 28.125 38.671875 
Q 22.171875 38.671875 18.015625 34.390625 
Q 13.875 30.125 13.875 23.1875 
z
" id="ArialMT-54"/>
       </defs>
       <use xlink:href="#ArialMT-48"/>
       <use x="55.615234" xlink:href="#ArialMT-46"/>
       <use x="83.398438" xlink:href="#ArialMT-54"/>
      </g>
     </g>
    </g>
    <g id="ytick_5">
     <g id="line2d_13">
      <path clip-path="url(#p5fffbaf2de)" d="M 228.0325 58.2816 
C 239.288937 58.2816 250.43592 60.498873 260.835512 64.806525 
C 271.235103 69.114177 280.685059 75.428435 288.644562 83.387938 
C 296.604065 91.347441 302.918323 100.797397 307.225975 111.196988 
C 311.533627 121.59658 313.7509 132.743563 313.7509 144 
C 313.7509 155.256437 311.533627 166.40342 307.225975 176.803012 
C 302.918323 187.202603 296.604065 196.652559 288.644562 204.612062 
C 280.685059 212.571565 271.235103 218.885823 260.835512 223.193475 
C 250.43592 227.501127 239.288937 229.7184 228.0325 229.7184 
C 216.776063 229.7184 205.62908 227.501127 195.229488 223.193475 
C 184.829897 218.885823 175.379941 212.571565 167.420438 204.612062 
C 159.460935 196.652559 153.146677 187.202603 148.839025 176.803012 
C 144.531373 166.40342 142.3141 155.256437 142.3141 144 
C 142.3141 132.743563 144.531373 121.59658 148.839025 111.196988 
C 153.146677 100.797397 159.460935 91.347441 167.420438 83.387938 
C 175.379941 75.428435 184.829897 69.114177 195.229488 64.806525 
C 205.62908 60.498873 216.776063 58.2816 228.0325 58.2816 
" style="fill:none;stroke:#cccccc;stroke-linecap:round;stroke-width:0.8;"/>
     </g>
     <g id="text_13">
      <!-- 0.8 -->
      <g style="fill:#808080;" transform="translate(228.0325 56.2941)scale(0.1 -0.1)">
       <defs>
        <path d="M 17.671875 38.8125 
Q 12.203125 40.828125 9.5625 44.53125 
Q 6.9375 48.25 6.9375 53.421875 
Q 6.9375 61.234375 12.546875 66.546875 
Q 18.171875 71.875 27.484375 71.875 
Q 36.859375 71.875 42.578125 66.421875 
Q 48.296875 60.984375 48.296875 53.171875 
Q 48.296875 48.1875 45.671875 44.5 
Q 43.0625 40.828125 37.75 38.8125 
Q 44.34375 36.671875 47.78125 31.875 
Q 51.21875 27.09375 51.21875 20.453125 
Q 51.21875 11.28125 44.71875 5.03125 
Q 38.234375 -1.21875 27.640625 -1.21875 
Q 17.046875 -1.21875 10.546875 5.046875 
Q 4.046875 11.328125 4.046875 20.703125 
Q 4.046875 27.6875 7.59375 32.390625 
Q 11.140625 37.109375 17.671875 38.8125 
z
M 15.921875 53.71875 
Q 15.921875 48.640625 19.1875 45.40625 
Q 22.46875 42.1875 27.6875 42.1875 
Q 32.765625 42.1875 36.015625 45.375 
Q 39.265625 48.578125 39.265625 53.21875 
Q 39.265625 58.0625 35.90625 61.359375 
Q 32.5625 64.65625 27.59375 64.65625 
Q 22.5625 64.65625 19.234375 61.421875 
Q 15.921875 58.203125 15.921875 53.71875 
z
M 13.09375 20.65625 
Q 13.09375 16.890625 14.875 13.375 
Q 16.65625 9.859375 20.171875 7.921875 
Q 23.6875 6 27.734375 6 
Q 34.03125 6 38.125 10.046875 
Q 42.234375 14.109375 42.234375 20.359375 
Q 42.234375 26.703125 38.015625 30.859375 
Q 33.796875 35.015625 27.4375 35.015625 
Q 21.234375 35.015625 17.15625 30.90625 
Q 13.09375 26.8125 13.09375 20.65625 
z
" id="ArialMT-56"/>
       </defs>
       <use xlink:href="#ArialMT-48"/>
       <use x="55.615234" xlink:href="#ArialMT-46"/>
       <use x="83.398438" xlink:href="#ArialMT-56"/>
      </g>
     </g>
    </g>
    <g id="ytick_6">
     <g id="line2d_14">
      <path clip-path="url(#p5fffbaf2de)" d="M 228.0325 36.852 
C 242.103046 36.852 256.036775 39.623591 269.036264 45.008156 
C 282.035754 50.392721 293.848199 58.285544 303.797577 68.234923 
C 313.746956 78.184301 321.639779 89.996746 327.024344 102.996236 
C 332.408909 115.995725 335.1805 129.929454 335.1805 144 
C 335.1805 158.070546 332.408909 172.004275 327.024344 185.003764 
C 321.639779 198.003254 313.746956 209.815699 303.797577 219.765077 
C 293.848199 229.714456 282.035754 237.607279 269.036264 242.991844 
C 256.036775 248.376409 242.103046 251.148 228.0325 251.148 
C 213.961954 251.148 200.028225 248.376409 187.028736 242.991844 
C 174.029246 237.607279 162.216801 229.714456 152.267423 219.765077 
C 142.318044 209.815699 134.425221 198.003254 129.040656 185.003764 
C 123.656091 172.004275 120.8845 158.070546 120.8845 144 
C 120.8845 129.929454 123.656091 115.995725 129.040656 102.996236 
C 134.425221 89.996746 142.318044 78.184301 152.267423 68.234923 
C 162.216801 58.285544 174.029246 50.392721 187.028736 45.008156 
C 200.028225 39.623591 213.961954 36.852 228.0325 36.852 
" style="fill:none;stroke:#cccccc;stroke-linecap:round;stroke-width:0.8;"/>
     </g>
     <g id="text_14">
      <!-- 1.0 -->
      <g style="fill:#808080;" transform="translate(228.0325 34.8645)scale(0.1 -0.1)">
       <use xlink:href="#ArialMT-49"/>
       <use x="55.615234" xlink:href="#ArialMT-46"/>
       <use x="83.398438" xlink:href="#ArialMT-48"/>
      </g>
     </g>
    </g>
   </g>
   <g id="line2d_15">
    <path clip-path="url(#p5fffbaf2de)" d="M 228.0325 56.095781 
L 294.425437 77.607063 
L 309.947146 144 
L 287.750534 203.718034 
L 228.0325 236.232998 
L 165.155062 206.877438 
L 141.26405 144 
L 179.171602 95.139102 
L 228.0325 56.095781 
" style="fill:none;stroke:#4c72b0;stroke-linecap:round;stroke-width:2;"/>
   </g>
   <g id="line2d_16">
    <path clip-path="url(#p5fffbaf2de)" d="M 228.0325 56.492228 
L 289.114305 82.918195 
L 316.67604 144 
L 290.432618 206.400118 
L 228.0325 230.81131 
L 166.299115 205.733385 
L 140.321147 144 
L 180.027747 95.995247 
L 228.0325 56.492228 
" style="fill:none;stroke:#ffd700;stroke-linecap:round;stroke-width:2;"/>
   </g>
   <g id="line2d_17">
    <path clip-path="url(#p5fffbaf2de)" d="M 228.0325 67.207028 
L 279.99219 92.04031 
L 308.14706 144 
L 283.416772 199.384272 
L 228.0325 219.442907 
L 174.413555 197.618945 
L 150.32877 144 
L 195.127727 111.095227 
L 228.0325 67.207028 
" style="fill:none;stroke:#55a868;stroke-linecap:round;stroke-width:2;"/>
   </g>
   <g id="patch_3">
    <path d="M 228.0325 36.852 
C 213.961954 36.852 200.028225 39.623591 187.028736 45.008156 
C 174.029246 50.392721 162.216801 58.285544 152.267423 68.234923 
C 142.318044 78.184301 134.425221 89.996746 129.040656 102.996236 
C 123.656091 115.995725 120.8845 129.929454 120.8845 144 
C 120.8845 158.070546 123.656091 172.004275 129.040656 185.003764 
C 134.425221 198.003254 142.318044 209.815699 152.267423 219.765077 
C 162.216801 229.714456 174.029246 237.607279 187.028736 242.991844 
C 200.028225 248.376409 213.961954 251.148 228.0325 251.148 
C 242.103046 251.148 256.036775 248.376409 269.036264 242.991844 
C 282.035754 237.607279 293.848199 229.714456 303.797577 219.765077 
C 313.746956 209.815699 321.639779 198.003254 327.024344 185.003764 
C 332.408909 172.004275 335.1805 158.070546 335.1805 144 
C 335.1805 129.929454 332.408909 115.995725 327.024344 102.996236 
C 321.639779 89.996746 313.746956 78.184301 303.797577 68.234923 
C 293.848199 58.285544 282.035754 50.392721 269.036264 45.008156 
C 256.036775 39.623591 242.103046 36.852 228.0325 36.852 
" style="fill:none;stroke:#cccccc;stroke-linecap:square;stroke-linejoin:miter;"/>
   </g>
   <g id="legend_1">
    <g id="patch_4">
     <path d="M 40.799688 103.427438 
L 111.6445 103.427438 
Q 114.2845 103.427438 114.2845 100.787438 
L 114.2845 46.092 
Q 114.2845 43.452 111.6445 43.452 
L 40.799688 43.452 
Q 38.159688 43.452 38.159688 46.092 
L 38.159688 100.787438 
Q 38.159688 103.427438 40.799688 103.427438 
z
" style="fill:#ffffff;opacity:0.8;stroke:#cccccc;stroke-linejoin:miter;stroke-width:0.8;"/>
    </g>
    <g id="line2d_18">
     <path d="M 43.439688 53.560313 
L 69.839688 53.560313 
" style="fill:none;stroke:#4c72b0;stroke-linecap:round;stroke-width:2;"/>
    </g>
    <g id="line2d_19"/>
    <g id="text_15">
     <!-- RF -->
     <g style="fill:#262626;" transform="translate(80.399688 58.180313)scale(0.132 -0.132)">
      <use xlink:href="#ArialMT-82"/>
      <use x="72.216797" xlink:href="#ArialMT-70"/>
     </g>
    </g>
    <g id="line2d_20">
     <path d="M 43.439688 72.232125 
L 69.839688 72.232125 
" style="fill:none;stroke:#ffd700;stroke-linecap:round;stroke-width:2;"/>
    </g>
    <g id="line2d_21"/>
    <g id="text_16">
     <!-- PRC -->
     <g style="fill:#262626;" transform="translate(80.399688 76.852125)scale(0.132 -0.132)">
      <use xlink:href="#ArialMT-80"/>
      <use x="66.699219" xlink:href="#ArialMT-82"/>
      <use x="138.916016" xlink:href="#ArialMT-67"/>
     </g>
    </g>
    <g id="line2d_22">
     <path d="M 43.439688 90.903938 
L 69.839688 90.903938 
" style="fill:none;stroke:#55a868;stroke-linecap:round;stroke-width:2;"/>
    </g>
    <g id="line2d_23"/>
    <g id="text_17">
     <!-- SVM -->
     <g style="fill:#262626;" transform="translate(80.399688 95.523938)scale(0.132 -0.132)">
      <defs>
       <path d="M 4.5 23 
L 13.421875 23.78125 
Q 14.0625 18.40625 16.375 14.96875 
Q 18.703125 11.53125 23.578125 9.40625 
Q 28.46875 7.28125 34.578125 7.28125 
Q 39.984375 7.28125 44.140625 8.890625 
Q 48.296875 10.5 50.3125 13.296875 
Q 52.34375 16.109375 52.34375 19.4375 
Q 52.34375 22.796875 50.390625 25.3125 
Q 48.4375 27.828125 43.953125 29.546875 
Q 41.0625 30.671875 31.203125 33.03125 
Q 21.34375 35.40625 17.390625 37.5 
Q 12.25 40.1875 9.734375 44.15625 
Q 7.234375 48.140625 7.234375 53.078125 
Q 7.234375 58.5 10.296875 63.203125 
Q 13.375 67.921875 19.28125 70.359375 
Q 25.203125 72.796875 32.421875 72.796875 
Q 40.375 72.796875 46.453125 70.234375 
Q 52.546875 67.671875 55.8125 62.6875 
Q 59.078125 57.71875 59.328125 51.421875 
L 50.25 50.734375 
Q 49.515625 57.515625 45.28125 60.984375 
Q 41.0625 64.453125 32.8125 64.453125 
Q 24.21875 64.453125 20.28125 61.296875 
Q 16.359375 58.15625 16.359375 53.71875 
Q 16.359375 49.859375 19.140625 47.359375 
Q 21.875 44.875 33.421875 42.265625 
Q 44.96875 39.65625 49.265625 37.703125 
Q 55.515625 34.8125 58.484375 30.390625 
Q 61.46875 25.984375 61.46875 20.21875 
Q 61.46875 14.5 58.203125 9.4375 
Q 54.9375 4.390625 48.796875 1.578125 
Q 42.671875 -1.21875 35.015625 -1.21875 
Q 25.296875 -1.21875 18.71875 1.609375 
Q 12.15625 4.4375 8.421875 10.125 
Q 4.6875 15.828125 4.5 23 
z
" id="ArialMT-83"/>
       <path d="M 28.171875 0 
L 0.4375 71.578125 
L 10.6875 71.578125 
L 29.296875 19.578125 
Q 31.546875 13.328125 33.0625 7.859375 
Q 34.71875 13.71875 36.921875 19.578125 
L 56.25 71.578125 
L 65.921875 71.578125 
L 37.890625 0 
z
" id="ArialMT-86"/>
      </defs>
      <use xlink:href="#ArialMT-83"/>
      <use x="66.699219" xlink:href="#ArialMT-86"/>
      <use x="133.398438" xlink:href="#ArialMT-77"/>
     </g>
    </g>
   </g>
  </g>
 </g>
 <defs>
  <clipPath id="p5fffbaf2de">
   <path d="M 335.1805 144 
C 335.1805 129.929454 332.408909 115.995725 327.024344 102.996236 
C 321.639779 89.996746 313.746956 78.184301 303.797577 68.234923 
C 293.848199 58.285544 282.035754 50.392721 269.036264 45.008156 
C 256.036775 39.623591 242.103046 36.852 228.0325 36.852 
C 213.961954 36.852 200.028225 39.623591 187.028736 45.008156 
C 174.029246 50.392721 162.216801 58.285544 152.267423 68.234923 
C 142.318044 78.184301 134.425221 89.996746 129.040656 102.996236 
C 123.656091 115.995725 120.8845 129.929454 120.8845 144 
C 120.8845 158.070546 123.656091 172.004275 129.040656 185.003764 
C 134.425221 198.003254 142.318044 209.815699 152.267423 219.765077 
C 162.216801 229.714456 174.029246 237.607279 187.028736 242.991844 
C 200.028225 248.376409 213.961954 251.148 228.0325 251.148 
C 242.103046 251.148 256.036775 248.376409 269.036264 242.991844 
C 282.035754 237.607279 293.848199 229.714456 303.797577 219.765077 
C 313.746956 209.815699 321.639779 198.003254 327.024344 185.003764 
C 332.408909 172.004275 335.1805 158.070546 335.1805 144 
M 228.0325 144 
C 228.0325 144 228.0325 144 228.0325 144 
C 228.0325 144 228.0325 144 228.0325 144 
C 228.0325 144 228.0325 144 228.0325 144 
C 228.0325 144 228.0325 144 228.0325 144 
C 228.0325 144 228.0325 144 228.0325 144 
C 228.0325 144 228.0325 144 228.0325 144 
C 228.0325 144 228.0325 144 228.0325 144 
C 228.0325 144 228.0325 144 228.0325 144 
C 228.0325 144 228.0325 144 228.0325 144 
C 228.0325 144 228.0325 144 228.0325 144 
C 228.0325 144 228.0325 144 228.0325 144 
C 228.0325 144 228.0325 144 228.0325 144 
C 228.0325 144 228.0325 144 228.0325 144 
C 228.0325 144 228.0325 144 228.0325 144 
C 228.0325 144 228.0325 144 228.0325 144 
C 228.0325 144 228.0325 144 228.0325 144 
M 335.1805 144 
z
"/>
  </clipPath>
 </defs>
</svg>
