<?xml version="1.0" encoding="utf-8" standalone="no"?>
<!DOCTYPE svg PUBLIC "-//W3C//DTD SVG 1.1//EN"
  "http://www.w3.org/Graphics/SVG/1.1/DTD/svg11.dtd">
<!-- Created with matplotlib (https://matplotlib.org/) -->
<svg height="288pt" version="1.1" viewBox="0 0 432 288" width="432pt" xmlns="http://www.w3.org/2000/svg" xmlns:xlink="http://www.w3.org/1999/xlink">
 <metadata>
  <rdf:RDF xmlns:cc="http://creativecommons.org/ns#" xmlns:dc="http://purl.org/dc/elements/1.1/" xmlns:rdf="http://www.w3.org/1999/02/22-rdf-syntax-ns#">
   <cc:Work>
    <dc:type rdf:resource="http://purl.org/dc/dcmitype/StillImage"/>
    <dc:date>2021-11-01T13:02:48.343976</dc:date>
    <dc:format>image/svg+xml</dc:format>
    <dc:creator>
     <cc:Agent>
      <dc:title>Matplotlib v3.3.2, https://matplotlib.org/</dc:title>
     </cc:Agent>
    </dc:creator>
   </cc:Work>
  </rdf:RDF>
 </metadata>
 <defs>
  <style type="text/css">*{stroke-linecap:butt;stroke-linejoin:round;}</style>
 </defs>
 <g id="figure_1">
  <g id="patch_1">
   <path d="M 0 288 
L 432 288 
L 432 0 
L 0 0 
z
" style="fill:none;"/>
  </g>
  <g id="axes_1">
   <g id="patch_2">
    <path d="M 385.3055 144 
C 385.3055 129.929454 382.533909 115.995725 377.149344 102.996236 
C 371.764779 89.996746 363.871956 78.184301 353.922577 68.234923 
C 343.973199 58.285544 332.160754 50.392721 319.161264 45.008156 
C 306.161775 39.623591 292.228046 36.852 278.1575 36.852 
C 264.086954 36.852 250.153225 39.623591 237.153736 45.008156 
C 224.154246 50.392721 212.341801 58.285544 202.392423 68.234923 
C 192.443044 78.184301 184.550221 89.996746 179.165656 102.996236 
C 173.781091 115.995725 171.0095 129.929454 171.0095 144 
C 171.0095 158.070546 173.781091 172.004275 179.165656 185.003764 
C 184.550221 198.003254 192.443044 209.815699 202.392423 219.765077 
C 212.341801 229.714456 224.154246 237.607279 237.153736 242.991844 
C 250.153225 248.376409 264.086954 251.148 278.1575 251.148 
C 292.228046 251.148 306.161775 248.376409 319.161264 242.991844 
C 332.160754 237.607279 343.973199 229.714456 353.922577 219.765077 
C 363.871956 209.815699 371.764779 198.003254 377.149344 185.003764 
C 382.533909 172.004275 385.3055 158.070546 385.3055 144 
M 278.1575 144 
C 278.1575 144 278.1575 144 278.1575 144 
C 278.1575 144 278.1575 144 278.1575 144 
C 278.1575 144 278.1575 144 278.1575 144 
C 278.1575 144 278.1575 144 278.1575 144 
C 278.1575 144 278.1575 144 278.1575 144 
C 278.1575 144 278.1575 144 278.1575 144 
C 278.1575 144 278.1575 144 278.1575 144 
C 278.1575 144 278.1575 144 278.1575 144 
C 278.1575 144 278.1575 144 278.1575 144 
C 278.1575 144 278.1575 144 278.1575 144 
C 278.1575 144 278.1575 144 278.1575 144 
C 278.1575 144 278.1575 144 278.1575 144 
C 278.1575 144 278.1575 144 278.1575 144 
C 278.1575 144 278.1575 144 278.1575 144 
C 278.1575 144 278.1575 144 278.1575 144 
C 278.1575 144 278.1575 144 278.1575 144 
M 385.3055 144 
z
" style="fill:none;"/>
   </g>
   <g id="matplotlib.axis_1">
    <g id="xtick_1">
     <g id="line2d_1">
      <path clip-path="url(#p59825a039a)" d="M 278.1575 144 
L 278.1575 36.852 
" style="fill:none;stroke:#cccccc;stroke-linecap:round;stroke-width:0.8;"/>
     </g>
     <g id="text_1">
      <!-- Acc -->
      <g style="fill:#262626;" transform="translate(267.155094 24.964406)scale(0.132 -0.132)">
       <defs>
        <path d="M -0.140625 0 
L 27.34375 71.578125 
L 37.546875 71.578125 
L 66.84375 0 
L 56.0625 0 
L 47.703125 21.6875 
L 17.78125 21.6875 
L 9.90625 0 
z
M 20.515625 29.390625 
L 44.78125 29.390625 
L 37.3125 49.21875 
Q 33.890625 58.25 32.234375 64.0625 
Q 30.859375 57.171875 28.375 50.390625 
z
" id="ArialMT-65"/>
        <path d="M 40.4375 19 
L 49.078125 17.875 
Q 47.65625 8.9375 41.8125 3.875 
Q 35.984375 -1.171875 27.484375 -1.171875 
Q 16.84375 -1.171875 10.375 5.78125 
Q 3.90625 12.75 3.90625 25.734375 
Q 3.90625 34.125 6.6875 40.421875 
Q 9.46875 46.734375 15.15625 49.875 
Q 20.84375 53.03125 27.546875 53.03125 
Q 35.984375 53.03125 41.359375 48.75 
Q 46.734375 44.484375 48.25 36.625 
L 39.703125 35.296875 
Q 38.484375 40.53125 35.375 43.15625 
Q 32.28125 45.796875 27.875 45.796875 
Q 21.234375 45.796875 17.078125 41.03125 
Q 12.9375 36.28125 12.9375 25.984375 
Q 12.9375 15.53125 16.9375 10.796875 
Q 20.953125 6.0625 27.390625 6.0625 
Q 32.5625 6.0625 36.03125 9.234375 
Q 39.5 12.40625 40.4375 19 
z
" id="ArialMT-99"/>
       </defs>
       <use xlink:href="#ArialMT-65"/>
       <use x="66.699219" xlink:href="#ArialMT-99"/>
       <use x="116.699219" xlink:href="#ArialMT-99"/>
      </g>
     </g>
    </g>
    <g id="xtick_2">
     <g id="line2d_2">
      <path clip-path="url(#p59825a039a)" d="M 278.1575 144 
L 353.922577 68.234923 
" style="fill:none;stroke:#cccccc;stroke-linecap:round;stroke-width:0.8;"/>
     </g>
     <g id="text_2">
      <!-- R_inc -->
      <g style="fill:#262626;" transform="translate(347.867999 60.828595)scale(0.132 -0.132)">
       <defs>
        <path d="M 7.859375 0 
L 7.859375 71.578125 
L 39.59375 71.578125 
Q 49.171875 71.578125 54.140625 69.640625 
Q 59.125 67.71875 62.109375 62.828125 
Q 65.09375 57.953125 65.09375 52.046875 
Q 65.09375 44.4375 60.15625 39.203125 
Q 55.21875 33.984375 44.921875 32.5625 
Q 48.6875 30.765625 50.640625 29 
Q 54.78125 25.203125 58.5 19.484375 
L 70.953125 0 
L 59.03125 0 
L 49.5625 14.890625 
Q 45.40625 21.34375 42.71875 24.75 
Q 40.046875 28.171875 37.921875 29.53125 
Q 35.796875 30.90625 33.59375 31.453125 
Q 31.984375 31.78125 28.328125 31.78125 
L 17.328125 31.78125 
L 17.328125 0 
z
M 17.328125 39.984375 
L 37.703125 39.984375 
Q 44.1875 39.984375 47.84375 41.328125 
Q 51.515625 42.671875 53.421875 45.625 
Q 55.328125 48.578125 55.328125 52.046875 
Q 55.328125 57.125 51.640625 60.390625 
Q 47.953125 63.671875 39.984375 63.671875 
L 17.328125 63.671875 
z
" id="ArialMT-82"/>
        <path d="M -1.515625 -19.875 
L -1.515625 -13.53125 
L 56.734375 -13.53125 
L 56.734375 -19.875 
z
" id="ArialMT-95"/>
        <path d="M 6.640625 61.46875 
L 6.640625 71.578125 
L 15.4375 71.578125 
L 15.4375 61.46875 
z
M 6.640625 0 
L 6.640625 51.859375 
L 15.4375 51.859375 
L 15.4375 0 
z
" id="ArialMT-105"/>
        <path d="M 6.59375 0 
L 6.59375 51.859375 
L 14.5 51.859375 
L 14.5 44.484375 
Q 20.21875 53.03125 31 53.03125 
Q 35.6875 53.03125 39.625 51.34375 
Q 43.5625 49.65625 45.515625 46.921875 
Q 47.46875 44.1875 48.25 40.4375 
Q 48.734375 37.984375 48.734375 31.890625 
L 48.734375 0 
L 39.9375 0 
L 39.9375 31.546875 
Q 39.9375 36.921875 38.90625 39.578125 
Q 37.890625 42.234375 35.28125 43.8125 
Q 32.671875 45.40625 29.15625 45.40625 
Q 23.53125 45.40625 19.453125 41.84375 
Q 15.375 38.28125 15.375 28.328125 
L 15.375 0 
z
" id="ArialMT-110"/>
       </defs>
       <use xlink:href="#ArialMT-82"/>
       <use x="72.216797" xlink:href="#ArialMT-95"/>
       <use x="127.832031" xlink:href="#ArialMT-105"/>
       <use x="150.048828" xlink:href="#ArialMT-110"/>
       <use x="205.664062" xlink:href="#ArialMT-99"/>
      </g>
     </g>
    </g>
    <g id="xtick_3">
     <g id="line2d_3">
      <path clip-path="url(#p59825a039a)" d="M 278.1575 144 
L 385.3055 144 
" style="fill:none;stroke:#cccccc;stroke-linecap:round;stroke-width:0.8;"/>
     </g>
     <g id="text_3">
      <!-- R_corr -->
      <g style="fill:#262626;" transform="translate(380.803438 147.412406)scale(0.132 -0.132)">
       <defs>
        <path d="M 3.328125 25.921875 
Q 3.328125 40.328125 11.328125 47.265625 
Q 18.015625 53.03125 27.640625 53.03125 
Q 38.328125 53.03125 45.109375 46.015625 
Q 51.90625 39.015625 51.90625 26.65625 
Q 51.90625 16.65625 48.90625 10.90625 
Q 45.90625 5.171875 40.15625 2 
Q 34.421875 -1.171875 27.640625 -1.171875 
Q 16.75 -1.171875 10.03125 5.8125 
Q 3.328125 12.796875 3.328125 25.921875 
z
M 12.359375 25.921875 
Q 12.359375 15.96875 16.703125 11.015625 
Q 21.046875 6.0625 27.640625 6.0625 
Q 34.1875 6.0625 38.53125 11.03125 
Q 42.875 16.015625 42.875 26.21875 
Q 42.875 35.84375 38.5 40.796875 
Q 34.125 45.75 27.640625 45.75 
Q 21.046875 45.75 16.703125 40.8125 
Q 12.359375 35.890625 12.359375 25.921875 
z
" id="ArialMT-111"/>
        <path d="M 6.5 0 
L 6.5 51.859375 
L 14.40625 51.859375 
L 14.40625 44 
Q 17.4375 49.515625 20 51.265625 
Q 22.5625 53.03125 25.640625 53.03125 
Q 30.078125 53.03125 34.671875 50.203125 
L 31.640625 42.046875 
Q 28.421875 43.953125 25.203125 43.953125 
Q 22.3125 43.953125 20.015625 42.21875 
Q 17.71875 40.484375 16.75 37.40625 
Q 15.28125 32.71875 15.28125 27.15625 
L 15.28125 0 
z
" id="ArialMT-114"/>
       </defs>
       <use xlink:href="#ArialMT-82"/>
       <use x="72.216797" xlink:href="#ArialMT-95"/>
       <use x="127.832031" xlink:href="#ArialMT-99"/>
       <use x="177.832031" xlink:href="#ArialMT-111"/>
       <use x="233.447266" xlink:href="#ArialMT-114"/>
       <use x="266.748047" xlink:href="#ArialMT-114"/>
      </g>
     </g>
    </g>
    <g id="xtick_4">
     <g id="line2d_4">
      <path clip-path="url(#p59825a039a)" d="M 278.1575 144 
L 353.922577 219.765077 
" style="fill:none;stroke:#cccccc;stroke-linecap:round;stroke-width:0.8;"/>
     </g>
     <g id="text_4">
      <!-- P_inc -->
      <g style="fill:#262626;" transform="translate(348.23203 233.996217)scale(0.132 -0.132)">
       <defs>
        <path d="M 7.71875 0 
L 7.71875 71.578125 
L 34.71875 71.578125 
Q 41.84375 71.578125 45.609375 70.90625 
Q 50.875 70.015625 54.4375 67.546875 
Q 58.015625 65.09375 60.1875 60.640625 
Q 62.359375 56.203125 62.359375 50.875 
Q 62.359375 41.75 56.546875 35.421875 
Q 50.734375 29.109375 35.546875 29.109375 
L 17.1875 29.109375 
L 17.1875 0 
z
M 17.1875 37.546875 
L 35.6875 37.546875 
Q 44.875 37.546875 48.734375 40.96875 
Q 52.59375 44.390625 52.59375 50.59375 
Q 52.59375 55.078125 50.3125 58.265625 
Q 48.046875 61.46875 44.34375 62.5 
Q 41.9375 63.140625 35.5 63.140625 
L 17.1875 63.140625 
z
" id="ArialMT-80"/>
       </defs>
       <use xlink:href="#ArialMT-80"/>
       <use x="66.699219" xlink:href="#ArialMT-95"/>
       <use x="122.314453" xlink:href="#ArialMT-105"/>
       <use x="144.53125" xlink:href="#ArialMT-110"/>
       <use x="200.146484" xlink:href="#ArialMT-99"/>
      </g>
     </g>
    </g>
    <g id="xtick_5">
     <g id="line2d_5">
      <path clip-path="url(#p59825a039a)" d="M 278.1575 144 
L 278.1575 251.148 
" style="fill:none;stroke:#cccccc;stroke-linecap:round;stroke-width:0.8;"/>
     </g>
     <g id="text_5">
      <!-- P_corr -->
      <g style="fill:#262626;" transform="translate(258.719469 269.860406)scale(0.132 -0.132)">
       <use xlink:href="#ArialMT-80"/>
       <use x="66.699219" xlink:href="#ArialMT-95"/>
       <use x="122.314453" xlink:href="#ArialMT-99"/>
       <use x="172.314453" xlink:href="#ArialMT-111"/>
       <use x="227.929688" xlink:href="#ArialMT-114"/>
       <use x="261.230469" xlink:href="#ArialMT-114"/>
      </g>
     </g>
    </g>
    <g id="xtick_6">
     <g id="line2d_6">
      <path clip-path="url(#p59825a039a)" d="M 278.1575 144 
L 202.392423 219.765077 
" style="fill:none;stroke:#cccccc;stroke-linecap:round;stroke-width:0.8;"/>
     </g>
     <g id="text_6">
      <!-- F1_inc -->
      <g style="fill:#262626;" transform="translate(171.765439 234.015811)scale(0.132 -0.132)">
       <defs>
        <path d="M 8.203125 0 
L 8.203125 71.578125 
L 56.5 71.578125 
L 56.5 63.140625 
L 17.671875 63.140625 
L 17.671875 40.96875 
L 51.265625 40.96875 
L 51.265625 32.515625 
L 17.671875 32.515625 
L 17.671875 0 
z
" id="ArialMT-70"/>
        <path d="M 37.25 0 
L 28.46875 0 
L 28.46875 56 
Q 25.296875 52.984375 20.140625 49.953125 
Q 14.984375 46.921875 10.890625 45.40625 
L 10.890625 53.90625 
Q 18.265625 57.375 23.78125 62.296875 
Q 29.296875 67.234375 31.59375 71.875 
L 37.25 71.875 
z
" id="ArialMT-49"/>
       </defs>
       <use xlink:href="#ArialMT-70"/>
       <use x="61.083984" xlink:href="#ArialMT-49"/>
       <use x="116.699219" xlink:href="#ArialMT-95"/>
       <use x="172.314453" xlink:href="#ArialMT-105"/>
       <use x="194.53125" xlink:href="#ArialMT-110"/>
       <use x="250.146484" xlink:href="#ArialMT-99"/>
      </g>
     </g>
    </g>
    <g id="xtick_7">
     <g id="line2d_7">
      <path clip-path="url(#p59825a039a)" d="M 278.1575 144 
L 171.0095 144 
" style="fill:none;stroke:#cccccc;stroke-linecap:round;stroke-width:0.8;"/>
     </g>
     <g id="text_7">
      <!-- F1_corr -->
      <g style="fill:#262626;" transform="translate(132.9725 147.432)scale(0.132 -0.132)">
       <use xlink:href="#ArialMT-70"/>
       <use x="61.083984" xlink:href="#ArialMT-49"/>
       <use x="116.699219" xlink:href="#ArialMT-95"/>
       <use x="172.314453" xlink:href="#ArialMT-99"/>
       <use x="222.314453" xlink:href="#ArialMT-111"/>
       <use x="277.929688" xlink:href="#ArialMT-114"/>
       <use x="311.230469" xlink:href="#ArialMT-114"/>
      </g>
     </g>
    </g>
    <g id="xtick_8">
     <g id="line2d_8">
      <path clip-path="url(#p59825a039a)" d="M 278.1575 144 
L 202.392423 68.234923 
" style="fill:none;stroke:#cccccc;stroke-linecap:round;stroke-width:0.8;"/>
     </g>
     <g id="text_8">
      <!-- MCC -->
      <g style="fill:#262626;" transform="translate(176.54322 60.828595)scale(0.132 -0.132)">
       <defs>
        <path d="M 7.421875 0 
L 7.421875 71.578125 
L 21.6875 71.578125 
L 38.625 20.90625 
Q 40.96875 13.8125 42.046875 10.296875 
Q 43.265625 14.203125 45.84375 21.78125 
L 62.984375 71.578125 
L 75.734375 71.578125 
L 75.734375 0 
L 66.609375 0 
L 66.609375 59.90625 
L 45.796875 0 
L 37.25 0 
L 16.546875 60.9375 
L 16.546875 0 
z
" id="ArialMT-77"/>
        <path d="M 58.796875 25.09375 
L 68.265625 22.703125 
Q 65.28125 11.03125 57.546875 4.90625 
Q 49.8125 -1.21875 38.625 -1.21875 
Q 27.046875 -1.21875 19.796875 3.484375 
Q 12.546875 8.203125 8.765625 17.140625 
Q 4.984375 26.078125 4.984375 36.328125 
Q 4.984375 47.515625 9.25 55.828125 
Q 13.53125 64.15625 21.40625 68.46875 
Q 29.296875 72.796875 38.765625 72.796875 
Q 49.515625 72.796875 56.828125 67.328125 
Q 64.15625 61.859375 67.046875 51.953125 
L 57.71875 49.75 
Q 55.21875 57.5625 50.484375 61.125 
Q 45.75 64.703125 38.578125 64.703125 
Q 30.328125 64.703125 24.78125 60.734375 
Q 19.234375 56.78125 16.984375 50.109375 
Q 14.75 43.453125 14.75 36.375 
Q 14.75 27.25 17.40625 20.4375 
Q 20.0625 13.625 25.671875 10.25 
Q 31.296875 6.890625 37.84375 6.890625 
Q 45.796875 6.890625 51.3125 11.46875 
Q 56.84375 16.0625 58.796875 25.09375 
z
" id="ArialMT-67"/>
       </defs>
       <use xlink:href="#ArialMT-77"/>
       <use x="83.300781" xlink:href="#ArialMT-67"/>
       <use x="155.517578" xlink:href="#ArialMT-67"/>
      </g>
     </g>
    </g>
   </g>
   <g id="matplotlib.axis_2">
    <g id="ytick_1">
     <g id="line2d_9">
      <path clip-path="url(#p59825a039a)" d="M 278.1575 144 
C 278.1575 144 278.1575 144 278.1575 144 
C 278.1575 144 278.1575 144 278.1575 144 
C 278.1575 144 278.1575 144 278.1575 144 
C 278.1575 144 278.1575 144 278.1575 144 
C 278.1575 144 278.1575 144 278.1575 144 
C 278.1575 144 278.1575 144 278.1575 144 
C 278.1575 144 278.1575 144 278.1575 144 
C 278.1575 144 278.1575 144 278.1575 144 
C 278.1575 144 278.1575 144 278.1575 144 
C 278.1575 144 278.1575 144 278.1575 144 
C 278.1575 144 278.1575 144 278.1575 144 
C 278.1575 144 278.1575 144 278.1575 144 
C 278.1575 144 278.1575 144 278.1575 144 
C 278.1575 144 278.1575 144 278.1575 144 
C 278.1575 144 278.1575 144 278.1575 144 
C 278.1575 144 278.1575 144 278.1575 144 
" style="fill:none;stroke:#cccccc;stroke-linecap:round;stroke-width:0.8;"/>
     </g>
     <g id="text_9">
      <!-- 0 -->
      <g style="fill:#808080;" transform="translate(278.1575 142.0125)scale(0.1 -0.1)">
       <defs>
        <path d="M 4.15625 35.296875 
Q 4.15625 48 6.765625 55.734375 
Q 9.375 63.484375 14.515625 67.671875 
Q 19.671875 71.875 27.484375 71.875 
Q 33.25 71.875 37.59375 69.546875 
Q 41.9375 67.234375 44.765625 62.859375 
Q 47.609375 58.5 49.21875 52.21875 
Q 50.828125 45.953125 50.828125 35.296875 
Q 50.828125 22.703125 48.234375 14.96875 
Q 45.65625 7.234375 40.5 3 
Q 35.359375 -1.21875 27.484375 -1.21875 
Q 17.140625 -1.21875 11.234375 6.203125 
Q 4.15625 15.140625 4.15625 35.296875 
z
M 13.1875 35.296875 
Q 13.1875 17.671875 17.3125 11.828125 
Q 21.4375 6 27.484375 6 
Q 33.546875 6 37.671875 11.859375 
Q 41.796875 17.71875 41.796875 35.296875 
Q 41.796875 52.984375 37.671875 58.78125 
Q 33.546875 64.59375 27.390625 64.59375 
Q 21.34375 64.59375 17.71875 59.46875 
Q 13.1875 52.9375 13.1875 35.296875 
z
" id="ArialMT-48"/>
       </defs>
       <use xlink:href="#ArialMT-48"/>
      </g>
     </g>
    </g>
    <g id="ytick_2">
     <g id="line2d_10">
      <path clip-path="url(#p59825a039a)" d="M 278.1575 122.5704 
C 280.971609 122.5704 283.758355 123.124718 286.358253 124.201631 
C 288.958151 125.278544 291.32064 126.857109 293.310515 128.846985 
C 295.300391 130.83686 296.878956 133.199349 297.955869 135.799247 
C 299.032782 138.399145 299.5871 141.185891 299.5871 144 
C 299.5871 146.814109 299.032782 149.600855 297.955869 152.200753 
C 296.878956 154.800651 295.300391 157.16314 293.310515 159.153015 
C 291.32064 161.142891 288.958151 162.721456 286.358253 163.798369 
C 283.758355 164.875282 280.971609 165.4296 278.1575 165.4296 
C 275.343391 165.4296 272.556645 164.875282 269.956747 163.798369 
C 267.356849 162.721456 264.99436 161.142891 263.004485 159.153015 
C 261.014609 157.16314 259.436044 154.800651 258.359131 152.200753 
C 257.282218 149.600855 256.7279 146.814109 256.7279 144 
C 256.7279 141.185891 257.282218 138.399145 258.359131 135.799247 
C 259.436044 133.199349 261.014609 130.83686 263.004485 128.846985 
C 264.99436 126.857109 267.356849 125.278544 269.956747 124.201631 
C 272.556645 123.124718 275.343391 122.5704 278.1575 122.5704 
" style="fill:none;stroke:#cccccc;stroke-linecap:round;stroke-width:0.8;"/>
     </g>
     <g id="text_10">
      <!-- 0.2 -->
      <g style="fill:#808080;" transform="translate(278.1575 120.5829)scale(0.1 -0.1)">
       <defs>
        <path d="M 9.078125 0 
L 9.078125 10.015625 
L 19.09375 10.015625 
L 19.09375 0 
z
" id="ArialMT-46"/>
        <path d="M 50.34375 8.453125 
L 50.34375 0 
L 3.03125 0 
Q 2.9375 3.171875 4.046875 6.109375 
Q 5.859375 10.9375 9.828125 15.625 
Q 13.8125 20.3125 21.34375 26.46875 
Q 33.015625 36.03125 37.109375 41.625 
Q 41.21875 47.21875 41.21875 52.203125 
Q 41.21875 57.421875 37.46875 61 
Q 33.734375 64.59375 27.734375 64.59375 
Q 21.390625 64.59375 17.578125 60.78125 
Q 13.765625 56.984375 13.71875 50.25 
L 4.6875 51.171875 
Q 5.609375 61.28125 11.65625 66.578125 
Q 17.71875 71.875 27.9375 71.875 
Q 38.234375 71.875 44.234375 66.15625 
Q 50.25 60.453125 50.25 52 
Q 50.25 47.703125 48.484375 43.546875 
Q 46.734375 39.40625 42.65625 34.8125 
Q 38.578125 30.21875 29.109375 22.21875 
Q 21.1875 15.578125 18.9375 13.203125 
Q 16.703125 10.84375 15.234375 8.453125 
z
" id="ArialMT-50"/>
       </defs>
       <use xlink:href="#ArialMT-48"/>
       <use x="55.615234" xlink:href="#ArialMT-46"/>
       <use x="83.398438" xlink:href="#ArialMT-50"/>
      </g>
     </g>
    </g>
    <g id="ytick_3">
     <g id="line2d_11">
      <path clip-path="url(#p59825a039a)" d="M 278.1575 101.1408 
C 283.785719 101.1408 289.35921 102.249436 294.559006 104.403262 
C 299.758802 106.557088 304.483779 109.714218 308.463531 113.693969 
C 312.443282 117.673721 315.600412 122.398698 317.754238 127.598494 
C 319.908064 132.79829 321.0167 138.371781 321.0167 144 
C 321.0167 149.628219 319.908064 155.20171 317.754238 160.401506 
C 315.600412 165.601302 312.443282 170.326279 308.463531 174.306031 
C 304.483779 178.285782 299.758802 181.442912 294.559006 183.596738 
C 289.35921 185.750564 283.785719 186.8592 278.1575 186.8592 
C 272.529281 186.8592 266.95579 185.750564 261.755994 183.596738 
C 256.556198 181.442912 251.831221 178.285782 247.851469 174.306031 
C 243.871718 170.326279 240.714588 165.601302 238.560762 160.401506 
C 236.406936 155.20171 235.2983 149.628219 235.2983 144 
C 235.2983 138.371781 236.406936 132.79829 238.560762 127.598494 
C 240.714588 122.398698 243.871718 117.673721 247.851469 113.693969 
C 251.831221 109.714218 256.556198 106.557088 261.755994 104.403262 
C 266.95579 102.249436 272.529281 101.1408 278.1575 101.1408 
" style="fill:none;stroke:#cccccc;stroke-linecap:round;stroke-width:0.8;"/>
     </g>
     <g id="text_11">
      <!-- 0.4 -->
      <g style="fill:#808080;" transform="translate(278.1575 99.1533)scale(0.1 -0.1)">
       <defs>
        <path d="M 32.328125 0 
L 32.328125 17.140625 
L 1.265625 17.140625 
L 1.265625 25.203125 
L 33.9375 71.578125 
L 41.109375 71.578125 
L 41.109375 25.203125 
L 50.78125 25.203125 
L 50.78125 17.140625 
L 41.109375 17.140625 
L 41.109375 0 
z
M 32.328125 25.203125 
L 32.328125 57.46875 
L 9.90625 25.203125 
z
" id="ArialMT-52"/>
       </defs>
       <use xlink:href="#ArialMT-48"/>
       <use x="55.615234" xlink:href="#ArialMT-46"/>
       <use x="83.398438" xlink:href="#ArialMT-52"/>
      </g>
     </g>
    </g>
    <g id="ytick_4">
     <g id="line2d_12">
      <path clip-path="url(#p59825a039a)" d="M 278.1575 79.7112 
C 286.599828 79.7112 294.960065 81.374155 302.759759 84.604894 
C 310.559453 87.835633 317.646919 92.571326 323.616546 98.540954 
C 329.586174 104.510581 334.321867 111.598047 337.552606 119.397741 
C 340.783345 127.197435 342.4463 135.557672 342.4463 144 
C 342.4463 152.442328 340.783345 160.802565 337.552606 168.602259 
C 334.321867 176.401953 329.586174 183.489419 323.616546 189.459046 
C 317.646919 195.428674 310.559453 200.164367 302.759759 203.395106 
C 294.960065 206.625845 286.599828 208.2888 278.1575 208.2888 
C 269.715172 208.2888 261.354935 206.625845 253.555241 203.395106 
C 245.755547 200.164367 238.668081 195.428674 232.698454 189.459046 
C 226.728826 183.489419 221.993133 176.401953 218.762394 168.602259 
C 215.531655 160.802565 213.8687 152.442328 213.8687 144 
C 213.8687 135.557672 215.531655 127.197435 218.762394 119.397741 
C 221.993133 111.598047 226.728826 104.510581 232.698454 98.540954 
C 238.668081 92.571326 245.755547 87.835633 253.555241 84.604894 
C 261.354935 81.374155 269.715172 79.7112 278.1575 79.7112 
" style="fill:none;stroke:#cccccc;stroke-linecap:round;stroke-width:0.8;"/>
     </g>
     <g id="text_12">
      <!-- 0.6 -->
      <g style="fill:#808080;" transform="translate(278.1575 77.7237)scale(0.1 -0.1)">
       <defs>
        <path d="M 49.75 54.046875 
L 41.015625 53.375 
Q 39.84375 58.546875 37.703125 60.890625 
Q 34.125 64.65625 28.90625 64.65625 
Q 24.703125 64.65625 21.53125 62.3125 
Q 17.390625 59.28125 14.984375 53.46875 
Q 12.59375 47.65625 12.5 36.921875 
Q 15.671875 41.75 20.265625 44.09375 
Q 24.859375 46.4375 29.890625 46.4375 
Q 38.671875 46.4375 44.84375 39.96875 
Q 51.03125 33.5 51.03125 23.25 
Q 51.03125 16.5 48.125 10.71875 
Q 45.21875 4.9375 40.140625 1.859375 
Q 35.0625 -1.21875 28.609375 -1.21875 
Q 17.625 -1.21875 10.6875 6.859375 
Q 3.765625 14.9375 3.765625 33.5 
Q 3.765625 54.25 11.421875 63.671875 
Q 18.109375 71.875 29.4375 71.875 
Q 37.890625 71.875 43.28125 67.140625 
Q 48.6875 62.40625 49.75 54.046875 
z
M 13.875 23.1875 
Q 13.875 18.65625 15.796875 14.5 
Q 17.71875 10.359375 21.1875 8.171875 
Q 24.65625 6 28.46875 6 
Q 34.03125 6 38.03125 10.484375 
Q 42.046875 14.984375 42.046875 22.703125 
Q 42.046875 30.125 38.078125 34.390625 
Q 34.125 38.671875 28.125 38.671875 
Q 22.171875 38.671875 18.015625 34.390625 
Q 13.875 30.125 13.875 23.1875 
z
" id="ArialMT-54"/>
       </defs>
       <use xlink:href="#ArialMT-48"/>
       <use x="55.615234" xlink:href="#ArialMT-46"/>
       <use x="83.398438" xlink:href="#ArialMT-54"/>
      </g>
     </g>
    </g>
    <g id="ytick_5">
     <g id="line2d_13">
      <path clip-path="url(#p59825a039a)" d="M 278.1575 58.2816 
C 289.413937 58.2816 300.56092 60.498873 310.960512 64.806525 
C 321.360103 69.114177 330.810059 75.428435 338.769562 83.387938 
C 346.729065 91.347441 353.043323 100.797397 357.350975 111.196988 
C 361.658627 121.59658 363.8759 132.743563 363.8759 144 
C 363.8759 155.256437 361.658627 166.40342 357.350975 176.803012 
C 353.043323 187.202603 346.729065 196.652559 338.769562 204.612062 
C 330.810059 212.571565 321.360103 218.885823 310.960512 223.193475 
C 300.56092 227.501127 289.413937 229.7184 278.1575 229.7184 
C 266.901063 229.7184 255.75408 227.501127 245.354488 223.193475 
C 234.954897 218.885823 225.504941 212.571565 217.545438 204.612062 
C 209.585935 196.652559 203.271677 187.202603 198.964025 176.803012 
C 194.656373 166.40342 192.4391 155.256437 192.4391 144 
C 192.4391 132.743563 194.656373 121.59658 198.964025 111.196988 
C 203.271677 100.797397 209.585935 91.347441 217.545438 83.387938 
C 225.504941 75.428435 234.954897 69.114177 245.354488 64.806525 
C 255.75408 60.498873 266.901063 58.2816 278.1575 58.2816 
" style="fill:none;stroke:#cccccc;stroke-linecap:round;stroke-width:0.8;"/>
     </g>
     <g id="text_13">
      <!-- 0.8 -->
      <g style="fill:#808080;" transform="translate(278.1575 56.2941)scale(0.1 -0.1)">
       <defs>
        <path d="M 17.671875 38.8125 
Q 12.203125 40.828125 9.5625 44.53125 
Q 6.9375 48.25 6.9375 53.421875 
Q 6.9375 61.234375 12.546875 66.546875 
Q 18.171875 71.875 27.484375 71.875 
Q 36.859375 71.875 42.578125 66.421875 
Q 48.296875 60.984375 48.296875 53.171875 
Q 48.296875 48.1875 45.671875 44.5 
Q 43.0625 40.828125 37.75 38.8125 
Q 44.34375 36.671875 47.78125 31.875 
Q 51.21875 27.09375 51.21875 20.453125 
Q 51.21875 11.28125 44.71875 5.03125 
Q 38.234375 -1.21875 27.640625 -1.21875 
Q 17.046875 -1.21875 10.546875 5.046875 
Q 4.046875 11.328125 4.046875 20.703125 
Q 4.046875 27.6875 7.59375 32.390625 
Q 11.140625 37.109375 17.671875 38.8125 
z
M 15.921875 53.71875 
Q 15.921875 48.640625 19.1875 45.40625 
Q 22.46875 42.1875 27.6875 42.1875 
Q 32.765625 42.1875 36.015625 45.375 
Q 39.265625 48.578125 39.265625 53.21875 
Q 39.265625 58.0625 35.90625 61.359375 
Q 32.5625 64.65625 27.59375 64.65625 
Q 22.5625 64.65625 19.234375 61.421875 
Q 15.921875 58.203125 15.921875 53.71875 
z
M 13.09375 20.65625 
Q 13.09375 16.890625 14.875 13.375 
Q 16.65625 9.859375 20.171875 7.921875 
Q 23.6875 6 27.734375 6 
Q 34.03125 6 38.125 10.046875 
Q 42.234375 14.109375 42.234375 20.359375 
Q 42.234375 26.703125 38.015625 30.859375 
Q 33.796875 35.015625 27.4375 35.015625 
Q 21.234375 35.015625 17.15625 30.90625 
Q 13.09375 26.8125 13.09375 20.65625 
z
" id="ArialMT-56"/>
       </defs>
       <use xlink:href="#ArialMT-48"/>
       <use x="55.615234" xlink:href="#ArialMT-46"/>
       <use x="83.398438" xlink:href="#ArialMT-56"/>
      </g>
     </g>
    </g>
    <g id="ytick_6">
     <g id="line2d_14">
      <path clip-path="url(#p59825a039a)" d="M 278.1575 36.852 
C 292.228046 36.852 306.161775 39.623591 319.161264 45.008156 
C 332.160754 50.392721 343.973199 58.285544 353.922577 68.234923 
C 363.871956 78.184301 371.764779 89.996746 377.149344 102.996236 
C 382.533909 115.995725 385.3055 129.929454 385.3055 144 
C 385.3055 158.070546 382.533909 172.004275 377.149344 185.003764 
C 371.764779 198.003254 363.871956 209.815699 353.922577 219.765077 
C 343.973199 229.714456 332.160754 237.607279 319.161264 242.991844 
C 306.161775 248.376409 292.228046 251.148 278.1575 251.148 
C 264.086954 251.148 250.153225 248.376409 237.153736 242.991844 
C 224.154246 237.607279 212.341801 229.714456 202.392423 219.765077 
C 192.443044 209.815699 184.550221 198.003254 179.165656 185.003764 
C 173.781091 172.004275 171.0095 158.070546 171.0095 144 
C 171.0095 129.929454 173.781091 115.995725 179.165656 102.996236 
C 184.550221 89.996746 192.443044 78.184301 202.392423 68.234923 
C 212.341801 58.285544 224.154246 50.392721 237.153736 45.008156 
C 250.153225 39.623591 264.086954 36.852 278.1575 36.852 
" style="fill:none;stroke:#cccccc;stroke-linecap:round;stroke-width:0.8;"/>
     </g>
     <g id="text_14">
      <!-- 1.0 -->
      <g style="fill:#808080;" transform="translate(278.1575 34.8645)scale(0.1 -0.1)">
       <use xlink:href="#ArialMT-49"/>
       <use x="55.615234" xlink:href="#ArialMT-46"/>
       <use x="83.398438" xlink:href="#ArialMT-48"/>
      </g>
     </g>
    </g>
   </g>
   <g id="line2d_15">
    <path clip-path="url(#p59825a039a)" d="M 278.1575 45.813537 
L 348.106699 74.050801 
L 363.717107 144 
L 352.970059 218.812559 
L 278.1575 184.468192 
L 205.858296 216.299204 
L 223.210184 144 
L 239.263952 105.106452 
L 278.1575 45.813537 
" style="fill:none;stroke:#000080;stroke-linecap:round;stroke-width:2;"/>
   </g>
   <g id="line2d_16">
    <path clip-path="url(#p59825a039a)" d="M 278.1575 45.610385 
L 347.8419 74.3156 
L 374.472301 144 
L 353.289863 219.132363 
L 278.1575 193.479661 
L 205.851629 216.305871 
L 212.782862 144 
L 231.996642 97.839142 
L 278.1575 45.610385 
" style="fill:none;stroke:#ffd700;stroke-linecap:round;stroke-width:2;"/>
   </g>
   <g id="patch_3">
    <path d="M 278.1575 36.852 
C 264.086954 36.852 250.153225 39.623591 237.153736 45.008156 
C 224.154246 50.392721 212.341801 58.285544 202.392423 68.234923 
C 192.443044 78.184301 184.550221 89.996746 179.165656 102.996236 
C 173.781091 115.995725 171.0095 129.929454 171.0095 144 
C 171.0095 158.070546 173.781091 172.004275 179.165656 185.003764 
C 184.550221 198.003254 192.443044 209.815699 202.392423 219.765077 
C 212.341801 229.714456 224.154246 237.607279 237.153736 242.991844 
C 250.153225 248.376409 264.086954 251.148 278.1575 251.148 
C 292.228046 251.148 306.161775 248.376409 319.161264 242.991844 
C 332.160754 237.607279 343.973199 229.714456 353.922577 219.765077 
C 363.871956 209.815699 371.764779 198.003254 377.149344 185.003764 
C 382.533909 172.004275 385.3055 158.070546 385.3055 144 
C 385.3055 129.929454 382.533909 115.995725 377.149344 102.996236 
C 371.764779 89.996746 363.871956 78.184301 353.922577 68.234923 
C 343.973199 58.285544 332.160754 50.392721 319.161264 45.008156 
C 306.161775 39.623591 292.228046 36.852 278.1575 36.852 
" style="fill:none;stroke:#cccccc;stroke-linecap:square;stroke-linejoin:miter;"/>
   </g>
   <g id="legend_1">
    <g id="patch_4">
     <path d="M -9.59125 85.077375 
L 161.7695 85.077375 
Q 164.4095 85.077375 164.4095 82.437375 
L 164.4095 46.092 
Q 164.4095 43.452 161.7695 43.452 
L -9.59125 43.452 
Q -12.23125 43.452 -12.23125 46.092 
L -12.23125 82.437375 
Q -12.23125 85.077375 -9.59125 85.077375 
z
" style="fill:#ffffff;opacity:0.8;stroke:#cccccc;stroke-linejoin:miter;stroke-width:0.8;"/>
    </g>
    <g id="line2d_17">
     <path d="M -1 53.721188 
L 19.44875 53.721188 
" style="fill:none;stroke:#000080;stroke-linecap:round;stroke-width:2;"/>
    </g>
    <g id="line2d_18"/>
    <g id="text_15">
     <!-- RF_3K-BM4/5-up -->
     <g style="fill:#262626;" transform="translate(30.00875 58.341188)scale(0.132 -0.132)">
      <defs>
       <path d="M 4.203125 18.890625 
L 12.984375 20.0625 
Q 14.5 12.59375 18.140625 9.296875 
Q 21.78125 6 27 6 
Q 33.203125 6 37.46875 10.296875 
Q 41.75 14.59375 41.75 20.953125 
Q 41.75 27 37.796875 30.921875 
Q 33.84375 34.859375 27.734375 34.859375 
Q 25.25 34.859375 21.53125 33.890625 
L 22.515625 41.609375 
Q 23.390625 41.5 23.921875 41.5 
Q 29.546875 41.5 34.03125 44.421875 
Q 38.53125 47.359375 38.53125 53.46875 
Q 38.53125 58.296875 35.25 61.46875 
Q 31.984375 64.65625 26.8125 64.65625 
Q 21.6875 64.65625 18.265625 61.421875 
Q 14.84375 58.203125 13.875 51.765625 
L 5.078125 53.328125 
Q 6.6875 62.15625 12.390625 67.015625 
Q 18.109375 71.875 26.609375 71.875 
Q 32.46875 71.875 37.390625 69.359375 
Q 42.328125 66.84375 44.9375 62.5 
Q 47.5625 58.15625 47.5625 53.265625 
Q 47.5625 48.640625 45.0625 44.828125 
Q 42.578125 41.015625 37.703125 38.765625 
Q 44.046875 37.3125 47.5625 32.6875 
Q 51.078125 28.078125 51.078125 21.140625 
Q 51.078125 11.765625 44.234375 5.25 
Q 37.40625 -1.265625 26.953125 -1.265625 
Q 17.53125 -1.265625 11.296875 4.34375 
Q 5.078125 9.96875 4.203125 18.890625 
z
" id="ArialMT-51"/>
       <path d="M 7.328125 0 
L 7.328125 71.578125 
L 16.796875 71.578125 
L 16.796875 36.078125 
L 52.34375 71.578125 
L 65.1875 71.578125 
L 35.15625 42.578125 
L 66.5 0 
L 54 0 
L 28.515625 36.234375 
L 16.796875 24.8125 
L 16.796875 0 
z
" id="ArialMT-75"/>
       <path d="M 3.171875 21.484375 
L 3.171875 30.328125 
L 30.171875 30.328125 
L 30.171875 21.484375 
z
" id="ArialMT-45"/>
       <path d="M 7.328125 0 
L 7.328125 71.578125 
L 34.1875 71.578125 
Q 42.390625 71.578125 47.34375 69.40625 
Q 52.296875 67.234375 55.09375 62.71875 
Q 57.90625 58.203125 57.90625 53.265625 
Q 57.90625 48.6875 55.421875 44.625 
Q 52.9375 40.578125 47.90625 38.09375 
Q 54.390625 36.1875 57.875 31.59375 
Q 61.375 27 61.375 20.75 
Q 61.375 15.71875 59.25 11.390625 
Q 57.125 7.078125 54 4.734375 
Q 50.875 2.390625 46.15625 1.1875 
Q 41.453125 0 34.625 0 
z
M 16.796875 41.5 
L 32.28125 41.5 
Q 38.578125 41.5 41.3125 42.328125 
Q 44.921875 43.40625 46.75 45.890625 
Q 48.578125 48.390625 48.578125 52.15625 
Q 48.578125 55.71875 46.875 58.421875 
Q 45.171875 61.140625 41.984375 62.140625 
Q 38.8125 63.140625 31.109375 63.140625 
L 16.796875 63.140625 
z
M 16.796875 8.453125 
L 34.625 8.453125 
Q 39.203125 8.453125 41.0625 8.796875 
Q 44.34375 9.375 46.53125 10.734375 
Q 48.734375 12.109375 50.140625 14.71875 
Q 51.5625 17.328125 51.5625 20.75 
Q 51.5625 24.75 49.515625 27.703125 
Q 47.46875 30.671875 43.828125 31.859375 
Q 40.1875 33.0625 33.34375 33.0625 
L 16.796875 33.0625 
z
" id="ArialMT-66"/>
       <path d="M 0 -1.21875 
L 20.75 72.796875 
L 27.78125 72.796875 
L 7.078125 -1.21875 
z
" id="ArialMT-47"/>
       <path d="M 4.15625 18.75 
L 13.375 19.53125 
Q 14.40625 12.796875 18.140625 9.390625 
Q 21.875 6 27.15625 6 
Q 33.5 6 37.890625 10.78125 
Q 42.28125 15.578125 42.28125 23.484375 
Q 42.28125 31 38.0625 35.34375 
Q 33.84375 39.703125 27 39.703125 
Q 22.75 39.703125 19.328125 37.765625 
Q 15.921875 35.84375 13.96875 32.765625 
L 5.71875 33.84375 
L 12.640625 70.609375 
L 48.25 70.609375 
L 48.25 62.203125 
L 19.671875 62.203125 
L 15.828125 42.96875 
Q 22.265625 47.46875 29.34375 47.46875 
Q 38.71875 47.46875 45.15625 40.96875 
Q 51.609375 34.46875 51.609375 24.265625 
Q 51.609375 14.546875 45.953125 7.46875 
Q 39.0625 -1.21875 27.15625 -1.21875 
Q 17.390625 -1.21875 11.203125 4.25 
Q 5.03125 9.71875 4.15625 18.75 
z
" id="ArialMT-53"/>
       <path d="M 40.578125 0 
L 40.578125 7.625 
Q 34.515625 -1.171875 24.125 -1.171875 
Q 19.53125 -1.171875 15.546875 0.578125 
Q 11.578125 2.34375 9.640625 5 
Q 7.71875 7.671875 6.9375 11.53125 
Q 6.390625 14.109375 6.390625 19.734375 
L 6.390625 51.859375 
L 15.1875 51.859375 
L 15.1875 23.09375 
Q 15.1875 16.21875 15.71875 13.8125 
Q 16.546875 10.359375 19.234375 8.375 
Q 21.921875 6.390625 25.875 6.390625 
Q 29.828125 6.390625 33.296875 8.421875 
Q 36.765625 10.453125 38.203125 13.9375 
Q 39.65625 17.4375 39.65625 24.078125 
L 39.65625 51.859375 
L 48.4375 51.859375 
L 48.4375 0 
z
" id="ArialMT-117"/>
       <path d="M 6.59375 -19.875 
L 6.59375 51.859375 
L 14.59375 51.859375 
L 14.59375 45.125 
Q 17.4375 49.078125 21 51.046875 
Q 24.5625 53.03125 29.640625 53.03125 
Q 36.28125 53.03125 41.359375 49.609375 
Q 46.4375 46.1875 49.015625 39.953125 
Q 51.609375 33.734375 51.609375 26.3125 
Q 51.609375 18.359375 48.75 11.984375 
Q 45.90625 5.609375 40.453125 2.21875 
Q 35.015625 -1.171875 29 -1.171875 
Q 24.609375 -1.171875 21.109375 0.6875 
Q 17.625 2.546875 15.375 5.375 
L 15.375 -19.875 
z
M 14.546875 25.640625 
Q 14.546875 15.625 18.59375 10.84375 
Q 22.65625 6.0625 28.421875 6.0625 
Q 34.28125 6.0625 38.453125 11.015625 
Q 42.625 15.96875 42.625 26.375 
Q 42.625 36.28125 38.546875 41.203125 
Q 34.46875 46.140625 28.8125 46.140625 
Q 23.1875 46.140625 18.859375 40.890625 
Q 14.546875 35.640625 14.546875 25.640625 
z
" id="ArialMT-112"/>
      </defs>
      <use xlink:href="#ArialMT-82"/>
      <use x="72.216797" xlink:href="#ArialMT-70"/>
      <use x="133.300781" xlink:href="#ArialMT-95"/>
      <use x="188.916016" xlink:href="#ArialMT-51"/>
      <use x="244.53125" xlink:href="#ArialMT-75"/>
      <use x="311.230469" xlink:href="#ArialMT-45"/>
      <use x="344.53125" xlink:href="#ArialMT-66"/>
      <use x="411.230469" xlink:href="#ArialMT-77"/>
      <use x="494.53125" xlink:href="#ArialMT-52"/>
      <use x="550.146484" xlink:href="#ArialMT-47"/>
      <use x="577.929688" xlink:href="#ArialMT-53"/>
      <use x="633.544922" xlink:href="#ArialMT-45"/>
      <use x="666.845703" xlink:href="#ArialMT-117"/>
      <use x="722.460938" xlink:href="#ArialMT-112"/>
     </g>
    </g>
    <g id="line2d_19">
     <path d="M -1 72.553875 
L 19.44875 72.553875 
" style="fill:none;stroke:#ffd700;stroke-linecap:round;stroke-width:2;"/>
    </g>
    <g id="line2d_20"/>
    <g id="text_16">
     <!-- CoDES_3K-BM4/5-up -->
     <g style="fill:#262626;" transform="translate(30.00875 77.173875)scale(0.132 -0.132)">
      <defs>
       <path d="M 7.71875 0 
L 7.71875 71.578125 
L 32.375 71.578125 
Q 40.71875 71.578125 45.125 70.5625 
Q 51.265625 69.140625 55.609375 65.4375 
Q 61.28125 60.640625 64.078125 53.1875 
Q 66.890625 45.75 66.890625 36.1875 
Q 66.890625 28.03125 64.984375 21.734375 
Q 63.09375 15.4375 60.109375 11.296875 
Q 57.125 7.171875 53.578125 4.796875 
Q 50.046875 2.4375 45.046875 1.21875 
Q 40.046875 0 33.546875 0 
z
M 17.1875 8.453125 
L 32.46875 8.453125 
Q 39.546875 8.453125 43.578125 9.765625 
Q 47.609375 11.078125 50 13.484375 
Q 53.375 16.84375 55.25 22.53125 
Q 57.125 28.21875 57.125 36.328125 
Q 57.125 47.5625 53.4375 53.59375 
Q 49.75 59.625 44.484375 61.671875 
Q 40.671875 63.140625 32.234375 63.140625 
L 17.1875 63.140625 
z
" id="ArialMT-68"/>
       <path d="M 7.90625 0 
L 7.90625 71.578125 
L 59.671875 71.578125 
L 59.671875 63.140625 
L 17.390625 63.140625 
L 17.390625 41.21875 
L 56.984375 41.21875 
L 56.984375 32.8125 
L 17.390625 32.8125 
L 17.390625 8.453125 
L 61.328125 8.453125 
L 61.328125 0 
z
" id="ArialMT-69"/>
       <path d="M 4.5 23 
L 13.421875 23.78125 
Q 14.0625 18.40625 16.375 14.96875 
Q 18.703125 11.53125 23.578125 9.40625 
Q 28.46875 7.28125 34.578125 7.28125 
Q 39.984375 7.28125 44.140625 8.890625 
Q 48.296875 10.5 50.3125 13.296875 
Q 52.34375 16.109375 52.34375 19.4375 
Q 52.34375 22.796875 50.390625 25.3125 
Q 48.4375 27.828125 43.953125 29.546875 
Q 41.0625 30.671875 31.203125 33.03125 
Q 21.34375 35.40625 17.390625 37.5 
Q 12.25 40.1875 9.734375 44.15625 
Q 7.234375 48.140625 7.234375 53.078125 
Q 7.234375 58.5 10.296875 63.203125 
Q 13.375 67.921875 19.28125 70.359375 
Q 25.203125 72.796875 32.421875 72.796875 
Q 40.375 72.796875 46.453125 70.234375 
Q 52.546875 67.671875 55.8125 62.6875 
Q 59.078125 57.71875 59.328125 51.421875 
L 50.25 50.734375 
Q 49.515625 57.515625 45.28125 60.984375 
Q 41.0625 64.453125 32.8125 64.453125 
Q 24.21875 64.453125 20.28125 61.296875 
Q 16.359375 58.15625 16.359375 53.71875 
Q 16.359375 49.859375 19.140625 47.359375 
Q 21.875 44.875 33.421875 42.265625 
Q 44.96875 39.65625 49.265625 37.703125 
Q 55.515625 34.8125 58.484375 30.390625 
Q 61.46875 25.984375 61.46875 20.21875 
Q 61.46875 14.5 58.203125 9.4375 
Q 54.9375 4.390625 48.796875 1.578125 
Q 42.671875 -1.21875 35.015625 -1.21875 
Q 25.296875 -1.21875 18.71875 1.609375 
Q 12.15625 4.4375 8.421875 10.125 
Q 4.6875 15.828125 4.5 23 
z
" id="ArialMT-83"/>
      </defs>
      <use xlink:href="#ArialMT-67"/>
      <use x="72.216797" xlink:href="#ArialMT-111"/>
      <use x="127.832031" xlink:href="#ArialMT-68"/>
      <use x="200.048828" xlink:href="#ArialMT-69"/>
      <use x="266.748047" xlink:href="#ArialMT-83"/>
      <use x="333.447266" xlink:href="#ArialMT-95"/>
      <use x="389.0625" xlink:href="#ArialMT-51"/>
      <use x="444.677734" xlink:href="#ArialMT-75"/>
      <use x="511.376953" xlink:href="#ArialMT-45"/>
      <use x="544.677734" xlink:href="#ArialMT-66"/>
      <use x="611.376953" xlink:href="#ArialMT-77"/>
      <use x="694.677734" xlink:href="#ArialMT-52"/>
      <use x="750.292969" xlink:href="#ArialMT-47"/>
      <use x="778.076172" xlink:href="#ArialMT-53"/>
      <use x="833.691406" xlink:href="#ArialMT-45"/>
      <use x="866.992188" xlink:href="#ArialMT-117"/>
      <use x="922.607422" xlink:href="#ArialMT-112"/>
     </g>
    </g>
   </g>
  </g>
 </g>
 <defs>
  <clipPath id="p59825a039a">
   <path d="M 385.3055 144 
C 385.3055 129.929454 382.533909 115.995725 377.149344 102.996236 
C 371.764779 89.996746 363.871956 78.184301 353.922577 68.234923 
C 343.973199 58.285544 332.160754 50.392721 319.161264 45.008156 
C 306.161775 39.623591 292.228046 36.852 278.1575 36.852 
C 264.086954 36.852 250.153225 39.623591 237.153736 45.008156 
C 224.154246 50.392721 212.341801 58.285544 202.392423 68.234923 
C 192.443044 78.184301 184.550221 89.996746 179.165656 102.996236 
C 173.781091 115.995725 171.0095 129.929454 171.0095 144 
C 171.0095 158.070546 173.781091 172.004275 179.165656 185.003764 
C 184.550221 198.003254 192.443044 209.815699 202.392423 219.765077 
C 212.341801 229.714456 224.154246 237.607279 237.153736 242.991844 
C 250.153225 248.376409 264.086954 251.148 278.1575 251.148 
C 292.228046 251.148 306.161775 248.376409 319.161264 242.991844 
C 332.160754 237.607279 343.973199 229.714456 353.922577 219.765077 
C 363.871956 209.815699 371.764779 198.003254 377.149344 185.003764 
C 382.533909 172.004275 385.3055 158.070546 385.3055 144 
M 278.1575 144 
C 278.1575 144 278.1575 144 278.1575 144 
C 278.1575 144 278.1575 144 278.1575 144 
C 278.1575 144 278.1575 144 278.1575 144 
C 278.1575 144 278.1575 144 278.1575 144 
C 278.1575 144 278.1575 144 278.1575 144 
C 278.1575 144 278.1575 144 278.1575 144 
C 278.1575 144 278.1575 144 278.1575 144 
C 278.1575 144 278.1575 144 278.1575 144 
C 278.1575 144 278.1575 144 278.1575 144 
C 278.1575 144 278.1575 144 278.1575 144 
C 278.1575 144 278.1575 144 278.1575 144 
C 278.1575 144 278.1575 144 278.1575 144 
C 278.1575 144 278.1575 144 278.1575 144 
C 278.1575 144 278.1575 144 278.1575 144 
C 278.1575 144 278.1575 144 278.1575 144 
C 278.1575 144 278.1575 144 278.1575 144 
M 385.3055 144 
z
"/>
  </clipPath>
 </defs>
</svg>
