<?xml version="1.0" encoding="utf-8" standalone="no"?>
<!DOCTYPE svg PUBLIC "-//W3C//DTD SVG 1.1//EN"
  "http://www.w3.org/Graphics/SVG/1.1/DTD/svg11.dtd">
<svg xmlns:xlink="http://www.w3.org/1999/xlink" width="576pt" height="288pt" viewBox="0 0 576 288" xmlns="http://www.w3.org/2000/svg" version="1.1">
 <metadata>
  <rdf:RDF xmlns:dc="http://purl.org/dc/elements/1.1/" xmlns:cc="http://creativecommons.org/ns#" xmlns:rdf="http://www.w3.org/1999/02/22-rdf-syntax-ns#">
   <cc:Work>
    <dc:type rdf:resource="http://purl.org/dc/dcmitype/StillImage"/>
    <dc:date>2022-11-20T16:42:26.345154</dc:date>
    <dc:format>image/svg+xml</dc:format>
    <dc:creator>
     <cc:Agent>
      <dc:title>Matplotlib v3.5.2, https://matplotlib.org/</dc:title>
     </cc:Agent>
    </dc:creator>
   </cc:Work>
  </rdf:RDF>
 </metadata>
 <defs>
  <style type="text/css">*{stroke-linejoin: round; stroke-linecap: butt}</style>
 </defs>
 <g id="figure_1">
  <g id="patch_1">
   <path d="M 0 288 
L 576 288 
L 576 0 
L 0 0 
L 0 288 
z
" style="fill: none"/>
  </g>
  <g id="axes_1">
   <g id="patch_2">
    <path d="M 41.85 199.4 
L 262.837273 199.4 
L 262.837273 23.8 
L 41.85 23.8 
z
" style="fill: #ffffff"/>
   </g>
   <g id="matplotlib.axis_1">
    <g id="xtick_1">
     <g id="line2d_1">
      <path d="M 47.374682 199.4 
L 47.374682 23.8 
" clip-path="url(#p93fb89ecc1)" style="fill: none; stroke: #cccccc; stroke-width: 0.8; stroke-linecap: round"/>
     </g>
     <g id="text_1">
      <!-- RF-hAIkal -->
      <g style="fill: #262626" transform="translate(49.649619 246.817375)rotate(-90)scale(0.088 -0.088)">
       <defs>
        <path id="ArialMT-52" d="M 503 0 
L 503 4581 
L 2534 4581 
Q 3147 4581 3465 4457 
Q 3784 4334 3975 4021 
Q 4166 3709 4166 3331 
Q 4166 2844 3850 2509 
Q 3534 2175 2875 2084 
Q 3116 1969 3241 1856 
Q 3506 1613 3744 1247 
L 4541 0 
L 3778 0 
L 3172 953 
Q 2906 1366 2734 1584 
Q 2563 1803 2427 1890 
Q 2291 1978 2150 2013 
Q 2047 2034 1813 2034 
L 1109 2034 
L 1109 0 
L 503 0 
z
M 1109 2559 
L 2413 2559 
Q 2828 2559 3062 2645 
Q 3297 2731 3419 2920 
Q 3541 3109 3541 3331 
Q 3541 3656 3305 3865 
Q 3069 4075 2559 4075 
L 1109 4075 
L 1109 2559 
z
" transform="scale(0.015625)"/>
        <path id="ArialMT-46" d="M 525 0 
L 525 4581 
L 3616 4581 
L 3616 4041 
L 1131 4041 
L 1131 2622 
L 3281 2622 
L 3281 2081 
L 1131 2081 
L 1131 0 
L 525 0 
z
" transform="scale(0.015625)"/>
        <path id="ArialMT-2d" d="M 203 1375 
L 203 1941 
L 1931 1941 
L 1931 1375 
L 203 1375 
z
" transform="scale(0.015625)"/>
        <path id="ArialMT-68" d="M 422 0 
L 422 4581 
L 984 4581 
L 984 2938 
Q 1378 3394 1978 3394 
Q 2347 3394 2619 3248 
Q 2891 3103 3008 2847 
Q 3125 2591 3125 2103 
L 3125 0 
L 2563 0 
L 2563 2103 
Q 2563 2525 2380 2717 
Q 2197 2909 1863 2909 
Q 1613 2909 1392 2779 
Q 1172 2650 1078 2428 
Q 984 2206 984 1816 
L 984 0 
L 422 0 
z
" transform="scale(0.015625)"/>
        <path id="ArialMT-41" d="M -9 0 
L 1750 4581 
L 2403 4581 
L 4278 0 
L 3588 0 
L 3053 1388 
L 1138 1388 
L 634 0 
L -9 0 
z
M 1313 1881 
L 2866 1881 
L 2388 3150 
Q 2169 3728 2063 4100 
Q 1975 3659 1816 3225 
L 1313 1881 
z
" transform="scale(0.015625)"/>
        <path id="ArialMT-49" d="M 597 0 
L 597 4581 
L 1203 4581 
L 1203 0 
L 597 0 
z
" transform="scale(0.015625)"/>
        <path id="ArialMT-6b" d="M 425 0 
L 425 4581 
L 988 4581 
L 988 1969 
L 2319 3319 
L 3047 3319 
L 1778 2088 
L 3175 0 
L 2481 0 
L 1384 1697 
L 988 1316 
L 988 0 
L 425 0 
z
" transform="scale(0.015625)"/>
        <path id="ArialMT-61" d="M 2588 409 
Q 2275 144 1986 34 
Q 1697 -75 1366 -75 
Q 819 -75 525 192 
Q 231 459 231 875 
Q 231 1119 342 1320 
Q 453 1522 633 1644 
Q 813 1766 1038 1828 
Q 1203 1872 1538 1913 
Q 2219 1994 2541 2106 
Q 2544 2222 2544 2253 
Q 2544 2597 2384 2738 
Q 2169 2928 1744 2928 
Q 1347 2928 1158 2789 
Q 969 2650 878 2297 
L 328 2372 
Q 403 2725 575 2942 
Q 747 3159 1072 3276 
Q 1397 3394 1825 3394 
Q 2250 3394 2515 3294 
Q 2781 3194 2906 3042 
Q 3031 2891 3081 2659 
Q 3109 2516 3109 2141 
L 3109 1391 
Q 3109 606 3145 398 
Q 3181 191 3288 0 
L 2700 0 
Q 2613 175 2588 409 
z
M 2541 1666 
Q 2234 1541 1622 1453 
Q 1275 1403 1131 1340 
Q 988 1278 909 1158 
Q 831 1038 831 891 
Q 831 666 1001 516 
Q 1172 366 1500 366 
Q 1825 366 2078 508 
Q 2331 650 2450 897 
Q 2541 1088 2541 1459 
L 2541 1666 
z
" transform="scale(0.015625)"/>
        <path id="ArialMT-6c" d="M 409 0 
L 409 4581 
L 972 4581 
L 972 0 
L 409 0 
z
" transform="scale(0.015625)"/>
       </defs>
       <use xlink:href="#ArialMT-52"/>
       <use xlink:href="#ArialMT-46" x="72.216797"/>
       <use xlink:href="#ArialMT-2d" x="133.300781"/>
       <use xlink:href="#ArialMT-68" x="166.601562"/>
       <use xlink:href="#ArialMT-41" x="222.216797"/>
       <use xlink:href="#ArialMT-49" x="288.916016"/>
       <use xlink:href="#ArialMT-6b" x="316.699219"/>
       <use xlink:href="#ArialMT-61" x="366.699219"/>
       <use xlink:href="#ArialMT-6c" x="422.314453"/>
      </g>
     </g>
    </g>
    <g id="xtick_2">
     <g id="line2d_2">
      <path d="M 58.424045 199.4 
L 58.424045 23.8 
" clip-path="url(#p93fb89ecc1)" style="fill: none; stroke: #cccccc; stroke-width: 0.8; stroke-linecap: round"/>
     </g>
     <g id="text_2">
      <!-- PRC-hAIkal -->
      <g style="fill: #262626" transform="translate(60.698983 253.667625)rotate(-90)scale(0.088 -0.088)">
       <defs>
        <path id="ArialMT-50" d="M 494 0 
L 494 4581 
L 2222 4581 
Q 2678 4581 2919 4538 
Q 3256 4481 3484 4323 
Q 3713 4166 3852 3881 
Q 3991 3597 3991 3256 
Q 3991 2672 3619 2267 
Q 3247 1863 2275 1863 
L 1100 1863 
L 1100 0 
L 494 0 
z
M 1100 2403 
L 2284 2403 
Q 2872 2403 3119 2622 
Q 3366 2841 3366 3238 
Q 3366 3525 3220 3729 
Q 3075 3934 2838 4000 
Q 2684 4041 2272 4041 
L 1100 4041 
L 1100 2403 
z
" transform="scale(0.015625)"/>
        <path id="ArialMT-43" d="M 3763 1606 
L 4369 1453 
Q 4178 706 3683 314 
Q 3188 -78 2472 -78 
Q 1731 -78 1267 223 
Q 803 525 561 1097 
Q 319 1669 319 2325 
Q 319 3041 592 3573 
Q 866 4106 1370 4382 
Q 1875 4659 2481 4659 
Q 3169 4659 3637 4309 
Q 4106 3959 4291 3325 
L 3694 3184 
Q 3534 3684 3231 3912 
Q 2928 4141 2469 4141 
Q 1941 4141 1586 3887 
Q 1231 3634 1087 3207 
Q 944 2781 944 2328 
Q 944 1744 1114 1308 
Q 1284 872 1643 656 
Q 2003 441 2422 441 
Q 2931 441 3284 734 
Q 3638 1028 3763 1606 
z
" transform="scale(0.015625)"/>
       </defs>
       <use xlink:href="#ArialMT-50"/>
       <use xlink:href="#ArialMT-52" x="66.699219"/>
       <use xlink:href="#ArialMT-43" x="138.916016"/>
       <use xlink:href="#ArialMT-2d" x="211.132812"/>
       <use xlink:href="#ArialMT-68" x="244.433594"/>
       <use xlink:href="#ArialMT-41" x="300.048828"/>
       <use xlink:href="#ArialMT-49" x="366.748047"/>
       <use xlink:href="#ArialMT-6b" x="394.53125"/>
       <use xlink:href="#ArialMT-61" x="444.53125"/>
       <use xlink:href="#ArialMT-6c" x="500.146484"/>
      </g>
     </g>
    </g>
    <g id="xtick_3">
     <g id="line2d_3">
      <path d="M 69.473409 199.4 
L 69.473409 23.8 
" clip-path="url(#p93fb89ecc1)" style="fill: none; stroke: #cccccc; stroke-width: 0.8; stroke-linecap: round"/>
     </g>
     <g id="text_3">
      <!-- RF-core -->
      <g style="fill: #262626" transform="translate(71.748347 239.477625)rotate(-90)scale(0.088 -0.088)">
       <defs>
        <path id="ArialMT-63" d="M 2588 1216 
L 3141 1144 
Q 3050 572 2676 248 
Q 2303 -75 1759 -75 
Q 1078 -75 664 370 
Q 250 816 250 1647 
Q 250 2184 428 2587 
Q 606 2991 970 3192 
Q 1334 3394 1763 3394 
Q 2303 3394 2647 3120 
Q 2991 2847 3088 2344 
L 2541 2259 
Q 2463 2594 2264 2762 
Q 2066 2931 1784 2931 
Q 1359 2931 1093 2626 
Q 828 2322 828 1663 
Q 828 994 1084 691 
Q 1341 388 1753 388 
Q 2084 388 2306 591 
Q 2528 794 2588 1216 
z
" transform="scale(0.015625)"/>
        <path id="ArialMT-6f" d="M 213 1659 
Q 213 2581 725 3025 
Q 1153 3394 1769 3394 
Q 2453 3394 2887 2945 
Q 3322 2497 3322 1706 
Q 3322 1066 3130 698 
Q 2938 331 2570 128 
Q 2203 -75 1769 -75 
Q 1072 -75 642 372 
Q 213 819 213 1659 
z
M 791 1659 
Q 791 1022 1069 705 
Q 1347 388 1769 388 
Q 2188 388 2466 706 
Q 2744 1025 2744 1678 
Q 2744 2294 2464 2611 
Q 2184 2928 1769 2928 
Q 1347 2928 1069 2612 
Q 791 2297 791 1659 
z
" transform="scale(0.015625)"/>
        <path id="ArialMT-72" d="M 416 0 
L 416 3319 
L 922 3319 
L 922 2816 
Q 1116 3169 1280 3281 
Q 1444 3394 1641 3394 
Q 1925 3394 2219 3213 
L 2025 2691 
Q 1819 2813 1613 2813 
Q 1428 2813 1281 2702 
Q 1134 2591 1072 2394 
Q 978 2094 978 1738 
L 978 0 
L 416 0 
z
" transform="scale(0.015625)"/>
        <path id="ArialMT-65" d="M 2694 1069 
L 3275 997 
Q 3138 488 2766 206 
Q 2394 -75 1816 -75 
Q 1088 -75 661 373 
Q 234 822 234 1631 
Q 234 2469 665 2931 
Q 1097 3394 1784 3394 
Q 2450 3394 2872 2941 
Q 3294 2488 3294 1666 
Q 3294 1616 3291 1516 
L 816 1516 
Q 847 969 1125 678 
Q 1403 388 1819 388 
Q 2128 388 2347 550 
Q 2566 713 2694 1069 
z
M 847 1978 
L 2700 1978 
Q 2663 2397 2488 2606 
Q 2219 2931 1791 2931 
Q 1403 2931 1139 2672 
Q 875 2413 847 1978 
z
" transform="scale(0.015625)"/>
       </defs>
       <use xlink:href="#ArialMT-52"/>
       <use xlink:href="#ArialMT-46" x="72.216797"/>
       <use xlink:href="#ArialMT-2d" x="133.300781"/>
       <use xlink:href="#ArialMT-63" x="166.601562"/>
       <use xlink:href="#ArialMT-6f" x="216.601562"/>
       <use xlink:href="#ArialMT-72" x="272.216797"/>
       <use xlink:href="#ArialMT-65" x="305.517578"/>
      </g>
     </g>
    </g>
    <g id="xtick_4">
     <g id="line2d_4">
      <path d="M 80.522773 199.4 
L 80.522773 23.8 
" clip-path="url(#p93fb89ecc1)" style="fill: none; stroke: #cccccc; stroke-width: 0.8; stroke-linecap: round"/>
     </g>
     <g id="text_4">
      <!-- PRC-core -->
      <g style="fill: #262626" transform="translate(82.79771 246.327875)rotate(-90)scale(0.088 -0.088)">
       <use xlink:href="#ArialMT-50"/>
       <use xlink:href="#ArialMT-52" x="66.699219"/>
       <use xlink:href="#ArialMT-43" x="138.916016"/>
       <use xlink:href="#ArialMT-2d" x="211.132812"/>
       <use xlink:href="#ArialMT-63" x="244.433594"/>
       <use xlink:href="#ArialMT-6f" x="294.433594"/>
       <use xlink:href="#ArialMT-72" x="350.048828"/>
       <use xlink:href="#ArialMT-65" x="383.349609"/>
      </g>
     </g>
    </g>
    <g id="xtick_5">
     <g id="line2d_5">
      <path d="M 91.572136 199.4 
L 91.572136 23.8 
" clip-path="url(#p93fb89ecc1)" style="fill: none; stroke: #cccccc; stroke-width: 0.8; stroke-linecap: round"/>
     </g>
     <g id="text_5">
      <!-- CP_TSC -->
      <g style="fill: #262626" transform="translate(93.900699 242.41875)rotate(-90)scale(0.088 -0.088)">
       <defs>
        <path id="ArialMT-5f" d="M -97 -1272 
L -97 -866 
L 3631 -866 
L 3631 -1272 
L -97 -1272 
z
" transform="scale(0.015625)"/>
        <path id="ArialMT-54" d="M 1659 0 
L 1659 4041 
L 150 4041 
L 150 4581 
L 3781 4581 
L 3781 4041 
L 2266 4041 
L 2266 0 
L 1659 0 
z
" transform="scale(0.015625)"/>
        <path id="ArialMT-53" d="M 288 1472 
L 859 1522 
Q 900 1178 1048 958 
Q 1197 738 1509 602 
Q 1822 466 2213 466 
Q 2559 466 2825 569 
Q 3091 672 3220 851 
Q 3350 1031 3350 1244 
Q 3350 1459 3225 1620 
Q 3100 1781 2813 1891 
Q 2628 1963 1997 2114 
Q 1366 2266 1113 2400 
Q 784 2572 623 2826 
Q 463 3081 463 3397 
Q 463 3744 659 4045 
Q 856 4347 1234 4503 
Q 1613 4659 2075 4659 
Q 2584 4659 2973 4495 
Q 3363 4331 3572 4012 
Q 3781 3694 3797 3291 
L 3216 3247 
Q 3169 3681 2898 3903 
Q 2628 4125 2100 4125 
Q 1550 4125 1298 3923 
Q 1047 3722 1047 3438 
Q 1047 3191 1225 3031 
Q 1400 2872 2139 2705 
Q 2878 2538 3153 2413 
Q 3553 2228 3743 1945 
Q 3934 1663 3934 1294 
Q 3934 928 3725 604 
Q 3516 281 3123 101 
Q 2731 -78 2241 -78 
Q 1619 -78 1198 103 
Q 778 284 539 648 
Q 300 1013 288 1472 
z
" transform="scale(0.015625)"/>
       </defs>
       <use xlink:href="#ArialMT-43"/>
       <use xlink:href="#ArialMT-50" x="72.216797"/>
       <use xlink:href="#ArialMT-5f" x="138.916016"/>
       <use xlink:href="#ArialMT-54" x="194.53125"/>
       <use xlink:href="#ArialMT-53" x="255.615234"/>
       <use xlink:href="#ArialMT-43" x="322.314453"/>
      </g>
     </g>
    </g>
    <g id="xtick_6">
     <g id="line2d_6">
      <path d="M 102.6215 199.4 
L 102.6215 23.8 
" clip-path="url(#p93fb89ecc1)" style="fill: none; stroke: #cccccc; stroke-width: 0.8; stroke-linecap: round"/>
     </g>
     <g id="text_6">
      <!-- AP_T1 -->
      <g style="fill: #262626" transform="translate(104.9095 234.601875)rotate(-90)scale(0.088 -0.088)">
       <defs>
        <path id="ArialMT-31" d="M 2384 0 
L 1822 0 
L 1822 3584 
Q 1619 3391 1289 3197 
Q 959 3003 697 2906 
L 697 3450 
Q 1169 3672 1522 3987 
Q 1875 4303 2022 4600 
L 2384 4600 
L 2384 0 
z
" transform="scale(0.015625)"/>
       </defs>
       <use xlink:href="#ArialMT-41"/>
       <use xlink:href="#ArialMT-50" x="66.699219"/>
       <use xlink:href="#ArialMT-5f" x="133.398438"/>
       <use xlink:href="#ArialMT-54" x="189.013672"/>
       <use xlink:href="#ArialMT-31" x="250.097656"/>
      </g>
     </g>
    </g>
    <g id="xtick_7">
     <g id="line2d_7">
      <path d="M 113.670864 199.4 
L 113.670864 23.8 
" clip-path="url(#p93fb89ecc1)" style="fill: none; stroke: #cccccc; stroke-width: 0.8; stroke-linecap: round"/>
     </g>
     <g id="text_7">
      <!-- TF-core -->
      <g style="fill: #262626" transform="translate(115.945801 238.49725)rotate(-90)scale(0.088 -0.088)">
       <use xlink:href="#ArialMT-54"/>
       <use xlink:href="#ArialMT-46" x="61.083984"/>
       <use xlink:href="#ArialMT-2d" x="122.167969"/>
       <use xlink:href="#ArialMT-63" x="155.46875"/>
       <use xlink:href="#ArialMT-6f" x="205.46875"/>
       <use xlink:href="#ArialMT-72" x="261.083984"/>
       <use xlink:href="#ArialMT-65" x="294.384766"/>
      </g>
     </g>
    </g>
    <g id="xtick_8">
     <g id="line2d_8">
      <path d="M 124.720227 199.4 
L 124.720227 23.8 
" clip-path="url(#p93fb89ecc1)" style="fill: none; stroke: #cccccc; stroke-width: 0.8; stroke-linecap: round"/>
     </g>
     <g id="text_8">
      <!-- TF-hAIkal -->
      <g style="fill: #262626" transform="translate(126.995165 245.837)rotate(-90)scale(0.088 -0.088)">
       <use xlink:href="#ArialMT-54"/>
       <use xlink:href="#ArialMT-46" x="61.083984"/>
       <use xlink:href="#ArialMT-2d" x="122.167969"/>
       <use xlink:href="#ArialMT-68" x="155.46875"/>
       <use xlink:href="#ArialMT-41" x="211.083984"/>
       <use xlink:href="#ArialMT-49" x="277.783203"/>
       <use xlink:href="#ArialMT-6b" x="305.566406"/>
       <use xlink:href="#ArialMT-61" x="355.566406"/>
       <use xlink:href="#ArialMT-6c" x="411.181641"/>
      </g>
     </g>
    </g>
    <g id="xtick_9">
     <g id="line2d_9">
      <path d="M 135.769591 199.4 
L 135.769591 23.8 
" clip-path="url(#p93fb89ecc1)" style="fill: none; stroke: #cccccc; stroke-width: 0.8; stroke-linecap: round"/>
     </g>
     <g id="text_9">
      <!-- AP_PISA -->
      <g style="fill: #262626" transform="translate(138.098153 244.38775)rotate(-90)scale(0.088 -0.088)">
       <use xlink:href="#ArialMT-41"/>
       <use xlink:href="#ArialMT-50" x="66.699219"/>
       <use xlink:href="#ArialMT-5f" x="133.398438"/>
       <use xlink:href="#ArialMT-50" x="189.013672"/>
       <use xlink:href="#ArialMT-49" x="255.712891"/>
       <use xlink:href="#ArialMT-53" x="283.496094"/>
       <use xlink:href="#ArialMT-41" x="350.195312"/>
      </g>
     </g>
    </g>
    <g id="xtick_10">
     <g id="line2d_10">
      <path d="M 146.818955 199.4 
L 146.818955 23.8 
" clip-path="url(#p93fb89ecc1)" style="fill: none; stroke: #cccccc; stroke-width: 0.8; stroke-linecap: round"/>
     </g>
     <g id="text_10">
      <!-- ZRANK -->
      <g style="fill: #262626" transform="translate(149.093892 237.525125)rotate(-90)scale(0.088 -0.088)">
       <defs>
        <path id="ArialMT-5a" d="M 128 0 
L 128 563 
L 2475 3497 
Q 2725 3809 2950 4041 
L 394 4041 
L 394 4581 
L 3675 4581 
L 3675 4041 
L 1103 863 
L 825 541 
L 3750 541 
L 3750 0 
L 128 0 
z
" transform="scale(0.015625)"/>
        <path id="ArialMT-4e" d="M 488 0 
L 488 4581 
L 1109 4581 
L 3516 984 
L 3516 4581 
L 4097 4581 
L 4097 0 
L 3475 0 
L 1069 3600 
L 1069 0 
L 488 0 
z
" transform="scale(0.015625)"/>
        <path id="ArialMT-4b" d="M 469 0 
L 469 4581 
L 1075 4581 
L 1075 2309 
L 3350 4581 
L 4172 4581 
L 2250 2725 
L 4256 0 
L 3456 0 
L 1825 2319 
L 1075 1588 
L 1075 0 
L 469 0 
z
" transform="scale(0.015625)"/>
       </defs>
       <use xlink:href="#ArialMT-5a"/>
       <use xlink:href="#ArialMT-52" x="61.083984"/>
       <use xlink:href="#ArialMT-41" x="133.300781"/>
       <use xlink:href="#ArialMT-4e" x="200"/>
       <use xlink:href="#ArialMT-4b" x="272.216797"/>
      </g>
     </g>
    </g>
    <g id="xtick_11">
     <g id="line2d_11">
      <path d="M 157.868318 199.4 
L 157.868318 23.8 
" clip-path="url(#p93fb89ecc1)" style="fill: none; stroke: #cccccc; stroke-width: 0.8; stroke-linecap: round"/>
     </g>
     <g id="text_11">
      <!-- CP_BT -->
      <g style="fill: #262626" transform="translate(160.196881 236.0635)rotate(-90)scale(0.088 -0.088)">
       <defs>
        <path id="ArialMT-42" d="M 469 0 
L 469 4581 
L 2188 4581 
Q 2713 4581 3030 4442 
Q 3347 4303 3526 4014 
Q 3706 3725 3706 3409 
Q 3706 3116 3547 2856 
Q 3388 2597 3066 2438 
Q 3481 2316 3704 2022 
Q 3928 1728 3928 1328 
Q 3928 1006 3792 729 
Q 3656 453 3456 303 
Q 3256 153 2954 76 
Q 2653 0 2216 0 
L 469 0 
z
M 1075 2656 
L 2066 2656 
Q 2469 2656 2644 2709 
Q 2875 2778 2992 2937 
Q 3109 3097 3109 3338 
Q 3109 3566 3000 3739 
Q 2891 3913 2687 3977 
Q 2484 4041 1991 4041 
L 1075 4041 
L 1075 2656 
z
M 1075 541 
L 2216 541 
Q 2509 541 2628 563 
Q 2838 600 2978 687 
Q 3119 775 3209 942 
Q 3300 1109 3300 1328 
Q 3300 1584 3169 1773 
Q 3038 1963 2805 2039 
Q 2572 2116 2134 2116 
L 1075 2116 
L 1075 541 
z
" transform="scale(0.015625)"/>
       </defs>
       <use xlink:href="#ArialMT-43"/>
       <use xlink:href="#ArialMT-50" x="72.216797"/>
       <use xlink:href="#ArialMT-5f" x="138.916016"/>
       <use xlink:href="#ArialMT-42" x="194.53125"/>
       <use xlink:href="#ArialMT-54" x="261.230469"/>
      </g>
     </g>
    </g>
    <g id="xtick_12">
     <g id="line2d_12">
      <path d="M 168.917682 199.4 
L 168.917682 23.8 
" clip-path="url(#p93fb89ecc1)" style="fill: none; stroke: #cccccc; stroke-width: 0.8; stroke-linecap: round"/>
     </g>
     <g id="text_12">
      <!-- AP_T2 -->
      <g style="fill: #262626" transform="translate(171.205682 234.601875)rotate(-90)scale(0.088 -0.088)">
       <defs>
        <path id="ArialMT-32" d="M 3222 541 
L 3222 0 
L 194 0 
Q 188 203 259 391 
Q 375 700 629 1000 
Q 884 1300 1366 1694 
Q 2113 2306 2375 2664 
Q 2638 3022 2638 3341 
Q 2638 3675 2398 3904 
Q 2159 4134 1775 4134 
Q 1369 4134 1125 3890 
Q 881 3647 878 3216 
L 300 3275 
Q 359 3922 746 4261 
Q 1134 4600 1788 4600 
Q 2447 4600 2831 4234 
Q 3216 3869 3216 3328 
Q 3216 3053 3103 2787 
Q 2991 2522 2730 2228 
Q 2469 1934 1863 1422 
Q 1356 997 1212 845 
Q 1069 694 975 541 
L 3222 541 
z
" transform="scale(0.015625)"/>
       </defs>
       <use xlink:href="#ArialMT-41"/>
       <use xlink:href="#ArialMT-50" x="66.699219"/>
       <use xlink:href="#ArialMT-5f" x="133.398438"/>
       <use xlink:href="#ArialMT-54" x="189.013672"/>
       <use xlink:href="#ArialMT-32" x="250.097656"/>
      </g>
     </g>
    </g>
    <g id="xtick_13">
     <g id="line2d_13">
      <path d="M 179.967045 199.4 
L 179.967045 23.8 
" clip-path="url(#p93fb89ecc1)" style="fill: none; stroke: #cccccc; stroke-width: 0.8; stroke-linecap: round"/>
     </g>
     <g id="text_13">
      <!-- AP_GEOMETRIC -->
      <g style="fill: #262626" transform="translate(182.298358 277.622875)rotate(-90)scale(0.088 -0.088)">
       <defs>
        <path id="ArialMT-47" d="M 2638 1797 
L 2638 2334 
L 4578 2338 
L 4578 638 
Q 4131 281 3656 101 
Q 3181 -78 2681 -78 
Q 2006 -78 1454 211 
Q 903 500 622 1047 
Q 341 1594 341 2269 
Q 341 2938 620 3517 
Q 900 4097 1425 4378 
Q 1950 4659 2634 4659 
Q 3131 4659 3532 4498 
Q 3934 4338 4162 4050 
Q 4391 3763 4509 3300 
L 3963 3150 
Q 3859 3500 3706 3700 
Q 3553 3900 3268 4020 
Q 2984 4141 2638 4141 
Q 2222 4141 1919 4014 
Q 1616 3888 1430 3681 
Q 1244 3475 1141 3228 
Q 966 2803 966 2306 
Q 966 1694 1177 1281 
Q 1388 869 1791 669 
Q 2194 469 2647 469 
Q 3041 469 3416 620 
Q 3791 772 3984 944 
L 3984 1797 
L 2638 1797 
z
" transform="scale(0.015625)"/>
        <path id="ArialMT-45" d="M 506 0 
L 506 4581 
L 3819 4581 
L 3819 4041 
L 1113 4041 
L 1113 2638 
L 3647 2638 
L 3647 2100 
L 1113 2100 
L 1113 541 
L 3925 541 
L 3925 0 
L 506 0 
z
" transform="scale(0.015625)"/>
        <path id="ArialMT-4f" d="M 309 2231 
Q 309 3372 921 4017 
Q 1534 4663 2503 4663 
Q 3138 4663 3647 4359 
Q 4156 4056 4423 3514 
Q 4691 2972 4691 2284 
Q 4691 1588 4409 1038 
Q 4128 488 3612 205 
Q 3097 -78 2500 -78 
Q 1853 -78 1343 234 
Q 834 547 571 1087 
Q 309 1628 309 2231 
z
M 934 2222 
Q 934 1394 1379 917 
Q 1825 441 2497 441 
Q 3181 441 3623 922 
Q 4066 1403 4066 2288 
Q 4066 2847 3877 3264 
Q 3688 3681 3323 3911 
Q 2959 4141 2506 4141 
Q 1863 4141 1398 3698 
Q 934 3256 934 2222 
z
" transform="scale(0.015625)"/>
        <path id="ArialMT-4d" d="M 475 0 
L 475 4581 
L 1388 4581 
L 2472 1338 
Q 2622 884 2691 659 
Q 2769 909 2934 1394 
L 4031 4581 
L 4847 4581 
L 4847 0 
L 4263 0 
L 4263 3834 
L 2931 0 
L 2384 0 
L 1059 3900 
L 1059 0 
L 475 0 
z
" transform="scale(0.015625)"/>
       </defs>
       <use xlink:href="#ArialMT-41"/>
       <use xlink:href="#ArialMT-50" x="66.699219"/>
       <use xlink:href="#ArialMT-5f" x="133.398438"/>
       <use xlink:href="#ArialMT-47" x="189.013672"/>
       <use xlink:href="#ArialMT-45" x="266.796875"/>
       <use xlink:href="#ArialMT-4f" x="333.496094"/>
       <use xlink:href="#ArialMT-4d" x="411.279297"/>
       <use xlink:href="#ArialMT-45" x="494.580078"/>
       <use xlink:href="#ArialMT-54" x="561.279297"/>
       <use xlink:href="#ArialMT-52" x="622.363281"/>
       <use xlink:href="#ArialMT-49" x="694.580078"/>
       <use xlink:href="#ArialMT-43" x="722.363281"/>
      </g>
     </g>
    </g>
    <g id="xtick_14">
     <g id="line2d_14">
      <path d="M 191.016409 199.4 
L 191.016409 23.8 
" clip-path="url(#p93fb89ecc1)" style="fill: none; stroke: #cccccc; stroke-width: 0.8; stroke-linecap: round"/>
     </g>
     <g id="text_14">
      <!-- CP_TB -->
      <g style="fill: #262626" transform="translate(193.344972 236.0635)rotate(-90)scale(0.088 -0.088)">
       <use xlink:href="#ArialMT-43"/>
       <use xlink:href="#ArialMT-50" x="72.216797"/>
       <use xlink:href="#ArialMT-5f" x="138.916016"/>
       <use xlink:href="#ArialMT-54" x="194.53125"/>
       <use xlink:href="#ArialMT-42" x="255.615234"/>
      </g>
     </g>
    </g>
    <g id="xtick_15">
     <g id="line2d_15">
      <path d="M 202.065773 199.4 
L 202.065773 23.8 
" clip-path="url(#p93fb89ecc1)" style="fill: none; stroke: #cccccc; stroke-width: 0.8; stroke-linecap: round"/>
     </g>
     <g id="text_15">
      <!-- CP_MJ2h -->
      <g style="fill: #262626" transform="translate(204.394335 246.336125)rotate(-90)scale(0.088 -0.088)">
       <defs>
        <path id="ArialMT-4a" d="M 184 1300 
L 731 1375 
Q 753 850 928 656 
Q 1103 463 1413 463 
Q 1641 463 1806 567 
Q 1972 672 2034 851 
Q 2097 1031 2097 1425 
L 2097 4581 
L 2703 4581 
L 2703 1459 
Q 2703 884 2564 568 
Q 2425 253 2123 87 
Q 1822 -78 1416 -78 
Q 813 -78 492 269 
Q 172 616 184 1300 
z
" transform="scale(0.015625)"/>
       </defs>
       <use xlink:href="#ArialMT-43"/>
       <use xlink:href="#ArialMT-50" x="72.216797"/>
       <use xlink:href="#ArialMT-5f" x="138.916016"/>
       <use xlink:href="#ArialMT-4d" x="194.53125"/>
       <use xlink:href="#ArialMT-4a" x="277.832031"/>
       <use xlink:href="#ArialMT-32" x="327.832031"/>
       <use xlink:href="#ArialMT-68" x="383.447266"/>
      </g>
     </g>
    </g>
    <g id="xtick_16">
     <g id="line2d_16">
      <path d="M 213.115136 199.4 
L 213.115136 23.8 
" clip-path="url(#p93fb89ecc1)" style="fill: none; stroke: #cccccc; stroke-width: 0.8; stroke-linecap: round"/>
     </g>
     <g id="text_16">
      <!-- CP_Qp -->
      <g style="fill: #262626" transform="translate(215.446449 236.557125)rotate(-90)scale(0.088 -0.088)">
       <defs>
        <path id="ArialMT-51" d="M 3966 491 
Q 4388 200 4744 66 
L 4566 -356 
Q 4072 -178 3581 206 
Q 3072 -78 2456 -78 
Q 1834 -78 1328 222 
Q 822 522 548 1065 
Q 275 1609 275 2291 
Q 275 2969 550 3525 
Q 825 4081 1333 4372 
Q 1841 4663 2469 4663 
Q 3103 4663 3612 4361 
Q 4122 4059 4389 3517 
Q 4656 2975 4656 2294 
Q 4656 1728 4484 1276 
Q 4313 825 3966 491 
z
M 2631 1266 
Q 3156 1119 3497 828 
Q 4031 1316 4031 2294 
Q 4031 2850 3842 3265 
Q 3653 3681 3289 3911 
Q 2925 4141 2472 4141 
Q 1794 4141 1347 3677 
Q 900 3213 900 2291 
Q 900 1397 1342 919 
Q 1784 441 2472 441 
Q 2797 441 3084 563 
Q 2800 747 2484 825 
L 2631 1266 
z
" transform="scale(0.015625)"/>
        <path id="ArialMT-70" d="M 422 -1272 
L 422 3319 
L 934 3319 
L 934 2888 
Q 1116 3141 1344 3267 
Q 1572 3394 1897 3394 
Q 2322 3394 2647 3175 
Q 2972 2956 3137 2557 
Q 3303 2159 3303 1684 
Q 3303 1175 3120 767 
Q 2938 359 2589 142 
Q 2241 -75 1856 -75 
Q 1575 -75 1351 44 
Q 1128 163 984 344 
L 984 -1272 
L 422 -1272 
z
M 931 1641 
Q 931 1000 1190 694 
Q 1450 388 1819 388 
Q 2194 388 2461 705 
Q 2728 1022 2728 1688 
Q 2728 2322 2467 2637 
Q 2206 2953 1844 2953 
Q 1484 2953 1207 2617 
Q 931 2281 931 1641 
z
" transform="scale(0.015625)"/>
       </defs>
       <use xlink:href="#ArialMT-43"/>
       <use xlink:href="#ArialMT-50" x="72.216797"/>
       <use xlink:href="#ArialMT-5f" x="138.916016"/>
       <use xlink:href="#ArialMT-51" x="194.53125"/>
       <use xlink:href="#ArialMT-70" x="272.314453"/>
      </g>
     </g>
    </g>
    <g id="xtick_17">
     <g id="line2d_17">
      <path d="M 224.1645 199.4 
L 224.1645 23.8 
" clip-path="url(#p93fb89ecc1)" style="fill: none; stroke: #cccccc; stroke-width: 0.8; stroke-linecap: round"/>
     </g>
     <g id="text_17">
      <!-- CP_TS -->
      <g style="fill: #262626" transform="translate(226.493063 236.0635)rotate(-90)scale(0.088 -0.088)">
       <use xlink:href="#ArialMT-43"/>
       <use xlink:href="#ArialMT-50" x="72.216797"/>
       <use xlink:href="#ArialMT-5f" x="138.916016"/>
       <use xlink:href="#ArialMT-54" x="194.53125"/>
       <use xlink:href="#ArialMT-53" x="255.615234"/>
      </g>
     </g>
    </g>
    <g id="xtick_18">
     <g id="line2d_18">
      <path d="M 235.213864 199.4 
L 235.213864 23.8 
" clip-path="url(#p93fb89ecc1)" style="fill: none; stroke: #cccccc; stroke-width: 0.8; stroke-linecap: round"/>
     </g>
     <g id="text_18">
      <!-- CP_HLPL -->
      <g style="fill: #262626" transform="translate(237.542426 246.831125)rotate(-90)scale(0.088 -0.088)">
       <defs>
        <path id="ArialMT-48" d="M 513 0 
L 513 4581 
L 1119 4581 
L 1119 2700 
L 3500 2700 
L 3500 4581 
L 4106 4581 
L 4106 0 
L 3500 0 
L 3500 2159 
L 1119 2159 
L 1119 0 
L 513 0 
z
" transform="scale(0.015625)"/>
        <path id="ArialMT-4c" d="M 469 0 
L 469 4581 
L 1075 4581 
L 1075 541 
L 3331 541 
L 3331 0 
L 469 0 
z
" transform="scale(0.015625)"/>
       </defs>
       <use xlink:href="#ArialMT-43"/>
       <use xlink:href="#ArialMT-50" x="72.216797"/>
       <use xlink:href="#ArialMT-5f" x="138.916016"/>
       <use xlink:href="#ArialMT-48" x="194.53125"/>
       <use xlink:href="#ArialMT-4c" x="266.748047"/>
       <use xlink:href="#ArialMT-50" x="322.363281"/>
       <use xlink:href="#ArialMT-4c" x="389.0625"/>
      </g>
     </g>
    </g>
    <g id="xtick_19">
     <g id="line2d_19">
      <path d="M 246.263227 199.4 
L 246.263227 23.8 
" clip-path="url(#p93fb89ecc1)" style="fill: none; stroke: #cccccc; stroke-width: 0.8; stroke-linecap: round"/>
     </g>
     <g id="text_19">
      <!-- CP_BFKV -->
      <g style="fill: #262626" transform="translate(248.59179 247.80325)rotate(-90)scale(0.088 -0.088)">
       <defs>
        <path id="ArialMT-56" d="M 1803 0 
L 28 4581 
L 684 4581 
L 1875 1253 
Q 2019 853 2116 503 
Q 2222 878 2363 1253 
L 3600 4581 
L 4219 4581 
L 2425 0 
L 1803 0 
z
" transform="scale(0.015625)"/>
       </defs>
       <use xlink:href="#ArialMT-43"/>
       <use xlink:href="#ArialMT-50" x="72.216797"/>
       <use xlink:href="#ArialMT-5f" x="138.916016"/>
       <use xlink:href="#ArialMT-42" x="194.53125"/>
       <use xlink:href="#ArialMT-46" x="261.230469"/>
       <use xlink:href="#ArialMT-4b" x="322.314453"/>
       <use xlink:href="#ArialMT-56" x="389.013672"/>
      </g>
     </g>
    </g>
    <g id="xtick_20">
     <g id="line2d_20">
      <path d="M 257.312591 199.4 
L 257.312591 23.8 
" clip-path="url(#p93fb89ecc1)" style="fill: none; stroke: #cccccc; stroke-width: 0.8; stroke-linecap: round"/>
     </g>
     <g id="text_20">
      <!-- CP_TD -->
      <g style="fill: #262626" transform="translate(259.641153 236.548875)rotate(-90)scale(0.088 -0.088)">
       <defs>
        <path id="ArialMT-44" d="M 494 0 
L 494 4581 
L 2072 4581 
Q 2606 4581 2888 4516 
Q 3281 4425 3559 4188 
Q 3922 3881 4101 3404 
Q 4281 2928 4281 2316 
Q 4281 1794 4159 1391 
Q 4038 988 3847 723 
Q 3656 459 3429 307 
Q 3203 156 2883 78 
Q 2563 0 2147 0 
L 494 0 
z
M 1100 541 
L 2078 541 
Q 2531 541 2789 625 
Q 3047 709 3200 863 
Q 3416 1078 3536 1442 
Q 3656 1806 3656 2325 
Q 3656 3044 3420 3430 
Q 3184 3816 2847 3947 
Q 2603 4041 2063 4041 
L 1100 4041 
L 1100 541 
z
" transform="scale(0.015625)"/>
       </defs>
       <use xlink:href="#ArialMT-43"/>
       <use xlink:href="#ArialMT-50" x="72.216797"/>
       <use xlink:href="#ArialMT-5f" x="138.916016"/>
       <use xlink:href="#ArialMT-54" x="194.53125"/>
       <use xlink:href="#ArialMT-44" x="255.615234"/>
      </g>
     </g>
    </g>
   </g>
   <g id="matplotlib.axis_2">
    <g id="ytick_1">
     <g id="line2d_21">
      <path d="M 41.85 199.4 
L 262.837273 199.4 
" clip-path="url(#p93fb89ecc1)" style="fill: none; stroke: #cccccc; stroke-width: 0.8; stroke-linecap: round"/>
     </g>
     <g id="text_21">
      <!-- 0 -->
      <g style="fill: #262626" transform="translate(28.656375 202.549438)scale(0.088 -0.088)">
       <defs>
        <path id="ArialMT-30" d="M 266 2259 
Q 266 3072 433 3567 
Q 600 4063 929 4331 
Q 1259 4600 1759 4600 
Q 2128 4600 2406 4451 
Q 2684 4303 2865 4023 
Q 3047 3744 3150 3342 
Q 3253 2941 3253 2259 
Q 3253 1453 3087 958 
Q 2922 463 2592 192 
Q 2263 -78 1759 -78 
Q 1097 -78 719 397 
Q 266 969 266 2259 
z
M 844 2259 
Q 844 1131 1108 757 
Q 1372 384 1759 384 
Q 2147 384 2411 759 
Q 2675 1134 2675 2259 
Q 2675 3391 2411 3762 
Q 2147 4134 1753 4134 
Q 1366 4134 1134 3806 
Q 844 3388 844 2259 
z
" transform="scale(0.015625)"/>
       </defs>
       <use xlink:href="#ArialMT-30"/>
      </g>
     </g>
    </g>
    <g id="ytick_2">
     <g id="line2d_22">
      <path d="M 41.85 160.808078 
L 262.837273 160.808078 
" clip-path="url(#p93fb89ecc1)" style="fill: none; stroke: #cccccc; stroke-width: 0.8; stroke-linecap: round"/>
     </g>
     <g id="text_22">
      <!-- 20 -->
      <g style="fill: #262626" transform="translate(23.76275 163.957515)scale(0.088 -0.088)">
       <use xlink:href="#ArialMT-32"/>
       <use xlink:href="#ArialMT-30" x="55.615234"/>
      </g>
     </g>
    </g>
    <g id="ytick_3">
     <g id="line2d_23">
      <path d="M 41.85 122.216155 
L 262.837273 122.216155 
" clip-path="url(#p93fb89ecc1)" style="fill: none; stroke: #cccccc; stroke-width: 0.8; stroke-linecap: round"/>
     </g>
     <g id="text_23">
      <!-- 40 -->
      <g style="fill: #262626" transform="translate(23.76275 125.365593)scale(0.088 -0.088)">
       <defs>
        <path id="ArialMT-34" d="M 2069 0 
L 2069 1097 
L 81 1097 
L 81 1613 
L 2172 4581 
L 2631 4581 
L 2631 1613 
L 3250 1613 
L 3250 1097 
L 2631 1097 
L 2631 0 
L 2069 0 
z
M 2069 1613 
L 2069 3678 
L 634 1613 
L 2069 1613 
z
" transform="scale(0.015625)"/>
       </defs>
       <use xlink:href="#ArialMT-34"/>
       <use xlink:href="#ArialMT-30" x="55.615234"/>
      </g>
     </g>
    </g>
    <g id="ytick_4">
     <g id="line2d_24">
      <path d="M 41.85 83.624233 
L 262.837273 83.624233 
" clip-path="url(#p93fb89ecc1)" style="fill: none; stroke: #cccccc; stroke-width: 0.8; stroke-linecap: round"/>
     </g>
     <g id="text_24">
      <!-- 60 -->
      <g style="fill: #262626" transform="translate(23.76275 86.773671)scale(0.088 -0.088)">
       <defs>
        <path id="ArialMT-36" d="M 3184 3459 
L 2625 3416 
Q 2550 3747 2413 3897 
Q 2184 4138 1850 4138 
Q 1581 4138 1378 3988 
Q 1113 3794 959 3422 
Q 806 3050 800 2363 
Q 1003 2672 1297 2822 
Q 1591 2972 1913 2972 
Q 2475 2972 2870 2558 
Q 3266 2144 3266 1488 
Q 3266 1056 3080 686 
Q 2894 316 2569 119 
Q 2244 -78 1831 -78 
Q 1128 -78 684 439 
Q 241 956 241 2144 
Q 241 3472 731 4075 
Q 1159 4600 1884 4600 
Q 2425 4600 2770 4297 
Q 3116 3994 3184 3459 
z
M 888 1484 
Q 888 1194 1011 928 
Q 1134 663 1356 523 
Q 1578 384 1822 384 
Q 2178 384 2434 671 
Q 2691 959 2691 1453 
Q 2691 1928 2437 2201 
Q 2184 2475 1800 2475 
Q 1419 2475 1153 2201 
Q 888 1928 888 1484 
z
" transform="scale(0.015625)"/>
       </defs>
       <use xlink:href="#ArialMT-36"/>
       <use xlink:href="#ArialMT-30" x="55.615234"/>
      </g>
     </g>
    </g>
    <g id="ytick_5">
     <g id="line2d_25">
      <path d="M 41.85 45.032311 
L 262.837273 45.032311 
" clip-path="url(#p93fb89ecc1)" style="fill: none; stroke: #cccccc; stroke-width: 0.8; stroke-linecap: round"/>
     </g>
     <g id="text_25">
      <!-- 80 -->
      <g style="fill: #262626" transform="translate(23.76275 48.181748)scale(0.088 -0.088)">
       <defs>
        <path id="ArialMT-38" d="M 1131 2484 
Q 781 2613 612 2850 
Q 444 3088 444 3419 
Q 444 3919 803 4259 
Q 1163 4600 1759 4600 
Q 2359 4600 2725 4251 
Q 3091 3903 3091 3403 
Q 3091 3084 2923 2848 
Q 2756 2613 2416 2484 
Q 2838 2347 3058 2040 
Q 3278 1734 3278 1309 
Q 3278 722 2862 322 
Q 2447 -78 1769 -78 
Q 1091 -78 675 323 
Q 259 725 259 1325 
Q 259 1772 486 2073 
Q 713 2375 1131 2484 
z
M 1019 3438 
Q 1019 3113 1228 2906 
Q 1438 2700 1772 2700 
Q 2097 2700 2305 2904 
Q 2513 3109 2513 3406 
Q 2513 3716 2298 3927 
Q 2084 4138 1766 4138 
Q 1444 4138 1231 3931 
Q 1019 3725 1019 3438 
z
M 838 1322 
Q 838 1081 952 856 
Q 1066 631 1291 507 
Q 1516 384 1775 384 
Q 2178 384 2440 643 
Q 2703 903 2703 1303 
Q 2703 1709 2433 1975 
Q 2163 2241 1756 2241 
Q 1359 2241 1098 1978 
Q 838 1716 838 1322 
z
" transform="scale(0.015625)"/>
       </defs>
       <use xlink:href="#ArialMT-38"/>
       <use xlink:href="#ArialMT-30" x="55.615234"/>
      </g>
     </g>
    </g>
    <g id="text_26">
     <!-- Percentage -->
     <g style="fill: #262626" transform="translate(17.74225 136.149)rotate(-90)scale(0.096 -0.096)">
      <defs>
       <path id="ArialMT-6e" d="M 422 0 
L 422 3319 
L 928 3319 
L 928 2847 
Q 1294 3394 1984 3394 
Q 2284 3394 2536 3286 
Q 2788 3178 2913 3003 
Q 3038 2828 3088 2588 
Q 3119 2431 3119 2041 
L 3119 0 
L 2556 0 
L 2556 2019 
Q 2556 2363 2490 2533 
Q 2425 2703 2258 2804 
Q 2091 2906 1866 2906 
Q 1506 2906 1245 2678 
Q 984 2450 984 1813 
L 984 0 
L 422 0 
z
" transform="scale(0.015625)"/>
       <path id="ArialMT-74" d="M 1650 503 
L 1731 6 
Q 1494 -44 1306 -44 
Q 1000 -44 831 53 
Q 663 150 594 308 
Q 525 466 525 972 
L 525 2881 
L 113 2881 
L 113 3319 
L 525 3319 
L 525 4141 
L 1084 4478 
L 1084 3319 
L 1650 3319 
L 1650 2881 
L 1084 2881 
L 1084 941 
Q 1084 700 1114 631 
Q 1144 563 1211 522 
Q 1278 481 1403 481 
Q 1497 481 1650 503 
z
" transform="scale(0.015625)"/>
       <path id="ArialMT-67" d="M 319 -275 
L 866 -356 
Q 900 -609 1056 -725 
Q 1266 -881 1628 -881 
Q 2019 -881 2231 -725 
Q 2444 -569 2519 -288 
Q 2563 -116 2559 434 
Q 2191 0 1641 0 
Q 956 0 581 494 
Q 206 988 206 1678 
Q 206 2153 378 2554 
Q 550 2956 876 3175 
Q 1203 3394 1644 3394 
Q 2231 3394 2613 2919 
L 2613 3319 
L 3131 3319 
L 3131 450 
Q 3131 -325 2973 -648 
Q 2816 -972 2473 -1159 
Q 2131 -1347 1631 -1347 
Q 1038 -1347 672 -1080 
Q 306 -813 319 -275 
z
M 784 1719 
Q 784 1066 1043 766 
Q 1303 466 1694 466 
Q 2081 466 2343 764 
Q 2606 1063 2606 1700 
Q 2606 2309 2336 2618 
Q 2066 2928 1684 2928 
Q 1309 2928 1046 2623 
Q 784 2319 784 1719 
z
" transform="scale(0.015625)"/>
      </defs>
      <use xlink:href="#ArialMT-50"/>
      <use xlink:href="#ArialMT-65" x="66.699219"/>
      <use xlink:href="#ArialMT-72" x="122.314453"/>
      <use xlink:href="#ArialMT-63" x="155.615234"/>
      <use xlink:href="#ArialMT-65" x="205.615234"/>
      <use xlink:href="#ArialMT-6e" x="261.230469"/>
      <use xlink:href="#ArialMT-74" x="316.845703"/>
      <use xlink:href="#ArialMT-61" x="344.628906"/>
      <use xlink:href="#ArialMT-67" x="400.244141"/>
      <use xlink:href="#ArialMT-65" x="455.859375"/>
     </g>
    </g>
   </g>
   <g id="patch_3">
    <path d="M 44.612341 199.4 
L 46.453902 199.4 
L 46.453902 102.920194 
L 44.612341 102.920194 
z
" clip-path="url(#p93fb89ecc1)" style="fill: #4c72b0; stroke: #ffffff; stroke-width: 0.8; stroke-linejoin: miter"/>
   </g>
   <g id="patch_4">
    <path d="M 55.661705 199.4 
L 57.503265 199.4 
L 57.503265 115.192426 
L 55.661705 115.192426 
z
" clip-path="url(#p93fb89ecc1)" style="fill: #4c72b0; stroke: #ffffff; stroke-width: 0.8; stroke-linejoin: miter"/>
   </g>
   <g id="patch_5">
    <path d="M 66.711068 199.4 
L 68.552629 199.4 
L 68.552629 136.244319 
L 66.711068 136.244319 
z
" clip-path="url(#p93fb89ecc1)" style="fill: #4c72b0; stroke: #ffffff; stroke-width: 0.8; stroke-linejoin: miter"/>
   </g>
   <g id="patch_6">
    <path d="M 77.760432 199.4 
L 79.601992 199.4 
L 79.601992 115.192426 
L 77.760432 115.192426 
z
" clip-path="url(#p93fb89ecc1)" style="fill: #4c72b0; stroke: #ffffff; stroke-width: 0.8; stroke-linejoin: miter"/>
   </g>
   <g id="patch_7">
    <path d="M 88.809795 199.4 
L 90.651356 199.4 
L 90.651356 171.324377 
L 88.809795 171.324377 
z
" clip-path="url(#p93fb89ecc1)" style="fill: #4c72b0; stroke: #ffffff; stroke-width: 0.8; stroke-linejoin: miter"/>
   </g>
   <g id="patch_8">
    <path d="M 99.859159 199.4 
L 101.70072 199.4 
L 101.70072 164.319943 
L 99.859159 164.319943 
z
" clip-path="url(#p93fb89ecc1)" style="fill: #4c72b0; stroke: #ffffff; stroke-width: 0.8; stroke-linejoin: miter"/>
   </g>
   <g id="patch_9">
    <path d="M 110.908523 199.4 
L 112.750083 199.4 
L 112.750083 139.756184 
L 110.908523 139.756184 
z
" clip-path="url(#p93fb89ecc1)" style="fill: #4c72b0; stroke: #ffffff; stroke-width: 0.8; stroke-linejoin: miter"/>
   </g>
   <g id="patch_10">
    <path d="M 121.957886 199.4 
L 123.799447 199.4 
L 123.799447 143.268049 
L 121.957886 143.268049 
z
" clip-path="url(#p93fb89ecc1)" style="fill: #4c72b0; stroke: #ffffff; stroke-width: 0.8; stroke-linejoin: miter"/>
   </g>
   <g id="patch_11">
    <path d="M 133.00725 199.4 
L 134.848811 199.4 
L 134.848811 157.296213 
L 133.00725 157.296213 
z
" clip-path="url(#p93fb89ecc1)" style="fill: #4c72b0; stroke: #ffffff; stroke-width: 0.8; stroke-linejoin: miter"/>
   </g>
   <g id="patch_12">
    <path d="M 144.056614 199.4 
L 145.898174 199.4 
L 145.898174 157.296213 
L 144.056614 157.296213 
z
" clip-path="url(#p93fb89ecc1)" style="fill: #4c72b0; stroke: #ffffff; stroke-width: 0.8; stroke-linejoin: miter"/>
   </g>
   <g id="patch_13">
    <path d="M 155.105977 199.4 
L 156.947538 199.4 
L 156.947538 160.808078 
L 155.105977 160.808078 
z
" clip-path="url(#p93fb89ecc1)" style="fill: #4c72b0; stroke: #ffffff; stroke-width: 0.8; stroke-linejoin: miter"/>
   </g>
   <g id="patch_14">
    <path d="M 166.155341 199.4 
L 167.996902 199.4 
L 167.996902 164.319943 
L 166.155341 164.319943 
z
" clip-path="url(#p93fb89ecc1)" style="fill: #4c72b0; stroke: #ffffff; stroke-width: 0.8; stroke-linejoin: miter"/>
   </g>
   <g id="patch_15">
    <path d="M 177.204705 199.4 
L 179.046265 199.4 
L 179.046265 167.831808 
L 177.204705 167.831808 
z
" clip-path="url(#p93fb89ecc1)" style="fill: #4c72b0; stroke: #ffffff; stroke-width: 0.8; stroke-linejoin: miter"/>
   </g>
   <g id="patch_16">
    <path d="M 188.254068 199.4 
L 190.095629 199.4 
L 190.095629 167.831808 
L 188.254068 167.831808 
z
" clip-path="url(#p93fb89ecc1)" style="fill: #4c72b0; stroke: #ffffff; stroke-width: 0.8; stroke-linejoin: miter"/>
   </g>
   <g id="patch_17">
    <path d="M 199.303432 199.4 
L 201.144992 199.4 
L 201.144992 171.324377 
L 199.303432 171.324377 
z
" clip-path="url(#p93fb89ecc1)" style="fill: #4c72b0; stroke: #ffffff; stroke-width: 0.8; stroke-linejoin: miter"/>
   </g>
   <g id="patch_18">
    <path d="M 210.352795 199.4 
L 212.194356 199.4 
L 212.194356 174.836241 
L 210.352795 174.836241 
z
" clip-path="url(#p93fb89ecc1)" style="fill: #4c72b0; stroke: #ffffff; stroke-width: 0.8; stroke-linejoin: miter"/>
   </g>
   <g id="patch_19">
    <path d="M 221.402159 199.4 
L 223.24372 199.4 
L 223.24372 181.859971 
L 221.402159 181.859971 
z
" clip-path="url(#p93fb89ecc1)" style="fill: #4c72b0; stroke: #ffffff; stroke-width: 0.8; stroke-linejoin: miter"/>
   </g>
   <g id="patch_20">
    <path d="M 232.451523 199.4 
L 234.293083 199.4 
L 234.293083 164.319943 
L 232.451523 164.319943 
z
" clip-path="url(#p93fb89ecc1)" style="fill: #4c72b0; stroke: #ffffff; stroke-width: 0.8; stroke-linejoin: miter"/>
   </g>
   <g id="patch_21">
    <path d="M 243.500886 199.4 
L 245.342447 199.4 
L 245.342447 164.319943 
L 243.500886 164.319943 
z
" clip-path="url(#p93fb89ecc1)" style="fill: #4c72b0; stroke: #ffffff; stroke-width: 0.8; stroke-linejoin: miter"/>
   </g>
   <g id="patch_22">
    <path d="M 254.55025 199.4 
L 256.391811 199.4 
L 256.391811 181.859971 
L 254.55025 181.859971 
z
" clip-path="url(#p93fb89ecc1)" style="fill: #4c72b0; stroke: #ffffff; stroke-width: 0.8; stroke-linejoin: miter"/>
   </g>
   <g id="patch_23">
    <path d="M 46.453902 199.4 
L 48.295462 199.4 
L 48.295462 91.786425 
L 46.453902 91.786425 
z
" clip-path="url(#p93fb89ecc1)" style="fill: #dd8452; stroke: #ffffff; stroke-width: 0.8; stroke-linejoin: miter"/>
   </g>
   <g id="patch_24">
    <path d="M 57.503265 199.4 
L 59.344826 199.4 
L 59.344826 94.140532 
L 57.503265 94.140532 
z
" clip-path="url(#p93fb89ecc1)" style="fill: #dd8452; stroke: #ffffff; stroke-width: 0.8; stroke-linejoin: miter"/>
   </g>
   <g id="patch_25">
    <path d="M 68.552629 199.4 
L 70.394189 199.4 
L 70.394189 94.140532 
L 68.552629 94.140532 
z
" clip-path="url(#p93fb89ecc1)" style="fill: #dd8452; stroke: #ffffff; stroke-width: 0.8; stroke-linejoin: miter"/>
   </g>
   <g id="patch_26">
    <path d="M 79.601992 199.4 
L 81.443553 199.4 
L 81.443553 101.164262 
L 79.601992 101.164262 
z
" clip-path="url(#p93fb89ecc1)" style="fill: #dd8452; stroke: #ffffff; stroke-width: 0.8; stroke-linejoin: miter"/>
   </g>
   <g id="patch_27">
    <path d="M 90.651356 199.4 
L 92.492917 199.4 
L 92.492917 104.676127 
L 90.651356 104.676127 
z
" clip-path="url(#p93fb89ecc1)" style="fill: #dd8452; stroke: #ffffff; stroke-width: 0.8; stroke-linejoin: miter"/>
   </g>
   <g id="patch_28">
    <path d="M 101.70072 199.4 
L 103.54228 199.4 
L 103.54228 108.187992 
L 101.70072 108.187992 
z
" clip-path="url(#p93fb89ecc1)" style="fill: #dd8452; stroke: #ffffff; stroke-width: 0.8; stroke-linejoin: miter"/>
   </g>
   <g id="patch_29">
    <path d="M 112.750083 199.4 
L 114.591644 199.4 
L 114.591644 115.192426 
L 112.750083 115.192426 
z
" clip-path="url(#p93fb89ecc1)" style="fill: #dd8452; stroke: #ffffff; stroke-width: 0.8; stroke-linejoin: miter"/>
   </g>
   <g id="patch_30">
    <path d="M 123.799447 199.4 
L 125.641008 199.4 
L 125.641008 118.70429 
L 123.799447 118.70429 
z
" clip-path="url(#p93fb89ecc1)" style="fill: #dd8452; stroke: #ffffff; stroke-width: 0.8; stroke-linejoin: miter"/>
   </g>
   <g id="patch_31">
    <path d="M 134.848811 199.4 
L 136.690371 199.4 
L 136.690371 118.70429 
L 134.848811 118.70429 
z
" clip-path="url(#p93fb89ecc1)" style="fill: #dd8452; stroke: #ffffff; stroke-width: 0.8; stroke-linejoin: miter"/>
   </g>
   <g id="patch_32">
    <path d="M 145.898174 199.4 
L 147.739735 199.4 
L 147.739735 122.216155 
L 145.898174 122.216155 
z
" clip-path="url(#p93fb89ecc1)" style="fill: #dd8452; stroke: #ffffff; stroke-width: 0.8; stroke-linejoin: miter"/>
   </g>
   <g id="patch_33">
    <path d="M 156.947538 199.4 
L 158.789098 199.4 
L 158.789098 122.216155 
L 156.947538 122.216155 
z
" clip-path="url(#p93fb89ecc1)" style="fill: #dd8452; stroke: #ffffff; stroke-width: 0.8; stroke-linejoin: miter"/>
   </g>
   <g id="patch_34">
    <path d="M 167.996902 199.4 
L 169.838462 199.4 
L 169.838462 122.216155 
L 167.996902 122.216155 
z
" clip-path="url(#p93fb89ecc1)" style="fill: #dd8452; stroke: #ffffff; stroke-width: 0.8; stroke-linejoin: miter"/>
   </g>
   <g id="patch_35">
    <path d="M 179.046265 199.4 
L 180.887826 199.4 
L 180.887826 122.216155 
L 179.046265 122.216155 
z
" clip-path="url(#p93fb89ecc1)" style="fill: #dd8452; stroke: #ffffff; stroke-width: 0.8; stroke-linejoin: miter"/>
   </g>
   <g id="patch_36">
    <path d="M 190.095629 199.4 
L 191.937189 199.4 
L 191.937189 122.216155 
L 190.095629 122.216155 
z
" clip-path="url(#p93fb89ecc1)" style="fill: #dd8452; stroke: #ffffff; stroke-width: 0.8; stroke-linejoin: miter"/>
   </g>
   <g id="patch_37">
    <path d="M 201.144992 199.4 
L 202.986553 199.4 
L 202.986553 122.216155 
L 201.144992 122.216155 
z
" clip-path="url(#p93fb89ecc1)" style="fill: #dd8452; stroke: #ffffff; stroke-width: 0.8; stroke-linejoin: miter"/>
   </g>
   <g id="patch_38">
    <path d="M 212.194356 199.4 
L 214.035917 199.4 
L 214.035917 122.216155 
L 212.194356 122.216155 
z
" clip-path="url(#p93fb89ecc1)" style="fill: #dd8452; stroke: #ffffff; stroke-width: 0.8; stroke-linejoin: miter"/>
   </g>
   <g id="patch_39">
    <path d="M 223.24372 199.4 
L 225.08528 199.4 
L 225.08528 122.216155 
L 223.24372 122.216155 
z
" clip-path="url(#p93fb89ecc1)" style="fill: #dd8452; stroke: #ffffff; stroke-width: 0.8; stroke-linejoin: miter"/>
   </g>
   <g id="patch_40">
    <path d="M 234.293083 199.4 
L 236.134644 199.4 
L 236.134644 125.72802 
L 234.293083 125.72802 
z
" clip-path="url(#p93fb89ecc1)" style="fill: #dd8452; stroke: #ffffff; stroke-width: 0.8; stroke-linejoin: miter"/>
   </g>
   <g id="patch_41">
    <path d="M 245.342447 199.4 
L 247.184008 199.4 
L 247.184008 129.239885 
L 245.342447 129.239885 
z
" clip-path="url(#p93fb89ecc1)" style="fill: #dd8452; stroke: #ffffff; stroke-width: 0.8; stroke-linejoin: miter"/>
   </g>
   <g id="patch_42">
    <path d="M 256.391811 199.4 
L 258.233371 199.4 
L 258.233371 129.239885 
L 256.391811 129.239885 
z
" clip-path="url(#p93fb89ecc1)" style="fill: #dd8452; stroke: #ffffff; stroke-width: 0.8; stroke-linejoin: miter"/>
   </g>
   <g id="patch_43">
    <path d="M 48.295462 199.4 
L 50.137023 199.4 
L 50.137023 65.814061 
L 48.295462 65.814061 
z
" clip-path="url(#p93fb89ecc1)" style="fill: #55a868; stroke: #ffffff; stroke-width: 0.8; stroke-linejoin: miter"/>
   </g>
   <g id="patch_44">
    <path d="M 59.344826 199.4 
L 61.186386 199.4 
L 61.186386 66.084204 
L 59.344826 66.084204 
z
" clip-path="url(#p93fb89ecc1)" style="fill: #55a868; stroke: #ffffff; stroke-width: 0.8; stroke-linejoin: miter"/>
   </g>
   <g id="patch_45">
    <path d="M 70.394189 199.4 
L 72.23575 199.4 
L 72.23575 66.084204 
L 70.394189 66.084204 
z
" clip-path="url(#p93fb89ecc1)" style="fill: #55a868; stroke: #ffffff; stroke-width: 0.8; stroke-linejoin: miter"/>
   </g>
   <g id="patch_46">
    <path d="M 81.443553 199.4 
L 83.285114 199.4 
L 83.285114 90.647963 
L 81.443553 90.647963 
z
" clip-path="url(#p93fb89ecc1)" style="fill: #55a868; stroke: #ffffff; stroke-width: 0.8; stroke-linejoin: miter"/>
   </g>
   <g id="patch_47">
    <path d="M 92.492917 199.4 
L 94.334477 199.4 
L 94.334477 73.107934 
L 92.492917 73.107934 
z
" clip-path="url(#p93fb89ecc1)" style="fill: #55a868; stroke: #ffffff; stroke-width: 0.8; stroke-linejoin: miter"/>
   </g>
   <g id="patch_48">
    <path d="M 103.54228 199.4 
L 105.383841 199.4 
L 105.383841 66.084204 
L 103.54228 66.084204 
z
" clip-path="url(#p93fb89ecc1)" style="fill: #55a868; stroke: #ffffff; stroke-width: 0.8; stroke-linejoin: miter"/>
   </g>
   <g id="patch_49">
    <path d="M 114.591644 199.4 
L 116.433205 199.4 
L 116.433205 73.107934 
L 114.591644 73.107934 
z
" clip-path="url(#p93fb89ecc1)" style="fill: #55a868; stroke: #ffffff; stroke-width: 0.8; stroke-linejoin: miter"/>
   </g>
   <g id="patch_50">
    <path d="M 125.641008 199.4 
L 127.482568 199.4 
L 127.482568 66.084204 
L 125.641008 66.084204 
z
" clip-path="url(#p93fb89ecc1)" style="fill: #55a868; stroke: #ffffff; stroke-width: 0.8; stroke-linejoin: miter"/>
   </g>
   <g id="patch_51">
    <path d="M 136.690371 199.4 
L 138.531932 199.4 
L 138.531932 69.596069 
L 136.690371 69.596069 
z
" clip-path="url(#p93fb89ecc1)" style="fill: #55a868; stroke: #ffffff; stroke-width: 0.8; stroke-linejoin: miter"/>
   </g>
   <g id="patch_52">
    <path d="M 147.739735 199.4 
L 149.581295 199.4 
L 149.581295 69.596069 
L 147.739735 69.596069 
z
" clip-path="url(#p93fb89ecc1)" style="fill: #55a868; stroke: #ffffff; stroke-width: 0.8; stroke-linejoin: miter"/>
   </g>
   <g id="patch_53">
    <path d="M 158.789098 199.4 
L 160.630659 199.4 
L 160.630659 83.624233 
L 158.789098 83.624233 
z
" clip-path="url(#p93fb89ecc1)" style="fill: #55a868; stroke: #ffffff; stroke-width: 0.8; stroke-linejoin: miter"/>
   </g>
   <g id="patch_54">
    <path d="M 169.838462 199.4 
L 171.680023 199.4 
L 171.680023 80.112368 
L 169.838462 80.112368 
z
" clip-path="url(#p93fb89ecc1)" style="fill: #55a868; stroke: #ffffff; stroke-width: 0.8; stroke-linejoin: miter"/>
   </g>
   <g id="patch_55">
    <path d="M 180.887826 199.4 
L 182.729386 199.4 
L 182.729386 76.600503 
L 180.887826 76.600503 
z
" clip-path="url(#p93fb89ecc1)" style="fill: #55a868; stroke: #ffffff; stroke-width: 0.8; stroke-linejoin: miter"/>
   </g>
   <g id="patch_56">
    <path d="M 191.937189 199.4 
L 193.77875 199.4 
L 193.77875 76.600503 
L 191.937189 76.600503 
z
" clip-path="url(#p93fb89ecc1)" style="fill: #55a868; stroke: #ffffff; stroke-width: 0.8; stroke-linejoin: miter"/>
   </g>
   <g id="patch_57">
    <path d="M 202.986553 199.4 
L 204.828114 199.4 
L 204.828114 76.600503 
L 202.986553 76.600503 
z
" clip-path="url(#p93fb89ecc1)" style="fill: #55a868; stroke: #ffffff; stroke-width: 0.8; stroke-linejoin: miter"/>
   </g>
   <g id="patch_58">
    <path d="M 214.035917 199.4 
L 215.877477 199.4 
L 215.877477 69.596069 
L 214.035917 69.596069 
z
" clip-path="url(#p93fb89ecc1)" style="fill: #55a868; stroke: #ffffff; stroke-width: 0.8; stroke-linejoin: miter"/>
   </g>
   <g id="patch_59">
    <path d="M 225.08528 199.4 
L 226.926841 199.4 
L 226.926841 69.596069 
L 225.08528 69.596069 
z
" clip-path="url(#p93fb89ecc1)" style="fill: #55a868; stroke: #ffffff; stroke-width: 0.8; stroke-linejoin: miter"/>
   </g>
   <g id="patch_60">
    <path d="M 236.134644 199.4 
L 237.976205 199.4 
L 237.976205 66.084204 
L 236.134644 66.084204 
z
" clip-path="url(#p93fb89ecc1)" style="fill: #55a868; stroke: #ffffff; stroke-width: 0.8; stroke-linejoin: miter"/>
   </g>
   <g id="patch_61">
    <path d="M 247.184008 199.4 
L 249.025568 199.4 
L 249.025568 80.112368 
L 247.184008 80.112368 
z
" clip-path="url(#p93fb89ecc1)" style="fill: #55a868; stroke: #ffffff; stroke-width: 0.8; stroke-linejoin: miter"/>
   </g>
   <g id="patch_62">
    <path d="M 258.233371 199.4 
L 260.074932 199.4 
L 260.074932 94.140532 
L 258.233371 94.140532 
z
" clip-path="url(#p93fb89ecc1)" style="fill: #55a868; stroke: #ffffff; stroke-width: 0.8; stroke-linejoin: miter"/>
   </g>
   <g id="patch_63">
    <path d="M 41.85 199.4 
L 41.85 23.8 
" style="fill: none; stroke: #cccccc; stroke-linejoin: miter; stroke-linecap: square"/>
   </g>
   <g id="patch_64">
    <path d="M 262.837273 199.4 
L 262.837273 23.8 
" style="fill: none; stroke: #cccccc; stroke-linejoin: miter; stroke-linecap: square"/>
   </g>
   <g id="patch_65">
    <path d="M 41.85 199.4 
L 262.837273 199.4 
" style="fill: none; stroke: #cccccc; stroke-linejoin: miter; stroke-linecap: square"/>
   </g>
   <g id="patch_66">
    <path d="M 41.85 23.8 
L 262.837273 23.8 
" style="fill: none; stroke: #cccccc; stroke-linejoin: miter; stroke-linecap: square"/>
   </g>
   <g id="text_27">
    <!-- A) 3K-BM5up -->
    <g style="fill: #262626" transform="translate(123.533136 17.8)scale(0.096 -0.096)">
     <defs>
      <path id="ArialMT-29" d="M 791 -1347 
L 388 -1347 
Q 1322 153 1322 1656 
Q 1322 2244 1188 2822 
Q 1081 3291 891 3722 
Q 769 4003 388 4659 
L 791 4659 
Q 1378 3875 1659 3084 
Q 1900 2403 1900 1659 
Q 1900 816 1576 28 
Q 1253 -759 791 -1347 
z
" transform="scale(0.015625)"/>
      <path id="ArialMT-20" transform="scale(0.015625)"/>
      <path id="ArialMT-33" d="M 269 1209 
L 831 1284 
Q 928 806 1161 595 
Q 1394 384 1728 384 
Q 2125 384 2398 659 
Q 2672 934 2672 1341 
Q 2672 1728 2419 1979 
Q 2166 2231 1775 2231 
Q 1616 2231 1378 2169 
L 1441 2663 
Q 1497 2656 1531 2656 
Q 1891 2656 2178 2843 
Q 2466 3031 2466 3422 
Q 2466 3731 2256 3934 
Q 2047 4138 1716 4138 
Q 1388 4138 1169 3931 
Q 950 3725 888 3313 
L 325 3413 
Q 428 3978 793 4289 
Q 1159 4600 1703 4600 
Q 2078 4600 2393 4439 
Q 2709 4278 2876 4000 
Q 3044 3722 3044 3409 
Q 3044 3113 2884 2869 
Q 2725 2625 2413 2481 
Q 2819 2388 3044 2092 
Q 3269 1797 3269 1353 
Q 3269 753 2831 336 
Q 2394 -81 1725 -81 
Q 1122 -81 723 278 
Q 325 638 269 1209 
z
" transform="scale(0.015625)"/>
      <path id="ArialMT-35" d="M 266 1200 
L 856 1250 
Q 922 819 1161 601 
Q 1400 384 1738 384 
Q 2144 384 2425 690 
Q 2706 997 2706 1503 
Q 2706 1984 2436 2262 
Q 2166 2541 1728 2541 
Q 1456 2541 1237 2417 
Q 1019 2294 894 2097 
L 366 2166 
L 809 4519 
L 3088 4519 
L 3088 3981 
L 1259 3981 
L 1013 2750 
Q 1425 3038 1878 3038 
Q 2478 3038 2890 2622 
Q 3303 2206 3303 1553 
Q 3303 931 2941 478 
Q 2500 -78 1738 -78 
Q 1113 -78 717 272 
Q 322 622 266 1200 
z
" transform="scale(0.015625)"/>
      <path id="ArialMT-75" d="M 2597 0 
L 2597 488 
Q 2209 -75 1544 -75 
Q 1250 -75 995 37 
Q 741 150 617 320 
Q 494 491 444 738 
Q 409 903 409 1263 
L 409 3319 
L 972 3319 
L 972 1478 
Q 972 1038 1006 884 
Q 1059 663 1231 536 
Q 1403 409 1656 409 
Q 1909 409 2131 539 
Q 2353 669 2445 892 
Q 2538 1116 2538 1541 
L 2538 3319 
L 3100 3319 
L 3100 0 
L 2597 0 
z
" transform="scale(0.015625)"/>
     </defs>
     <use xlink:href="#ArialMT-41"/>
     <use xlink:href="#ArialMT-29" x="66.699219"/>
     <use xlink:href="#ArialMT-20" x="100"/>
     <use xlink:href="#ArialMT-33" x="127.783203"/>
     <use xlink:href="#ArialMT-4b" x="183.398438"/>
     <use xlink:href="#ArialMT-2d" x="250.097656"/>
     <use xlink:href="#ArialMT-42" x="283.398438"/>
     <use xlink:href="#ArialMT-4d" x="350.097656"/>
     <use xlink:href="#ArialMT-35" x="433.398438"/>
     <use xlink:href="#ArialMT-75" x="489.013672"/>
     <use xlink:href="#ArialMT-70" x="544.628906"/>
    </g>
   </g>
  </g>
  <g id="axes_2">
   <g id="patch_67">
    <path d="M 273.637273 199.4 
L 494.624545 199.4 
L 494.624545 23.8 
L 273.637273 23.8 
z
" style="fill: #ffffff"/>
   </g>
   <g id="matplotlib.axis_3">
    <g id="xtick_21">
     <g id="line2d_26">
      <path d="M 279.161955 199.4 
L 279.161955 23.8 
" clip-path="url(#pd524eb4852)" style="fill: none; stroke: #cccccc; stroke-width: 0.8; stroke-linecap: round"/>
     </g>
     <g id="text_28">
      <!-- TF-hAIkal -->
      <g style="fill: #262626" transform="translate(281.436892 245.837)rotate(-90)scale(0.088 -0.088)">
       <use xlink:href="#ArialMT-54"/>
       <use xlink:href="#ArialMT-46" x="61.083984"/>
       <use xlink:href="#ArialMT-2d" x="122.167969"/>
       <use xlink:href="#ArialMT-68" x="155.46875"/>
       <use xlink:href="#ArialMT-41" x="211.083984"/>
       <use xlink:href="#ArialMT-49" x="277.783203"/>
       <use xlink:href="#ArialMT-6b" x="305.566406"/>
       <use xlink:href="#ArialMT-61" x="355.566406"/>
       <use xlink:href="#ArialMT-6c" x="411.181641"/>
      </g>
     </g>
    </g>
    <g id="xtick_22">
     <g id="line2d_27">
      <path d="M 290.211318 199.4 
L 290.211318 23.8 
" clip-path="url(#pd524eb4852)" style="fill: none; stroke: #cccccc; stroke-width: 0.8; stroke-linecap: round"/>
     </g>
     <g id="text_29">
      <!-- AP_PISA -->
      <g style="fill: #262626" transform="translate(292.539881 244.38775)rotate(-90)scale(0.088 -0.088)">
       <use xlink:href="#ArialMT-41"/>
       <use xlink:href="#ArialMT-50" x="66.699219"/>
       <use xlink:href="#ArialMT-5f" x="133.398438"/>
       <use xlink:href="#ArialMT-50" x="189.013672"/>
       <use xlink:href="#ArialMT-49" x="255.712891"/>
       <use xlink:href="#ArialMT-53" x="283.496094"/>
       <use xlink:href="#ArialMT-41" x="350.195312"/>
      </g>
     </g>
    </g>
    <g id="xtick_23">
     <g id="line2d_28">
      <path d="M 301.260682 199.4 
L 301.260682 23.8 
" clip-path="url(#pd524eb4852)" style="fill: none; stroke: #cccccc; stroke-width: 0.8; stroke-linecap: round"/>
     </g>
     <g id="text_30">
      <!-- RF-hAIkal -->
      <g style="fill: #262626" transform="translate(303.535619 246.817375)rotate(-90)scale(0.088 -0.088)">
       <use xlink:href="#ArialMT-52"/>
       <use xlink:href="#ArialMT-46" x="72.216797"/>
       <use xlink:href="#ArialMT-2d" x="133.300781"/>
       <use xlink:href="#ArialMT-68" x="166.601562"/>
       <use xlink:href="#ArialMT-41" x="222.216797"/>
       <use xlink:href="#ArialMT-49" x="288.916016"/>
       <use xlink:href="#ArialMT-6b" x="316.699219"/>
       <use xlink:href="#ArialMT-61" x="366.699219"/>
       <use xlink:href="#ArialMT-6c" x="422.314453"/>
      </g>
     </g>
    </g>
    <g id="xtick_24">
     <g id="line2d_29">
      <path d="M 312.310045 199.4 
L 312.310045 23.8 
" clip-path="url(#pd524eb4852)" style="fill: none; stroke: #cccccc; stroke-width: 0.8; stroke-linecap: round"/>
     </g>
     <g id="text_31">
      <!-- TF-Core -->
      <g style="fill: #262626" transform="translate(314.584983 240.4525)rotate(-90)scale(0.088 -0.088)">
       <use xlink:href="#ArialMT-54"/>
       <use xlink:href="#ArialMT-46" x="61.083984"/>
       <use xlink:href="#ArialMT-2d" x="122.167969"/>
       <use xlink:href="#ArialMT-43" x="155.46875"/>
       <use xlink:href="#ArialMT-6f" x="227.685547"/>
       <use xlink:href="#ArialMT-72" x="283.300781"/>
       <use xlink:href="#ArialMT-65" x="316.601562"/>
      </g>
     </g>
    </g>
    <g id="xtick_25">
     <g id="line2d_30">
      <path d="M 323.359409 199.4 
L 323.359409 23.8 
" clip-path="url(#pd524eb4852)" style="fill: none; stroke: #cccccc; stroke-width: 0.8; stroke-linecap: round"/>
     </g>
     <g id="text_32">
      <!-- PRC-core -->
      <g style="fill: #262626" transform="translate(325.634347 246.327875)rotate(-90)scale(0.088 -0.088)">
       <use xlink:href="#ArialMT-50"/>
       <use xlink:href="#ArialMT-52" x="66.699219"/>
       <use xlink:href="#ArialMT-43" x="138.916016"/>
       <use xlink:href="#ArialMT-2d" x="211.132812"/>
       <use xlink:href="#ArialMT-63" x="244.433594"/>
       <use xlink:href="#ArialMT-6f" x="294.433594"/>
       <use xlink:href="#ArialMT-72" x="350.048828"/>
       <use xlink:href="#ArialMT-65" x="383.349609"/>
      </g>
     </g>
    </g>
    <g id="xtick_26">
     <g id="line2d_31">
      <path d="M 334.408773 199.4 
L 334.408773 23.8 
" clip-path="url(#pd524eb4852)" style="fill: none; stroke: #cccccc; stroke-width: 0.8; stroke-linecap: round"/>
     </g>
     <g id="text_33">
      <!-- AP_T2 -->
      <g style="fill: #262626" transform="translate(336.696773 234.601875)rotate(-90)scale(0.088 -0.088)">
       <use xlink:href="#ArialMT-41"/>
       <use xlink:href="#ArialMT-50" x="66.699219"/>
       <use xlink:href="#ArialMT-5f" x="133.398438"/>
       <use xlink:href="#ArialMT-54" x="189.013672"/>
       <use xlink:href="#ArialMT-32" x="250.097656"/>
      </g>
     </g>
    </g>
    <g id="xtick_27">
     <g id="line2d_32">
      <path d="M 345.458136 199.4 
L 345.458136 23.8 
" clip-path="url(#pd524eb4852)" style="fill: none; stroke: #cccccc; stroke-width: 0.8; stroke-linecap: round"/>
     </g>
     <g id="text_34">
      <!-- RF-core -->
      <g style="fill: #262626" transform="translate(347.733074 239.477625)rotate(-90)scale(0.088 -0.088)">
       <use xlink:href="#ArialMT-52"/>
       <use xlink:href="#ArialMT-46" x="72.216797"/>
       <use xlink:href="#ArialMT-2d" x="133.300781"/>
       <use xlink:href="#ArialMT-63" x="166.601562"/>
       <use xlink:href="#ArialMT-6f" x="216.601562"/>
       <use xlink:href="#ArialMT-72" x="272.216797"/>
       <use xlink:href="#ArialMT-65" x="305.517578"/>
      </g>
     </g>
    </g>
    <g id="xtick_28">
     <g id="line2d_33">
      <path d="M 356.5075 199.4 
L 356.5075 23.8 
" clip-path="url(#pd524eb4852)" style="fill: none; stroke: #cccccc; stroke-width: 0.8; stroke-linecap: round"/>
     </g>
     <g id="text_35">
      <!-- CP_TB -->
      <g style="fill: #262626" transform="translate(358.836062 236.0635)rotate(-90)scale(0.088 -0.088)">
       <use xlink:href="#ArialMT-43"/>
       <use xlink:href="#ArialMT-50" x="72.216797"/>
       <use xlink:href="#ArialMT-5f" x="138.916016"/>
       <use xlink:href="#ArialMT-54" x="194.53125"/>
       <use xlink:href="#ArialMT-42" x="255.615234"/>
      </g>
     </g>
    </g>
    <g id="xtick_29">
     <g id="line2d_34">
      <path d="M 367.556864 199.4 
L 367.556864 23.8 
" clip-path="url(#pd524eb4852)" style="fill: none; stroke: #cccccc; stroke-width: 0.8; stroke-linecap: round"/>
     </g>
     <g id="text_36">
      <!-- AP_T1 -->
      <g style="fill: #262626" transform="translate(369.844864 234.601875)rotate(-90)scale(0.088 -0.088)">
       <use xlink:href="#ArialMT-41"/>
       <use xlink:href="#ArialMT-50" x="66.699219"/>
       <use xlink:href="#ArialMT-5f" x="133.398438"/>
       <use xlink:href="#ArialMT-54" x="189.013672"/>
       <use xlink:href="#ArialMT-31" x="250.097656"/>
      </g>
     </g>
    </g>
    <g id="xtick_30">
     <g id="line2d_35">
      <path d="M 378.606227 199.4 
L 378.606227 23.8 
" clip-path="url(#pd524eb4852)" style="fill: none; stroke: #cccccc; stroke-width: 0.8; stroke-linecap: round"/>
     </g>
     <g id="text_37">
      <!-- ZRANK2 -->
      <g style="fill: #262626" transform="translate(380.881165 242.41875)rotate(-90)scale(0.088 -0.088)">
       <use xlink:href="#ArialMT-5a"/>
       <use xlink:href="#ArialMT-52" x="61.083984"/>
       <use xlink:href="#ArialMT-41" x="133.300781"/>
       <use xlink:href="#ArialMT-4e" x="200"/>
       <use xlink:href="#ArialMT-4b" x="272.216797"/>
       <use xlink:href="#ArialMT-32" x="338.916016"/>
      </g>
     </g>
    </g>
    <g id="xtick_31">
     <g id="line2d_36">
      <path d="M 389.655591 199.4 
L 389.655591 23.8 
" clip-path="url(#pd524eb4852)" style="fill: none; stroke: #cccccc; stroke-width: 0.8; stroke-linecap: round"/>
     </g>
     <g id="text_38">
      <!-- CP_BT -->
      <g style="fill: #262626" transform="translate(391.984153 236.0635)rotate(-90)scale(0.088 -0.088)">
       <use xlink:href="#ArialMT-43"/>
       <use xlink:href="#ArialMT-50" x="72.216797"/>
       <use xlink:href="#ArialMT-5f" x="138.916016"/>
       <use xlink:href="#ArialMT-42" x="194.53125"/>
       <use xlink:href="#ArialMT-54" x="261.230469"/>
      </g>
     </g>
    </g>
    <g id="xtick_32">
     <g id="line2d_37">
      <path d="M 400.704955 199.4 
L 400.704955 23.8 
" clip-path="url(#pd524eb4852)" style="fill: none; stroke: #cccccc; stroke-width: 0.8; stroke-linecap: round"/>
     </g>
     <g id="text_39">
      <!-- CP_D1 -->
      <g style="fill: #262626" transform="translate(403.033517 236.067625)rotate(-90)scale(0.088 -0.088)">
       <use xlink:href="#ArialMT-43"/>
       <use xlink:href="#ArialMT-50" x="72.216797"/>
       <use xlink:href="#ArialMT-5f" x="138.916016"/>
       <use xlink:href="#ArialMT-44" x="194.53125"/>
       <use xlink:href="#ArialMT-31" x="266.748047"/>
      </g>
     </g>
    </g>
    <g id="xtick_33">
     <g id="line2d_38">
      <path d="M 411.754318 199.4 
L 411.754318 23.8 
" clip-path="url(#pd524eb4852)" style="fill: none; stroke: #cccccc; stroke-width: 0.8; stroke-linecap: round"/>
     </g>
     <g id="text_40">
      <!-- CP_TSC -->
      <g style="fill: #262626" transform="translate(414.082881 242.41875)rotate(-90)scale(0.088 -0.088)">
       <use xlink:href="#ArialMT-43"/>
       <use xlink:href="#ArialMT-50" x="72.216797"/>
       <use xlink:href="#ArialMT-5f" x="138.916016"/>
       <use xlink:href="#ArialMT-54" x="194.53125"/>
       <use xlink:href="#ArialMT-53" x="255.615234"/>
       <use xlink:href="#ArialMT-43" x="322.314453"/>
      </g>
     </g>
    </g>
    <g id="xtick_34">
     <g id="line2d_39">
      <path d="M 422.803682 199.4 
L 422.803682 23.8 
" clip-path="url(#pd524eb4852)" style="fill: none; stroke: #cccccc; stroke-width: 0.8; stroke-linecap: round"/>
     </g>
     <g id="text_41">
      <!-- AP_DCOMPLEX -->
      <g style="fill: #262626" transform="translate(425.134994 273.722)rotate(-90)scale(0.088 -0.088)">
       <defs>
        <path id="ArialMT-58" d="M 28 0 
L 1800 2388 
L 238 4581 
L 959 4581 
L 1791 3406 
Q 2050 3041 2159 2844 
Q 2313 3094 2522 3366 
L 3444 4581 
L 4103 4581 
L 2494 2422 
L 4228 0 
L 3478 0 
L 2325 1634 
Q 2228 1775 2125 1941 
Q 1972 1691 1906 1597 
L 756 0 
L 28 0 
z
" transform="scale(0.015625)"/>
       </defs>
       <use xlink:href="#ArialMT-41"/>
       <use xlink:href="#ArialMT-50" x="66.699219"/>
       <use xlink:href="#ArialMT-5f" x="133.398438"/>
       <use xlink:href="#ArialMT-44" x="189.013672"/>
       <use xlink:href="#ArialMT-43" x="261.230469"/>
       <use xlink:href="#ArialMT-4f" x="333.447266"/>
       <use xlink:href="#ArialMT-4d" x="411.230469"/>
       <use xlink:href="#ArialMT-50" x="494.53125"/>
       <use xlink:href="#ArialMT-4c" x="561.230469"/>
       <use xlink:href="#ArialMT-45" x="616.845703"/>
       <use xlink:href="#ArialMT-58" x="683.544922"/>
      </g>
     </g>
    </g>
    <g id="xtick_35">
     <g id="line2d_40">
      <path d="M 433.853045 199.4 
L 433.853045 23.8 
" clip-path="url(#pd524eb4852)" style="fill: none; stroke: #cccccc; stroke-width: 0.8; stroke-linecap: round"/>
     </g>
     <g id="text_42">
      <!-- ODA -->
      <g style="fill: #262626" transform="translate(436.127983 226.769875)rotate(-90)scale(0.088 -0.088)">
       <use xlink:href="#ArialMT-4f"/>
       <use xlink:href="#ArialMT-44" x="77.783203"/>
       <use xlink:href="#ArialMT-41" x="150"/>
      </g>
     </g>
    </g>
    <g id="xtick_36">
     <g id="line2d_41">
      <path d="M 444.902409 199.4 
L 444.902409 23.8 
" clip-path="url(#pd524eb4852)" style="fill: none; stroke: #cccccc; stroke-width: 0.8; stroke-linecap: round"/>
     </g>
     <g id="text_43">
      <!-- CONSRANK -->
      <g style="fill: #262626" transform="translate(447.177347 257.575375)rotate(-90)scale(0.088 -0.088)">
       <use xlink:href="#ArialMT-43"/>
       <use xlink:href="#ArialMT-4f" x="72.216797"/>
       <use xlink:href="#ArialMT-4e" x="150"/>
       <use xlink:href="#ArialMT-53" x="222.216797"/>
       <use xlink:href="#ArialMT-52" x="288.916016"/>
       <use xlink:href="#ArialMT-41" x="361.132812"/>
       <use xlink:href="#ArialMT-4e" x="427.832031"/>
       <use xlink:href="#ArialMT-4b" x="500.048828"/>
      </g>
     </g>
    </g>
    <g id="xtick_37">
     <g id="line2d_42">
      <path d="M 455.951773 199.4 
L 455.951773 23.8 
" clip-path="url(#pd524eb4852)" style="fill: none; stroke: #cccccc; stroke-width: 0.8; stroke-linecap: round"/>
     </g>
     <g id="text_44">
      <!-- CP_VD -->
      <g style="fill: #262626" transform="translate(458.280335 237.043875)rotate(-90)scale(0.088 -0.088)">
       <use xlink:href="#ArialMT-43"/>
       <use xlink:href="#ArialMT-50" x="72.216797"/>
       <use xlink:href="#ArialMT-5f" x="138.916016"/>
       <use xlink:href="#ArialMT-56" x="194.53125"/>
       <use xlink:href="#ArialMT-44" x="261.230469"/>
      </g>
     </g>
    </g>
    <g id="xtick_38">
     <g id="line2d_43">
      <path d="M 467.001136 199.4 
L 467.001136 23.8 
" clip-path="url(#pd524eb4852)" style="fill: none; stroke: #cccccc; stroke-width: 0.8; stroke-linecap: round"/>
     </g>
     <g id="text_45">
      <!-- PRC-hAIkal -->
      <g style="fill: #262626" transform="translate(469.276074 253.667625)rotate(-90)scale(0.088 -0.088)">
       <use xlink:href="#ArialMT-50"/>
       <use xlink:href="#ArialMT-52" x="66.699219"/>
       <use xlink:href="#ArialMT-43" x="138.916016"/>
       <use xlink:href="#ArialMT-2d" x="211.132812"/>
       <use xlink:href="#ArialMT-68" x="244.433594"/>
       <use xlink:href="#ArialMT-41" x="300.048828"/>
       <use xlink:href="#ArialMT-49" x="366.748047"/>
       <use xlink:href="#ArialMT-6b" x="394.53125"/>
       <use xlink:href="#ArialMT-61" x="444.53125"/>
       <use xlink:href="#ArialMT-6c" x="500.146484"/>
      </g>
     </g>
    </g>
    <g id="xtick_39">
     <g id="line2d_44">
      <path d="M 478.0505 199.4 
L 478.0505 23.8 
" clip-path="url(#pd524eb4852)" style="fill: none; stroke: #cccccc; stroke-width: 0.8; stroke-linecap: round"/>
     </g>
     <g id="text_46">
      <!-- AP_OPUS_PSP -->
      <g style="fill: #262626" transform="translate(480.381812 271.776375)rotate(-90)scale(0.088 -0.088)">
       <defs>
        <path id="ArialMT-55" d="M 3500 4581 
L 4106 4581 
L 4106 1934 
Q 4106 1244 3950 837 
Q 3794 431 3386 176 
Q 2978 -78 2316 -78 
Q 1672 -78 1262 144 
Q 853 366 678 786 
Q 503 1206 503 1934 
L 503 4581 
L 1109 4581 
L 1109 1938 
Q 1109 1341 1220 1058 
Q 1331 775 1601 622 
Q 1872 469 2263 469 
Q 2931 469 3215 772 
Q 3500 1075 3500 1938 
L 3500 4581 
z
" transform="scale(0.015625)"/>
       </defs>
       <use xlink:href="#ArialMT-41"/>
       <use xlink:href="#ArialMT-50" x="66.699219"/>
       <use xlink:href="#ArialMT-5f" x="133.398438"/>
       <use xlink:href="#ArialMT-4f" x="189.013672"/>
       <use xlink:href="#ArialMT-50" x="266.796875"/>
       <use xlink:href="#ArialMT-55" x="333.496094"/>
       <use xlink:href="#ArialMT-53" x="405.712891"/>
       <use xlink:href="#ArialMT-5f" x="472.412109"/>
       <use xlink:href="#ArialMT-50" x="528.027344"/>
       <use xlink:href="#ArialMT-53" x="594.726562"/>
       <use xlink:href="#ArialMT-50" x="661.425781"/>
      </g>
     </g>
    </g>
    <g id="xtick_40">
     <g id="line2d_45">
      <path d="M 489.099864 199.4 
L 489.099864 23.8 
" clip-path="url(#pd524eb4852)" style="fill: none; stroke: #cccccc; stroke-width: 0.8; stroke-linecap: round"/>
     </g>
     <g id="text_47">
      <!-- CP_DDG_W -->
      <g style="fill: #262626" transform="translate(491.428426 257.574)rotate(-90)scale(0.088 -0.088)">
       <defs>
        <path id="ArialMT-57" d="M 1294 0 
L 78 4581 
L 700 4581 
L 1397 1578 
Q 1509 1106 1591 641 
Q 1766 1375 1797 1488 
L 2669 4581 
L 3400 4581 
L 4056 2263 
Q 4303 1400 4413 641 
Q 4500 1075 4641 1638 
L 5359 4581 
L 5969 4581 
L 4713 0 
L 4128 0 
L 3163 3491 
Q 3041 3928 3019 4028 
Q 2947 3713 2884 3491 
L 1913 0 
L 1294 0 
z
" transform="scale(0.015625)"/>
       </defs>
       <use xlink:href="#ArialMT-43"/>
       <use xlink:href="#ArialMT-50" x="72.216797"/>
       <use xlink:href="#ArialMT-5f" x="138.916016"/>
       <use xlink:href="#ArialMT-44" x="194.53125"/>
       <use xlink:href="#ArialMT-44" x="266.748047"/>
       <use xlink:href="#ArialMT-47" x="338.964844"/>
       <use xlink:href="#ArialMT-5f" x="416.748047"/>
       <use xlink:href="#ArialMT-57" x="472.363281"/>
      </g>
     </g>
    </g>
   </g>
   <g id="matplotlib.axis_4">
    <g id="ytick_6">
     <g id="line2d_46">
      <path d="M 273.637273 199.4 
L 494.624545 199.4 
" clip-path="url(#pd524eb4852)" style="fill: none; stroke: #cccccc; stroke-width: 0.8; stroke-linecap: round"/>
     </g>
    </g>
    <g id="ytick_7">
     <g id="line2d_47">
      <path d="M 273.637273 160.808078 
L 494.624545 160.808078 
" clip-path="url(#pd524eb4852)" style="fill: none; stroke: #cccccc; stroke-width: 0.8; stroke-linecap: round"/>
     </g>
    </g>
    <g id="ytick_8">
     <g id="line2d_48">
      <path d="M 273.637273 122.216155 
L 494.624545 122.216155 
" clip-path="url(#pd524eb4852)" style="fill: none; stroke: #cccccc; stroke-width: 0.8; stroke-linecap: round"/>
     </g>
    </g>
    <g id="ytick_9">
     <g id="line2d_49">
      <path d="M 273.637273 83.624233 
L 494.624545 83.624233 
" clip-path="url(#pd524eb4852)" style="fill: none; stroke: #cccccc; stroke-width: 0.8; stroke-linecap: round"/>
     </g>
    </g>
    <g id="ytick_10">
     <g id="line2d_50">
      <path d="M 273.637273 45.032311 
L 494.624545 45.032311 
" clip-path="url(#pd524eb4852)" style="fill: none; stroke: #cccccc; stroke-width: 0.8; stroke-linecap: round"/>
     </g>
    </g>
   </g>
   <g id="patch_68">
    <path d="M 276.399614 199.4 
L 278.241174 199.4 
L 278.241174 147.937672 
L 276.399614 147.937672 
z
" clip-path="url(#pd524eb4852)" style="fill: #4c72b0; stroke: #ffffff; stroke-width: 0.8; stroke-linejoin: miter"/>
   </g>
   <g id="patch_69">
    <path d="M 287.448977 199.4 
L 289.290538 199.4 
L 289.290538 122.216155 
L 287.448977 122.216155 
z
" clip-path="url(#pd524eb4852)" style="fill: #4c72b0; stroke: #ffffff; stroke-width: 0.8; stroke-linejoin: miter"/>
   </g>
   <g id="patch_70">
    <path d="M 298.498341 199.4 
L 300.339902 199.4 
L 300.339902 135.086562 
L 298.498341 135.086562 
z
" clip-path="url(#pd524eb4852)" style="fill: #4c72b0; stroke: #ffffff; stroke-width: 0.8; stroke-linejoin: miter"/>
   </g>
   <g id="patch_71">
    <path d="M 309.547705 199.4 
L 311.389265 199.4 
L 311.389265 160.808078 
L 309.547705 160.808078 
z
" clip-path="url(#pd524eb4852)" style="fill: #4c72b0; stroke: #ffffff; stroke-width: 0.8; stroke-linejoin: miter"/>
   </g>
   <g id="patch_72">
    <path d="M 320.597068 199.4 
L 322.438629 199.4 
L 322.438629 122.216155 
L 320.597068 122.216155 
z
" clip-path="url(#pd524eb4852)" style="fill: #4c72b0; stroke: #ffffff; stroke-width: 0.8; stroke-linejoin: miter"/>
   </g>
   <g id="patch_73">
    <path d="M 331.646432 199.4 
L 333.487992 199.4 
L 333.487992 135.086562 
L 331.646432 135.086562 
z
" clip-path="url(#pd524eb4852)" style="fill: #4c72b0; stroke: #ffffff; stroke-width: 0.8; stroke-linejoin: miter"/>
   </g>
   <g id="patch_74">
    <path d="M 342.695795 199.4 
L 344.537356 199.4 
L 344.537356 135.086562 
L 342.695795 135.086562 
z
" clip-path="url(#pd524eb4852)" style="fill: #4c72b0; stroke: #ffffff; stroke-width: 0.8; stroke-linejoin: miter"/>
   </g>
   <g id="patch_75">
    <path d="M 353.745159 199.4 
L 355.58672 199.4 
L 355.58672 147.937672 
L 353.745159 147.937672 
z
" clip-path="url(#pd524eb4852)" style="fill: #4c72b0; stroke: #ffffff; stroke-width: 0.8; stroke-linejoin: miter"/>
   </g>
   <g id="patch_76">
    <path d="M 364.794523 199.4 
L 366.636083 199.4 
L 366.636083 160.808078 
L 364.794523 160.808078 
z
" clip-path="url(#pd524eb4852)" style="fill: #4c72b0; stroke: #ffffff; stroke-width: 0.8; stroke-linejoin: miter"/>
   </g>
   <g id="patch_77">
    <path d="M 375.843886 199.4 
L 377.685447 199.4 
L 377.685447 160.808078 
L 375.843886 160.808078 
z
" clip-path="url(#pd524eb4852)" style="fill: #4c72b0; stroke: #ffffff; stroke-width: 0.8; stroke-linejoin: miter"/>
   </g>
   <g id="patch_78">
    <path d="M 386.89325 199.4 
L 388.734811 199.4 
L 388.734811 173.678484 
L 386.89325 173.678484 
z
" clip-path="url(#pd524eb4852)" style="fill: #4c72b0; stroke: #ffffff; stroke-width: 0.8; stroke-linejoin: miter"/>
   </g>
   <g id="patch_79">
    <path d="M 397.942614 199.4 
L 399.784174 199.4 
L 399.784174 173.678484 
L 397.942614 173.678484 
z
" clip-path="url(#pd524eb4852)" style="fill: #4c72b0; stroke: #ffffff; stroke-width: 0.8; stroke-linejoin: miter"/>
   </g>
   <g id="patch_80">
    <path d="M 408.991977 199.4 
L 410.833538 199.4 
L 410.833538 173.678484 
L 408.991977 173.678484 
z
" clip-path="url(#pd524eb4852)" style="fill: #4c72b0; stroke: #ffffff; stroke-width: 0.8; stroke-linejoin: miter"/>
   </g>
   <g id="patch_81">
    <path d="M 420.041341 199.4 
L 421.882902 199.4 
L 421.882902 186.529594 
L 420.041341 186.529594 
z
" clip-path="url(#pd524eb4852)" style="fill: #4c72b0; stroke: #ffffff; stroke-width: 0.8; stroke-linejoin: miter"/>
   </g>
   <g id="patch_82">
    <path d="M 431.090705 199.4 
L 432.932265 199.4 
L 432.932265 186.529594 
L 431.090705 186.529594 
z
" clip-path="url(#pd524eb4852)" style="fill: #4c72b0; stroke: #ffffff; stroke-width: 0.8; stroke-linejoin: miter"/>
   </g>
   <g id="patch_83">
    <path d="M 442.140068 199.4 
L 443.981629 199.4 
L 443.981629 147.937672 
L 442.140068 147.937672 
z
" clip-path="url(#pd524eb4852)" style="fill: #4c72b0; stroke: #ffffff; stroke-width: 0.8; stroke-linejoin: miter"/>
   </g>
   <g id="patch_84">
    <path d="M 453.189432 199.4 
L 455.030992 199.4 
L 455.030992 147.937672 
L 453.189432 147.937672 
z
" clip-path="url(#pd524eb4852)" style="fill: #4c72b0; stroke: #ffffff; stroke-width: 0.8; stroke-linejoin: miter"/>
   </g>
   <g id="patch_85">
    <path d="M 464.238795 199.4 
L 466.080356 199.4 
L 466.080356 147.937672 
L 464.238795 147.937672 
z
" clip-path="url(#pd524eb4852)" style="fill: #4c72b0; stroke: #ffffff; stroke-width: 0.8; stroke-linejoin: miter"/>
   </g>
   <g id="patch_86">
    <path d="M 475.288159 199.4 
L 477.12972 199.4 
L 477.12972 160.808078 
L 475.288159 160.808078 
z
" clip-path="url(#pd524eb4852)" style="fill: #4c72b0; stroke: #ffffff; stroke-width: 0.8; stroke-linejoin: miter"/>
   </g>
   <g id="patch_87">
    <path d="M 486.337523 199.4 
L 488.179083 199.4 
L 488.179083 160.808078 
L 486.337523 160.808078 
z
" clip-path="url(#pd524eb4852)" style="fill: #4c72b0; stroke: #ffffff; stroke-width: 0.8; stroke-linejoin: miter"/>
   </g>
   <g id="patch_88">
    <path d="M 278.241174 199.4 
L 280.082735 199.4 
L 280.082735 70.753827 
L 278.241174 70.753827 
z
" clip-path="url(#pd524eb4852)" style="fill: #dd8452; stroke: #ffffff; stroke-width: 0.8; stroke-linejoin: miter"/>
   </g>
   <g id="patch_89">
    <path d="M 289.290538 199.4 
L 291.132098 199.4 
L 291.132098 96.494639 
L 289.290538 96.494639 
z
" clip-path="url(#pd524eb4852)" style="fill: #dd8452; stroke: #ffffff; stroke-width: 0.8; stroke-linejoin: miter"/>
   </g>
   <g id="patch_90">
    <path d="M 300.339902 199.4 
L 302.181462 199.4 
L 302.181462 96.494639 
L 300.339902 96.494639 
z
" clip-path="url(#pd524eb4852)" style="fill: #dd8452; stroke: #ffffff; stroke-width: 0.8; stroke-linejoin: miter"/>
   </g>
   <g id="patch_91">
    <path d="M 311.389265 199.4 
L 313.230826 199.4 
L 313.230826 96.494639 
L 311.389265 96.494639 
z
" clip-path="url(#pd524eb4852)" style="fill: #dd8452; stroke: #ffffff; stroke-width: 0.8; stroke-linejoin: miter"/>
   </g>
   <g id="patch_92">
    <path d="M 322.438629 199.4 
L 324.280189 199.4 
L 324.280189 109.345749 
L 322.438629 109.345749 
z
" clip-path="url(#pd524eb4852)" style="fill: #dd8452; stroke: #ffffff; stroke-width: 0.8; stroke-linejoin: miter"/>
   </g>
   <g id="patch_93">
    <path d="M 333.487992 199.4 
L 335.329553 199.4 
L 335.329553 109.345749 
L 333.487992 109.345749 
z
" clip-path="url(#pd524eb4852)" style="fill: #dd8452; stroke: #ffffff; stroke-width: 0.8; stroke-linejoin: miter"/>
   </g>
   <g id="patch_94">
    <path d="M 344.537356 199.4 
L 346.378917 199.4 
L 346.378917 109.345749 
L 344.537356 109.345749 
z
" clip-path="url(#pd524eb4852)" style="fill: #dd8452; stroke: #ffffff; stroke-width: 0.8; stroke-linejoin: miter"/>
   </g>
   <g id="patch_95">
    <path d="M 355.58672 199.4 
L 357.42828 199.4 
L 357.42828 109.345749 
L 355.58672 109.345749 
z
" clip-path="url(#pd524eb4852)" style="fill: #dd8452; stroke: #ffffff; stroke-width: 0.8; stroke-linejoin: miter"/>
   </g>
   <g id="patch_96">
    <path d="M 366.636083 199.4 
L 368.477644 199.4 
L 368.477644 109.345749 
L 366.636083 109.345749 
z
" clip-path="url(#pd524eb4852)" style="fill: #dd8452; stroke: #ffffff; stroke-width: 0.8; stroke-linejoin: miter"/>
   </g>
   <g id="patch_97">
    <path d="M 377.685447 199.4 
L 379.527008 199.4 
L 379.527008 109.345749 
L 377.685447 109.345749 
z
" clip-path="url(#pd524eb4852)" style="fill: #dd8452; stroke: #ffffff; stroke-width: 0.8; stroke-linejoin: miter"/>
   </g>
   <g id="patch_98">
    <path d="M 388.734811 199.4 
L 390.576371 199.4 
L 390.576371 109.345749 
L 388.734811 109.345749 
z
" clip-path="url(#pd524eb4852)" style="fill: #dd8452; stroke: #ffffff; stroke-width: 0.8; stroke-linejoin: miter"/>
   </g>
   <g id="patch_99">
    <path d="M 399.784174 199.4 
L 401.625735 199.4 
L 401.625735 109.345749 
L 399.784174 109.345749 
z
" clip-path="url(#pd524eb4852)" style="fill: #dd8452; stroke: #ffffff; stroke-width: 0.8; stroke-linejoin: miter"/>
   </g>
   <g id="patch_100">
    <path d="M 410.833538 199.4 
L 412.675098 199.4 
L 412.675098 109.345749 
L 410.833538 109.345749 
z
" clip-path="url(#pd524eb4852)" style="fill: #dd8452; stroke: #ffffff; stroke-width: 0.8; stroke-linejoin: miter"/>
   </g>
   <g id="patch_101">
    <path d="M 421.882902 199.4 
L 423.724462 199.4 
L 423.724462 109.345749 
L 421.882902 109.345749 
z
" clip-path="url(#pd524eb4852)" style="fill: #dd8452; stroke: #ffffff; stroke-width: 0.8; stroke-linejoin: miter"/>
   </g>
   <g id="patch_102">
    <path d="M 432.932265 199.4 
L 434.773826 199.4 
L 434.773826 109.345749 
L 432.932265 109.345749 
z
" clip-path="url(#pd524eb4852)" style="fill: #dd8452; stroke: #ffffff; stroke-width: 0.8; stroke-linejoin: miter"/>
   </g>
   <g id="patch_103">
    <path d="M 443.981629 199.4 
L 445.823189 199.4 
L 445.823189 122.216155 
L 443.981629 122.216155 
z
" clip-path="url(#pd524eb4852)" style="fill: #dd8452; stroke: #ffffff; stroke-width: 0.8; stroke-linejoin: miter"/>
   </g>
   <g id="patch_104">
    <path d="M 455.030992 199.4 
L 456.872553 199.4 
L 456.872553 122.216155 
L 455.030992 122.216155 
z
" clip-path="url(#pd524eb4852)" style="fill: #dd8452; stroke: #ffffff; stroke-width: 0.8; stroke-linejoin: miter"/>
   </g>
   <g id="patch_105">
    <path d="M 466.080356 199.4 
L 467.921917 199.4 
L 467.921917 122.216155 
L 466.080356 122.216155 
z
" clip-path="url(#pd524eb4852)" style="fill: #dd8452; stroke: #ffffff; stroke-width: 0.8; stroke-linejoin: miter"/>
   </g>
   <g id="patch_106">
    <path d="M 477.12972 199.4 
L 478.97128 199.4 
L 478.97128 122.216155 
L 477.12972 122.216155 
z
" clip-path="url(#pd524eb4852)" style="fill: #dd8452; stroke: #ffffff; stroke-width: 0.8; stroke-linejoin: miter"/>
   </g>
   <g id="patch_107">
    <path d="M 488.179083 199.4 
L 490.020644 199.4 
L 490.020644 122.216155 
L 488.179083 122.216155 
z
" clip-path="url(#pd524eb4852)" style="fill: #dd8452; stroke: #ffffff; stroke-width: 0.8; stroke-linejoin: miter"/>
   </g>
   <g id="patch_108">
    <path d="M 280.082735 199.4 
L 281.924295 199.4 
L 281.924295 70.753827 
L 280.082735 70.753827 
z
" clip-path="url(#pd524eb4852)" style="fill: #55a868; stroke: #ffffff; stroke-width: 0.8; stroke-linejoin: miter"/>
   </g>
   <g id="patch_109">
    <path d="M 291.132098 199.4 
L 292.973659 199.4 
L 292.973659 70.753827 
L 291.132098 70.753827 
z
" clip-path="url(#pd524eb4852)" style="fill: #55a868; stroke: #ffffff; stroke-width: 0.8; stroke-linejoin: miter"/>
   </g>
   <g id="patch_110">
    <path d="M 302.181462 199.4 
L 304.023023 199.4 
L 304.023023 83.624233 
L 302.181462 83.624233 
z
" clip-path="url(#pd524eb4852)" style="fill: #55a868; stroke: #ffffff; stroke-width: 0.8; stroke-linejoin: miter"/>
   </g>
   <g id="patch_111">
    <path d="M 313.230826 199.4 
L 315.072386 199.4 
L 315.072386 70.753827 
L 313.230826 70.753827 
z
" clip-path="url(#pd524eb4852)" style="fill: #55a868; stroke: #ffffff; stroke-width: 0.8; stroke-linejoin: miter"/>
   </g>
   <g id="patch_112">
    <path d="M 324.280189 199.4 
L 326.12175 199.4 
L 326.12175 96.494639 
L 324.280189 96.494639 
z
" clip-path="url(#pd524eb4852)" style="fill: #55a868; stroke: #ffffff; stroke-width: 0.8; stroke-linejoin: miter"/>
   </g>
   <g id="patch_113">
    <path d="M 335.329553 199.4 
L 337.171114 199.4 
L 337.171114 96.494639 
L 335.329553 96.494639 
z
" clip-path="url(#pd524eb4852)" style="fill: #55a868; stroke: #ffffff; stroke-width: 0.8; stroke-linejoin: miter"/>
   </g>
   <g id="patch_114">
    <path d="M 346.378917 199.4 
L 348.220477 199.4 
L 348.220477 96.494639 
L 346.378917 96.494639 
z
" clip-path="url(#pd524eb4852)" style="fill: #55a868; stroke: #ffffff; stroke-width: 0.8; stroke-linejoin: miter"/>
   </g>
   <g id="patch_115">
    <path d="M 357.42828 199.4 
L 359.269841 199.4 
L 359.269841 45.032311 
L 357.42828 45.032311 
z
" clip-path="url(#pd524eb4852)" style="fill: #55a868; stroke: #ffffff; stroke-width: 0.8; stroke-linejoin: miter"/>
   </g>
   <g id="patch_116">
    <path d="M 368.477644 199.4 
L 370.319205 199.4 
L 370.319205 96.494639 
L 368.477644 96.494639 
z
" clip-path="url(#pd524eb4852)" style="fill: #55a868; stroke: #ffffff; stroke-width: 0.8; stroke-linejoin: miter"/>
   </g>
   <g id="patch_117">
    <path d="M 379.527008 199.4 
L 381.368568 199.4 
L 381.368568 83.624233 
L 379.527008 83.624233 
z
" clip-path="url(#pd524eb4852)" style="fill: #55a868; stroke: #ffffff; stroke-width: 0.8; stroke-linejoin: miter"/>
   </g>
   <g id="patch_118">
    <path d="M 390.576371 199.4 
L 392.417932 199.4 
L 392.417932 83.624233 
L 390.576371 83.624233 
z
" clip-path="url(#pd524eb4852)" style="fill: #55a868; stroke: #ffffff; stroke-width: 0.8; stroke-linejoin: miter"/>
   </g>
   <g id="patch_119">
    <path d="M 401.625735 199.4 
L 403.467295 199.4 
L 403.467295 70.753827 
L 401.625735 70.753827 
z
" clip-path="url(#pd524eb4852)" style="fill: #55a868; stroke: #ffffff; stroke-width: 0.8; stroke-linejoin: miter"/>
   </g>
   <g id="patch_120">
    <path d="M 412.675098 199.4 
L 414.516659 199.4 
L 414.516659 57.902717 
L 412.675098 57.902717 
z
" clip-path="url(#pd524eb4852)" style="fill: #55a868; stroke: #ffffff; stroke-width: 0.8; stroke-linejoin: miter"/>
   </g>
   <g id="patch_121">
    <path d="M 423.724462 199.4 
L 425.566023 199.4 
L 425.566023 83.624233 
L 423.724462 83.624233 
z
" clip-path="url(#pd524eb4852)" style="fill: #55a868; stroke: #ffffff; stroke-width: 0.8; stroke-linejoin: miter"/>
   </g>
   <g id="patch_122">
    <path d="M 434.773826 199.4 
L 436.615386 199.4 
L 436.615386 96.494639 
L 434.773826 96.494639 
z
" clip-path="url(#pd524eb4852)" style="fill: #55a868; stroke: #ffffff; stroke-width: 0.8; stroke-linejoin: miter"/>
   </g>
   <g id="patch_123">
    <path d="M 445.823189 199.4 
L 447.66475 199.4 
L 447.66475 109.345749 
L 445.823189 109.345749 
z
" clip-path="url(#pd524eb4852)" style="fill: #55a868; stroke: #ffffff; stroke-width: 0.8; stroke-linejoin: miter"/>
   </g>
   <g id="patch_124">
    <path d="M 456.872553 199.4 
L 458.714114 199.4 
L 458.714114 83.624233 
L 456.872553 83.624233 
z
" clip-path="url(#pd524eb4852)" style="fill: #55a868; stroke: #ffffff; stroke-width: 0.8; stroke-linejoin: miter"/>
   </g>
   <g id="patch_125">
    <path d="M 467.921917 199.4 
L 469.763477 199.4 
L 469.763477 96.494639 
L 467.921917 96.494639 
z
" clip-path="url(#pd524eb4852)" style="fill: #55a868; stroke: #ffffff; stroke-width: 0.8; stroke-linejoin: miter"/>
   </g>
   <g id="patch_126">
    <path d="M 478.97128 199.4 
L 480.812841 199.4 
L 480.812841 83.624233 
L 478.97128 83.624233 
z
" clip-path="url(#pd524eb4852)" style="fill: #55a868; stroke: #ffffff; stroke-width: 0.8; stroke-linejoin: miter"/>
   </g>
   <g id="patch_127">
    <path d="M 490.020644 199.4 
L 491.862205 199.4 
L 491.862205 32.161905 
L 490.020644 32.161905 
z
" clip-path="url(#pd524eb4852)" style="fill: #55a868; stroke: #ffffff; stroke-width: 0.8; stroke-linejoin: miter"/>
   </g>
   <g id="patch_128">
    <path d="M 273.637273 199.4 
L 273.637273 23.8 
" style="fill: none; stroke: #cccccc; stroke-linejoin: miter; stroke-linecap: square"/>
   </g>
   <g id="patch_129">
    <path d="M 494.624545 199.4 
L 494.624545 23.8 
" style="fill: none; stroke: #cccccc; stroke-linejoin: miter; stroke-linecap: square"/>
   </g>
   <g id="patch_130">
    <path d="M 273.637273 199.4 
L 494.624545 199.4 
" style="fill: none; stroke: #cccccc; stroke-linejoin: miter; stroke-linecap: square"/>
   </g>
   <g id="patch_131">
    <path d="M 273.637273 23.8 
L 494.624545 23.8 
" style="fill: none; stroke: #cccccc; stroke-linejoin: miter; stroke-linecap: square"/>
   </g>
   <g id="text_48">
    <!-- B) Score_set -->
    <g style="fill: #262626" transform="translate(356.386909 17.8)scale(0.096 -0.096)">
     <defs>
      <path id="ArialMT-73" d="M 197 991 
L 753 1078 
Q 800 744 1014 566 
Q 1228 388 1613 388 
Q 2000 388 2187 545 
Q 2375 703 2375 916 
Q 2375 1106 2209 1216 
Q 2094 1291 1634 1406 
Q 1016 1563 777 1677 
Q 538 1791 414 1992 
Q 291 2194 291 2438 
Q 291 2659 392 2848 
Q 494 3038 669 3163 
Q 800 3259 1026 3326 
Q 1253 3394 1513 3394 
Q 1903 3394 2198 3281 
Q 2494 3169 2634 2976 
Q 2775 2784 2828 2463 
L 2278 2388 
Q 2241 2644 2061 2787 
Q 1881 2931 1553 2931 
Q 1166 2931 1000 2803 
Q 834 2675 834 2503 
Q 834 2394 903 2306 
Q 972 2216 1119 2156 
Q 1203 2125 1616 2013 
Q 2213 1853 2448 1751 
Q 2684 1650 2818 1456 
Q 2953 1263 2953 975 
Q 2953 694 2789 445 
Q 2625 197 2315 61 
Q 2006 -75 1616 -75 
Q 969 -75 630 194 
Q 291 463 197 991 
z
" transform="scale(0.015625)"/>
     </defs>
     <use xlink:href="#ArialMT-42"/>
     <use xlink:href="#ArialMT-29" x="66.699219"/>
     <use xlink:href="#ArialMT-20" x="100"/>
     <use xlink:href="#ArialMT-53" x="127.783203"/>
     <use xlink:href="#ArialMT-63" x="194.482422"/>
     <use xlink:href="#ArialMT-6f" x="244.482422"/>
     <use xlink:href="#ArialMT-72" x="300.097656"/>
     <use xlink:href="#ArialMT-65" x="333.398438"/>
     <use xlink:href="#ArialMT-5f" x="389.013672"/>
     <use xlink:href="#ArialMT-73" x="444.628906"/>
     <use xlink:href="#ArialMT-65" x="494.628906"/>
     <use xlink:href="#ArialMT-74" x="550.244141"/>
    </g>
   </g>
   <g id="legend_1">
    <g id="patch_132">
     <path d="M 507.433909 63.862 
L 564.457909 63.862 
Q 566.217909 63.862 566.217909 62.102 
L 566.217909 25.56 
Q 566.217909 23.8 564.457909 23.8 
L 507.433909 23.8 
Q 505.673909 23.8 505.673909 25.56 
L 505.673909 62.102 
Q 505.673909 63.862 507.433909 63.862 
z
" style="fill: #ffffff; opacity: 0.8; stroke: #cccccc; stroke-width: 0.8; stroke-linejoin: miter"/>
    </g>
    <g id="patch_133">
     <path d="M 509.193909 33.645 
L 526.793909 33.645 
L 526.793909 27.485 
L 509.193909 27.485 
z
" style="fill: #4c72b0; stroke: #ffffff; stroke-width: 0.8; stroke-linejoin: miter"/>
    </g>
    <g id="text_49">
     <!-- Top1 -->
     <g style="fill: #262626" transform="translate(533.833909 33.645)scale(0.088 -0.088)">
      <use xlink:href="#ArialMT-54"/>
      <use xlink:href="#ArialMT-6f" x="49.958984"/>
      <use xlink:href="#ArialMT-70" x="105.574219"/>
      <use xlink:href="#ArialMT-31" x="161.189453"/>
     </g>
    </g>
    <g id="patch_134">
     <path d="M 509.193909 46.119 
L 526.793909 46.119 
L 526.793909 39.959 
L 509.193909 39.959 
z
" style="fill: #dd8452; stroke: #ffffff; stroke-width: 0.8; stroke-linejoin: miter"/>
    </g>
    <g id="text_50">
     <!-- Top10 -->
     <g style="fill: #262626" transform="translate(533.833909 46.119)scale(0.088 -0.088)">
      <use xlink:href="#ArialMT-54"/>
      <use xlink:href="#ArialMT-6f" x="49.958984"/>
      <use xlink:href="#ArialMT-70" x="105.574219"/>
      <use xlink:href="#ArialMT-31" x="161.189453"/>
      <use xlink:href="#ArialMT-30" x="216.804688"/>
     </g>
    </g>
    <g id="patch_135">
     <path d="M 509.193909 58.593 
L 526.793909 58.593 
L 526.793909 52.433 
L 509.193909 52.433 
z
" style="fill: #55a868; stroke: #ffffff; stroke-width: 0.8; stroke-linejoin: miter"/>
    </g>
    <g id="text_51">
     <!-- Top100 -->
     <g style="fill: #262626" transform="translate(533.833909 58.593)scale(0.088 -0.088)">
      <use xlink:href="#ArialMT-54"/>
      <use xlink:href="#ArialMT-6f" x="49.958984"/>
      <use xlink:href="#ArialMT-70" x="105.574219"/>
      <use xlink:href="#ArialMT-31" x="161.189453"/>
      <use xlink:href="#ArialMT-30" x="216.804688"/>
      <use xlink:href="#ArialMT-30" x="272.419922"/>
     </g>
    </g>
   </g>
  </g>
 </g>
 <defs>
  <clipPath id="p93fb89ecc1">
   <rect x="41.85" y="23.8" width="220.987273" height="175.6"/>
  </clipPath>
  <clipPath id="pd524eb4852">
   <rect x="273.637273" y="23.8" width="220.987273" height="175.6"/>
  </clipPath>
 </defs>
</svg>
